<?xml version="1.0" encoding="utf-8"?>
<!-- Generator: Adobe Illustrator 13.0.1, SVG Export Plug-In  -->
<!DOCTYPE svg PUBLIC "-//W3C//DTD SVG 1.1//EN" "http://www.w3.org/Graphics/SVG/1.1/DTD/svg11.dtd" [
	<!ENTITY ns_flows "http://ns.adobe.com/Flows/1.0/">
]>
<svg version="1.1"
	 xmlns="http://www.w3.org/2000/svg" xmlns:xlink="http://www.w3.org/1999/xlink" xmlns:a="http://ns.adobe.com/AdobeSVGViewerExtensions/3.0/"
	 x="0px" y="0px" width="883px" height="417px" viewBox="-0.4 -0.6 883 417" enable-background="new -0.4 -0.6 883 417"
	 xml:space="preserve">
<defs>
	
		<pattern  x="-9.4" y="432.4" width="69" height="69" patternUnits="userSpaceOnUse" id="Polka_Dot_Pattern" viewBox="2.1 -70.9 69 69" overflow="visible">
		<g>
			<polygon fill="none" points="71.1,-1.9 2.1,-1.9 2.1,-70.9 71.1,-70.9 			"/>
			<polygon fill="#F6BB60" points="71.1,-1.9 2.1,-1.9 2.1,-70.9 71.1,-70.9 			"/>
			<g>
				<path fill="#FFFFFF" d="M61.8-71.7c0,0.1,0,0.1,0,0.2c-0.1,0.1-0.1,0.1-0.2,0.1c-0.1,0.1-0.1,0.3-0.1,0.4c-0.2,0.1,0,0.2,0,0.3
					c0,0,0,0.1,0,0.2c0,0.1,0,0.3,0.1,0.4c0.1,0.2,0.3,0.4,0.4,0.5c0.2,0.1,0.4,0.6,0.6,0.6c0.2,0,0.4-0.1,0.5-0.1
					c0.2,0,0.4,0,0.6-0.1c0.2-0.1,0.1-0.3,0.3-0.5c0.1-0.1,0.3,0,0.4-0.1c0.2-0.1,0.3-0.3,0.4-0.5c0-0.1,0-0.1,0-0.2
					c0-0.1,0.1-0.2,0.1-0.3c0-0.1-0.1-0.1-0.1-0.2c0-0.1,0-0.2,0-0.3c0-0.2,0-0.4-0.1-0.5c-0.4-0.7-1.2-0.9-2-0.8
					c-0.2,0-0.3,0.1-0.4,0.2c-0.2,0.1-0.1,0.2-0.3,0.2c-0.1,0-0.2,0.1-0.2,0.2C61.8-71.7,61.8-71.7,61.8-71.7
					C61.8-71.6,61.8-71.6,61.8-71.7"/>
				<path fill="#FFFFFF" d="M54.1-71.7c0,0.1,0,0.1,0,0.2c-0.1,0.1-0.1,0.1-0.2,0.1c-0.1,0.1-0.1,0.3-0.1,0.4c-0.2,0.1,0,0.2,0,0.3
					c0,0,0,0.1,0,0.2c0,0.1,0,0.3,0.1,0.4c0.1,0.2,0.3,0.4,0.4,0.5c0.2,0.1,0.4,0.6,0.6,0.6c0.2,0,0.4-0.1,0.5-0.1
					c0.2,0,0.4,0,0.6-0.1c0.2-0.1,0.1-0.3,0.3-0.5c0.1-0.1,0.3,0,0.4-0.1c0.2-0.1,0.3-0.3,0.4-0.5c0-0.1,0-0.1,0-0.2
					c0-0.1,0.1-0.2,0.1-0.3c0-0.1-0.1-0.1-0.1-0.2c0-0.1,0-0.2,0-0.3c0-0.2,0-0.4-0.1-0.5c-0.4-0.7-1.2-0.9-2-0.8
					c-0.2,0-0.3,0.1-0.4,0.2c-0.2,0.1-0.1,0.2-0.3,0.2c-0.1,0-0.2,0.1-0.2,0.2C54.1-71.7,54.1-71.7,54.1-71.7
					C54.1-71.6,54.1-71.6,54.1-71.7"/>
				<path fill="#FFFFFF" d="M46.4-71.7c0,0.1,0,0.1,0,0.2c-0.1,0.1-0.1,0.1-0.2,0.1c-0.1,0.1-0.1,0.3-0.1,0.4c-0.2,0.1,0,0.2,0,0.3
					c0,0,0,0.1,0,0.2c0,0.1,0,0.3,0.1,0.4c0.1,0.2,0.3,0.4,0.4,0.5c0.2,0.1,0.4,0.6,0.6,0.6c0.2,0,0.4-0.1,0.5-0.1
					c0.2,0,0.4,0,0.6-0.1c0.2-0.1,0.1-0.3,0.3-0.5c0.1-0.1,0.3,0,0.4-0.1c0.2-0.1,0.3-0.3,0.4-0.5c0-0.1,0-0.1,0-0.2
					c0-0.1,0.1-0.2,0.1-0.3c0-0.1-0.1-0.1-0.1-0.2c0-0.1,0-0.2,0-0.3c0-0.2,0-0.4-0.1-0.5c-0.4-0.7-1.2-0.9-2-0.8
					c-0.2,0-0.3,0.1-0.4,0.2c-0.2,0.1-0.1,0.2-0.3,0.2c-0.1,0-0.2,0.1-0.2,0.2C46.4-71.7,46.4-71.7,46.4-71.7
					C46.4-71.6,46.4-71.6,46.4-71.7"/>
				<path fill="#FFFFFF" d="M38.8-71.7c0,0.1,0,0.1,0,0.2c-0.1,0.1-0.1,0.1-0.2,0.1c-0.1,0.1-0.1,0.3-0.1,0.4c-0.2,0.1,0,0.2,0,0.3
					c0,0,0,0.1,0,0.2c0,0.1,0,0.3,0.1,0.4c0.1,0.2,0.3,0.4,0.4,0.5c0.2,0.1,0.4,0.6,0.6,0.6c0.2,0,0.4-0.1,0.5-0.1
					c0.2,0,0.4,0,0.6-0.1c0.2-0.1,0.1-0.3,0.3-0.5c0.1-0.1,0.3,0,0.4-0.1c0.2-0.1,0.3-0.3,0.4-0.5c0-0.1,0-0.1,0-0.2
					c0-0.1,0.1-0.2,0.1-0.3c0-0.1-0.1-0.1-0.1-0.2c0-0.1,0-0.2,0-0.3c0-0.2,0-0.4-0.1-0.5c-0.4-0.7-1.2-0.9-2-0.8
					c-0.2,0-0.3,0.1-0.4,0.2c-0.2,0.1-0.1,0.2-0.3,0.2c-0.1,0-0.2,0.1-0.2,0.2C38.8-71.7,38.8-71.7,38.8-71.7
					C38.8-71.6,38.8-71.6,38.8-71.7"/>
				<path fill="#FFFFFF" d="M31.1-71.7c0,0.1,0,0.1,0,0.2c-0.1,0.1-0.1,0.1-0.2,0.1c-0.1,0.1-0.1,0.3-0.1,0.4c-0.2,0.1,0,0.2,0,0.3
					c0,0,0,0.1,0,0.2c0,0.1,0,0.3,0.1,0.4c0.1,0.2,0.3,0.4,0.4,0.5c0.2,0.1,0.4,0.6,0.6,0.6c0.2,0,0.4-0.1,0.5-0.1
					c0.2,0,0.4,0,0.6-0.1c0.2-0.1,0.1-0.3,0.3-0.5c0.1-0.1,0.3,0,0.4-0.1c0.2-0.1,0.3-0.3,0.4-0.5c0-0.1,0-0.1,0-0.2
					c0-0.1,0.1-0.2,0.1-0.3c0-0.1-0.1-0.1-0.1-0.2c0-0.1,0-0.2,0-0.3c0-0.2,0-0.4-0.1-0.5c-0.4-0.7-1.2-0.9-2-0.8
					c-0.2,0-0.3,0.1-0.4,0.2c-0.2,0.1-0.1,0.2-0.3,0.2c-0.1,0-0.2,0.1-0.2,0.2C31.1-71.7,31.1-71.7,31.1-71.7
					C31.1-71.6,31.1-71.6,31.1-71.7"/>
				<path fill="#FFFFFF" d="M23.4-71.7c0,0.1,0,0.1,0,0.2c-0.1,0.1-0.1,0.1-0.2,0.1c-0.1,0.1-0.1,0.3-0.1,0.4c-0.2,0.1,0,0.2,0,0.3
					c0,0,0,0.1,0,0.2c0,0.1,0,0.3,0.1,0.4c0.1,0.2,0.3,0.4,0.4,0.5c0.2,0.1,0.4,0.6,0.6,0.6c0.2,0,0.4-0.1,0.5-0.1
					c0.2,0,0.4,0,0.6-0.1c0.2-0.1,0.1-0.3,0.3-0.5c0.1-0.1,0.3,0,0.4-0.1c0.2-0.1,0.3-0.3,0.4-0.5c0-0.1,0-0.1,0-0.2
					c0-0.1,0.1-0.2,0.1-0.3c0-0.1-0.1-0.1-0.1-0.2c0-0.1,0-0.2,0-0.3c0-0.2,0-0.4-0.1-0.5c-0.4-0.7-1.2-0.9-2-0.8
					c-0.2,0-0.3,0.1-0.4,0.2c-0.2,0.1-0.1,0.2-0.3,0.2c-0.1,0-0.2,0.1-0.2,0.2C23.4-71.7,23.4-71.7,23.4-71.7
					C23.4-71.6,23.4-71.6,23.4-71.7"/>
				<path fill="#FFFFFF" d="M15.8-71.7c0,0.1,0,0.1,0,0.2c-0.1,0.1-0.1,0.1-0.2,0.1c-0.1,0.1-0.1,0.3-0.1,0.4c-0.2,0.1,0,0.2,0,0.3
					c0,0,0,0.1,0,0.2c0,0.1,0,0.3,0.1,0.4c0.1,0.2,0.3,0.4,0.4,0.5c0.2,0.1,0.4,0.6,0.6,0.6c0.2,0,0.4-0.1,0.5-0.1
					c0.2,0,0.4,0,0.6-0.1c0.2-0.1,0.1-0.3,0.3-0.5c0.1-0.1,0.3,0,0.4-0.1c0.2-0.1,0.3-0.3,0.4-0.5c0-0.1,0-0.1,0-0.2
					c0-0.1,0.1-0.2,0.1-0.3c0-0.1-0.1-0.1-0.1-0.2c0-0.1,0-0.2,0-0.3c0-0.2,0-0.4-0.1-0.5c-0.4-0.7-1.2-0.9-2-0.8
					c-0.2,0-0.3,0.1-0.4,0.2c-0.2,0.1-0.1,0.2-0.3,0.2c-0.1,0-0.2,0.1-0.2,0.2C15.8-71.7,15.8-71.7,15.8-71.7
					C15.8-71.6,15.8-71.6,15.8-71.7"/>
				<path fill="#FFFFFF" d="M8.1-71.7c0,0.1,0,0.1,0,0.2C8-71.4,8-71.4,7.9-71.3c-0.1,0.1-0.1,0.3-0.1,0.4c-0.2,0.1,0,0.2,0,0.3
					c0,0,0,0.1,0,0.2c0,0.1,0,0.3,0.1,0.4c0.1,0.2,0.3,0.4,0.4,0.5c0.2,0.1,0.4,0.6,0.6,0.6c0.2,0,0.4-0.1,0.5-0.1
					c0.2,0,0.4,0,0.6-0.1c0.2-0.1,0.1-0.3,0.3-0.5c0.1-0.1,0.3,0,0.4-0.1c0.2-0.1,0.3-0.3,0.4-0.5c0-0.1,0-0.1,0-0.2
					c0-0.1,0.1-0.2,0.1-0.3c0-0.1-0.1-0.1-0.1-0.2c0-0.1,0-0.2,0-0.3c0-0.2,0-0.4-0.1-0.5c-0.4-0.7-1.2-0.9-2-0.8
					c-0.2,0-0.3,0.1-0.4,0.2c-0.2,0.1-0.1,0.2-0.3,0.2c-0.1,0-0.2,0.1-0.2,0.2C8.1-71.7,8.1-71.7,8.1-71.7
					C8.1-71.6,8.1-71.6,8.1-71.7"/>
				<path fill="#FFFFFF" d="M0.4-71.7c0,0.1,0,0.1,0,0.2c-0.1,0.1-0.1,0.1-0.2,0.1c-0.1,0.1-0.1,0.3-0.1,0.4c-0.2,0.1,0,0.2,0,0.3
					c0,0,0,0.1,0,0.2c0,0.1,0,0.3,0.1,0.4c0.1,0.2,0.3,0.4,0.4,0.5C0.8-69.4,1-69,1.2-68.9c0.2,0,0.4-0.1,0.5-0.1
					c0.2,0,0.4,0,0.6-0.1c0.2-0.1,0.1-0.3,0.3-0.5c0.1-0.1,0.3,0,0.4-0.1c0.2-0.1,0.3-0.3,0.4-0.5c0-0.1,0-0.1,0-0.2
					c0-0.1,0.1-0.2,0.1-0.3c0-0.1-0.1-0.1-0.1-0.2c0-0.1,0-0.2,0-0.3c0-0.2,0-0.4-0.1-0.5c-0.4-0.7-1.2-0.9-2-0.8
					c-0.2,0-0.3,0.1-0.4,0.2c-0.2,0.1-0.1,0.2-0.3,0.2c-0.1,0-0.2,0.1-0.2,0.2C0.4-71.7,0.4-71.7,0.4-71.7
					C0.4-71.6,0.4-71.6,0.4-71.7"/>
			</g>
			<g>
				<path fill="#FFFFFF" d="M69.4-71.7c0,0.1,0,0.1,0,0.2c-0.1,0.1-0.1,0.1-0.2,0.1c-0.1,0.1-0.1,0.3-0.1,0.4c-0.2,0.1,0,0.2,0,0.3
					c0,0,0,0.1,0,0.2c0,0.1,0,0.3,0.1,0.4c0.1,0.2,0.3,0.4,0.4,0.5c0.2,0.1,0.4,0.6,0.6,0.6c0.2,0,0.4-0.1,0.5-0.1
					c0.2,0,0.4,0,0.6-0.1c0.2-0.1,0.1-0.3,0.3-0.5c0.1-0.1,0.3,0,0.4-0.1c0.2-0.1,0.3-0.3,0.4-0.5c0-0.1,0-0.1,0-0.2
					c0-0.1,0.1-0.2,0.1-0.3c0-0.1-0.1-0.1-0.1-0.2c0-0.1,0-0.2,0-0.3c0-0.2,0-0.4-0.1-0.5c-0.4-0.7-1.2-0.9-2-0.8
					c-0.2,0-0.3,0.1-0.4,0.2c-0.2,0.1-0.1,0.2-0.3,0.2c-0.1,0-0.2,0.1-0.2,0.2C69.4-71.7,69.4-71.7,69.4-71.7
					C69.4-71.6,69.4-71.6,69.4-71.7"/>
			</g>
			<path fill="#FFFFFF" d="M0.5-71.7c0,0.1,0,0.1,0,0.2c-0.1,0.1-0.1,0.1-0.2,0.1c-0.1,0.1-0.1,0.3-0.1,0.4c-0.2,0.1,0,0.2,0,0.3
				c0,0,0,0.1,0,0.2c0,0.1,0,0.3,0.1,0.4c0.1,0.2,0.3,0.4,0.4,0.5C0.9-69.4,1-69,1.3-68.9c0.2,0,0.4-0.1,0.5-0.1
				c0.2,0,0.4,0,0.6-0.1c0.2-0.1,0.1-0.3,0.3-0.5c0.1-0.1,0.3,0,0.4-0.1c0.2-0.1,0.3-0.3,0.4-0.5c0-0.1,0-0.1,0-0.2
				c0-0.1,0.1-0.2,0.1-0.3c0-0.1-0.1-0.1-0.1-0.2c0-0.1,0-0.2,0-0.3c0-0.2,0-0.4-0.1-0.5c-0.4-0.7-1.2-0.9-2-0.8
				c-0.2,0-0.3,0.1-0.4,0.2c-0.2,0.1-0.1,0.2-0.3,0.2c-0.1,0-0.2,0.1-0.2,0.2C0.5-71.7,0.5-71.7,0.5-71.7
				C0.5-71.6,0.5-71.6,0.5-71.7"/>
			<g>
				<g>
					<path fill="#FFFFFF" d="M69.4-64c0,0.1,0,0.1,0,0.2c-0.1,0.1-0.1,0.1-0.2,0.1c-0.1,0.1-0.1,0.3-0.1,0.4c-0.2,0.1,0,0.2,0,0.3
						c0,0,0,0.1,0,0.2c0,0.1,0,0.3,0.1,0.4c0.1,0.2,0.3,0.4,0.4,0.5c0.2,0.1,0.4,0.6,0.6,0.6c0.2,0,0.4-0.1,0.5-0.1
						c0.2,0,0.4,0,0.6-0.1c0.2-0.1,0.1-0.3,0.3-0.5c0.1-0.1,0.3,0,0.4-0.1c0.2-0.1,0.3-0.3,0.4-0.5c0-0.1,0-0.1,0-0.2
						c0-0.1,0.1-0.2,0.1-0.3c0-0.1-0.1-0.1-0.1-0.2c0-0.1,0-0.2,0-0.3c0-0.2,0-0.4-0.1-0.5c-0.4-0.7-1.2-0.9-2-0.8
						c-0.2,0-0.3,0.1-0.4,0.2c-0.2,0.1-0.1,0.2-0.3,0.2c-0.1,0-0.2,0.1-0.2,0.2C69.4-64,69.4-64.1,69.4-64C69.4-64,69.4-64,69.4-64"
						/>
					<path fill="#FFFFFF" d="M61.8-64c0,0.1,0,0.1,0,0.2c-0.1,0.1-0.1,0.1-0.2,0.1c-0.1,0.1-0.1,0.3-0.1,0.4c-0.2,0.1,0,0.2,0,0.3
						c0,0,0,0.1,0,0.2c0,0.1,0,0.3,0.1,0.4c0.1,0.2,0.3,0.4,0.4,0.5c0.2,0.1,0.4,0.6,0.6,0.6c0.2,0,0.4-0.1,0.5-0.1
						c0.2,0,0.4,0,0.6-0.1c0.2-0.1,0.1-0.3,0.3-0.5c0.1-0.1,0.3,0,0.4-0.1c0.2-0.1,0.3-0.3,0.4-0.5c0-0.1,0-0.1,0-0.2
						c0-0.1,0.1-0.2,0.1-0.3c0-0.1-0.1-0.1-0.1-0.2c0-0.1,0-0.2,0-0.3c0-0.2,0-0.4-0.1-0.5c-0.4-0.7-1.2-0.9-2-0.8
						c-0.2,0-0.3,0.1-0.4,0.2c-0.2,0.1-0.1,0.2-0.3,0.2c-0.1,0-0.2,0.1-0.2,0.2C61.8-64,61.8-64.1,61.8-64C61.8-64,61.8-64,61.8-64"
						/>
					<path fill="#FFFFFF" d="M54.1-64c0,0.1,0,0.1,0,0.2c-0.1,0.1-0.1,0.1-0.2,0.1c-0.1,0.1-0.1,0.3-0.1,0.4c-0.2,0.1,0,0.2,0,0.3
						c0,0,0,0.1,0,0.2c0,0.1,0,0.3,0.1,0.4c0.1,0.2,0.3,0.4,0.4,0.5c0.2,0.1,0.4,0.6,0.6,0.6c0.2,0,0.4-0.1,0.5-0.1
						c0.2,0,0.4,0,0.6-0.1c0.2-0.1,0.1-0.3,0.3-0.5c0.1-0.1,0.3,0,0.4-0.1c0.2-0.1,0.3-0.3,0.4-0.5c0-0.1,0-0.1,0-0.2
						c0-0.1,0.1-0.2,0.1-0.3c0-0.1-0.1-0.1-0.1-0.2c0-0.1,0-0.2,0-0.3c0-0.2,0-0.4-0.1-0.5c-0.4-0.7-1.2-0.9-2-0.8
						c-0.2,0-0.3,0.1-0.4,0.2c-0.2,0.1-0.1,0.2-0.3,0.2c-0.1,0-0.2,0.1-0.2,0.2C54.1-64,54.1-64.1,54.1-64C54.1-64,54.1-64,54.1-64"
						/>
					<path fill="#FFFFFF" d="M46.5-64c0,0.1,0,0.1,0,0.2c-0.1,0.1-0.1,0.1-0.2,0.1c-0.1,0.1-0.1,0.3-0.1,0.4c-0.2,0.1,0,0.2,0,0.3
						c0,0,0,0.1,0,0.2c0,0.1,0,0.3,0.1,0.4c0.1,0.2,0.3,0.4,0.4,0.5c0.2,0.1,0.4,0.6,0.6,0.6c0.2,0,0.4-0.1,0.5-0.1
						c0.2,0,0.4,0,0.6-0.1c0.2-0.1,0.1-0.3,0.3-0.5c0.1-0.1,0.3,0,0.4-0.1c0.2-0.1,0.3-0.3,0.4-0.5c0-0.1,0-0.1,0-0.2
						c0-0.1,0.1-0.2,0.1-0.3c0-0.1-0.1-0.1-0.1-0.2c0-0.1,0-0.2,0-0.3c0-0.2,0-0.4-0.1-0.5c-0.4-0.7-1.2-0.9-2-0.8
						c-0.2,0-0.3,0.1-0.4,0.2c-0.2,0.1-0.1,0.2-0.3,0.2c-0.1,0-0.2,0.1-0.2,0.2C46.5-64,46.5-64.1,46.5-64C46.5-64,46.5-64,46.5-64"
						/>
					<path fill="#FFFFFF" d="M38.8-64c0,0.1,0,0.1,0,0.2c-0.1,0.1-0.1,0.1-0.2,0.1c-0.1,0.1-0.1,0.3-0.1,0.4c-0.2,0.1,0,0.2,0,0.3
						c0,0,0,0.1,0,0.2c0,0.1,0,0.3,0.1,0.4c0.1,0.2,0.3,0.4,0.4,0.5c0.2,0.1,0.4,0.6,0.6,0.6c0.2,0,0.4-0.1,0.5-0.1
						c0.2,0,0.4,0,0.6-0.1c0.2-0.1,0.1-0.3,0.3-0.5c0.1-0.1,0.3,0,0.4-0.1c0.2-0.1,0.3-0.3,0.4-0.5c0-0.1,0-0.1,0-0.2
						c0-0.1,0.1-0.2,0.1-0.3c0-0.1-0.1-0.1-0.1-0.2c0-0.1,0-0.2,0-0.3c0-0.2,0-0.4-0.1-0.5c-0.4-0.7-1.2-0.9-2-0.8
						c-0.2,0-0.3,0.1-0.4,0.2c-0.2,0.1-0.1,0.2-0.3,0.2c-0.1,0-0.2,0.1-0.2,0.2C38.8-64,38.8-64.1,38.8-64C38.8-64,38.8-64,38.8-64"
						/>
					<path fill="#FFFFFF" d="M31.1-64c0,0.1,0,0.1,0,0.2c-0.1,0.1-0.1,0.1-0.2,0.1c-0.1,0.1-0.1,0.3-0.1,0.4c-0.2,0.1,0,0.2,0,0.3
						c0,0,0,0.1,0,0.2c0,0.1,0,0.3,0.1,0.4c0.1,0.2,0.3,0.4,0.4,0.5c0.2,0.1,0.4,0.6,0.6,0.6c0.2,0,0.4-0.1,0.5-0.1
						c0.2,0,0.4,0,0.6-0.1c0.2-0.1,0.1-0.3,0.3-0.5c0.1-0.1,0.3,0,0.4-0.1c0.2-0.1,0.3-0.3,0.4-0.5c0-0.1,0-0.1,0-0.2
						c0-0.1,0.1-0.2,0.1-0.3c0-0.1-0.1-0.1-0.1-0.2c0-0.1,0-0.2,0-0.3c0-0.2,0-0.4-0.1-0.5c-0.4-0.7-1.2-0.9-2-0.8
						c-0.2,0-0.3,0.1-0.4,0.2c-0.2,0.1-0.1,0.2-0.3,0.2c-0.1,0-0.2,0.1-0.2,0.2C31.1-64,31.1-64.1,31.1-64C31.1-64,31.1-64,31.1-64"
						/>
					<path fill="#FFFFFF" d="M23.5-64c0,0.1,0,0.1,0,0.2c-0.1,0.1-0.1,0.1-0.2,0.1c-0.1,0.1-0.1,0.3-0.1,0.4c-0.2,0.1,0,0.2,0,0.3
						c0,0,0,0.1,0,0.2c0,0.1,0,0.3,0.1,0.4c0.1,0.2,0.3,0.4,0.4,0.5c0.2,0.1,0.4,0.6,0.6,0.6c0.2,0,0.4-0.1,0.5-0.1
						c0.2,0,0.4,0,0.6-0.1c0.2-0.1,0.1-0.3,0.3-0.5c0.1-0.1,0.3,0,0.4-0.1c0.2-0.1,0.3-0.3,0.4-0.5c0-0.1,0-0.1,0-0.2
						c0-0.1,0.1-0.2,0.1-0.3c0-0.1-0.1-0.1-0.1-0.2c0-0.1,0-0.2,0-0.3c0-0.2,0-0.4-0.1-0.5c-0.4-0.7-1.2-0.9-2-0.8
						c-0.2,0-0.3,0.1-0.4,0.2c-0.2,0.1-0.1,0.2-0.3,0.2c-0.1,0-0.2,0.1-0.2,0.2C23.5-64,23.5-64.1,23.5-64C23.5-64,23.5-64,23.5-64"
						/>
					<path fill="#FFFFFF" d="M15.8-64c0,0.1,0,0.1,0,0.2c-0.1,0.1-0.1,0.1-0.2,0.1c-0.1,0.1-0.1,0.3-0.1,0.4c-0.2,0.1,0,0.2,0,0.3
						c0,0,0,0.1,0,0.2c0,0.1,0,0.3,0.1,0.4c0.1,0.2,0.3,0.4,0.4,0.5c0.2,0.1,0.4,0.6,0.6,0.6c0.2,0,0.4-0.1,0.5-0.1
						c0.2,0,0.4,0,0.6-0.1c0.2-0.1,0.1-0.3,0.3-0.5c0.1-0.1,0.3,0,0.4-0.1c0.2-0.1,0.3-0.3,0.4-0.5c0-0.1,0-0.1,0-0.2
						c0-0.1,0.1-0.2,0.1-0.3c0-0.1-0.1-0.1-0.1-0.2c0-0.1,0-0.2,0-0.3c0-0.2,0-0.4-0.1-0.5c-0.4-0.7-1.2-0.9-2-0.8
						c-0.2,0-0.3,0.1-0.4,0.2c-0.2,0.1-0.1,0.2-0.3,0.2c-0.1,0-0.2,0.1-0.2,0.2C15.8-64,15.8-64.1,15.8-64C15.8-64,15.8-64,15.8-64"
						/>
					<path fill="#FFFFFF" d="M8.2-64c0,0.1,0,0.1,0,0.2C8.1-63.7,8-63.7,8-63.7c-0.1,0.1-0.1,0.3-0.1,0.4c-0.2,0.1,0,0.2,0,0.3
						c0,0,0,0.1,0,0.2c0,0.1,0,0.3,0.1,0.4C8-62.2,8.2-62,8.3-61.9c0.2,0.1,0.4,0.6,0.6,0.6c0.2,0,0.4-0.1,0.5-0.1
						c0.2,0,0.4,0,0.6-0.1c0.2-0.1,0.1-0.3,0.3-0.5c0.1-0.1,0.3,0,0.4-0.1c0.2-0.1,0.3-0.3,0.4-0.5c0-0.1,0-0.1,0-0.2
						c0-0.1,0.1-0.2,0.1-0.3c0-0.1-0.1-0.1-0.1-0.2c0-0.1,0-0.2,0-0.3c0-0.2,0-0.4-0.1-0.5c-0.4-0.7-1.2-0.9-2-0.8
						c-0.2,0-0.3,0.1-0.4,0.2c-0.2,0.1-0.1,0.2-0.3,0.2c-0.1,0-0.2,0.1-0.2,0.2C8.2-64,8.2-64.1,8.2-64C8.1-64,8.1-64,8.2-64"/>
					<path fill="#FFFFFF" d="M0.5-64c0,0.1,0,0.1,0,0.2c-0.1,0.1-0.1,0.1-0.2,0.1c-0.1,0.1-0.1,0.3-0.1,0.4c-0.2,0.1,0,0.2,0,0.3
						c0,0,0,0.1,0,0.2c0,0.1,0,0.3,0.1,0.4c0.1,0.2,0.3,0.4,0.4,0.5c0.2,0.1,0.4,0.6,0.6,0.6c0.2,0,0.4-0.1,0.5-0.1
						c0.2,0,0.4,0,0.6-0.1c0.2-0.1,0.1-0.3,0.3-0.5C2.8-62,3-61.9,3.1-62c0.2-0.1,0.3-0.3,0.4-0.5c0-0.1,0-0.1,0-0.2
						c0-0.1,0.1-0.2,0.1-0.3c0-0.1-0.1-0.1-0.1-0.2c0-0.1,0-0.2,0-0.3c0-0.2,0-0.4-0.1-0.5c-0.4-0.7-1.2-0.9-2-0.8
						c-0.2,0-0.3,0.1-0.4,0.2c-0.2,0.1-0.1,0.2-0.3,0.2c-0.1,0-0.2,0.1-0.2,0.2C0.5-64,0.5-64.1,0.5-64C0.5-64,0.5-64,0.5-64"/>
				</g>
				<g>
					<path fill="#FFFFFF" d="M69.4-56.3c0,0.1,0,0.1,0,0.2c-0.1,0.1-0.1,0.1-0.2,0.1c-0.1,0.1-0.1,0.3-0.1,0.4c-0.2,0.1,0,0.2,0,0.3
						c0,0,0,0.1,0,0.2c0,0.1,0,0.3,0.1,0.4c0.1,0.2,0.3,0.4,0.4,0.5c0.2,0.1,0.4,0.6,0.6,0.6c0.2,0,0.4-0.1,0.5-0.1
						c0.2,0,0.4,0,0.6-0.1c0.2-0.1,0.1-0.3,0.3-0.5c0.1-0.1,0.3,0,0.4-0.1c0.2-0.1,0.3-0.3,0.4-0.5c0-0.1,0-0.1,0-0.2
						c0-0.1,0.1-0.2,0.1-0.3c0-0.1-0.1-0.1-0.1-0.2c0-0.1,0-0.2,0-0.3c0-0.2,0-0.4-0.1-0.5c-0.4-0.7-1.2-0.9-2-0.8
						c-0.2,0-0.3,0.1-0.4,0.2c-0.2,0.1-0.1,0.2-0.3,0.2c-0.1,0-0.2,0.1-0.2,0.2C69.4-56.4,69.4-56.4,69.4-56.3
						C69.4-56.3,69.4-56.3,69.4-56.3"/>
					<path fill="#FFFFFF" d="M61.8-56.3c0,0.1,0,0.1,0,0.2c-0.1,0.1-0.1,0.1-0.2,0.1c-0.1,0.1-0.1,0.3-0.1,0.4c-0.2,0.1,0,0.2,0,0.3
						c0,0,0,0.1,0,0.2c0,0.1,0,0.3,0.1,0.4c0.1,0.2,0.3,0.4,0.4,0.5c0.2,0.1,0.4,0.6,0.6,0.6c0.2,0,0.4-0.1,0.5-0.1
						c0.2,0,0.4,0,0.6-0.1c0.2-0.1,0.1-0.3,0.3-0.5c0.1-0.1,0.3,0,0.4-0.1c0.2-0.1,0.3-0.3,0.4-0.5c0-0.1,0-0.1,0-0.2
						c0-0.1,0.1-0.2,0.1-0.3c0-0.1-0.1-0.1-0.1-0.2c0-0.1,0-0.2,0-0.3c0-0.2,0-0.4-0.1-0.5c-0.4-0.7-1.2-0.9-2-0.8
						c-0.2,0-0.3,0.1-0.4,0.2c-0.2,0.1-0.1,0.2-0.3,0.2c-0.1,0-0.2,0.1-0.2,0.2C61.8-56.4,61.8-56.4,61.8-56.3
						C61.8-56.3,61.8-56.3,61.8-56.3"/>
					<path fill="#FFFFFF" d="M54.1-56.3c0,0.1,0,0.1,0,0.2C54-56.1,54-56.1,53.9-56c-0.1,0.1-0.1,0.3-0.1,0.4c-0.2,0.1,0,0.2,0,0.3
						c0,0,0,0.1,0,0.2c0,0.1,0,0.3,0.1,0.4c0.1,0.2,0.3,0.4,0.4,0.5c0.2,0.1,0.4,0.6,0.6,0.6c0.2,0,0.4-0.1,0.5-0.1
						c0.2,0,0.4,0,0.6-0.1c0.2-0.1,0.1-0.3,0.3-0.5c0.1-0.1,0.3,0,0.4-0.1c0.2-0.1,0.3-0.3,0.4-0.5c0-0.1,0-0.1,0-0.2
						c0-0.1,0.1-0.2,0.1-0.3c0-0.1-0.1-0.1-0.1-0.2c0-0.1,0-0.2,0-0.3c0-0.2,0-0.4-0.1-0.5c-0.4-0.7-1.2-0.9-2-0.8
						c-0.2,0-0.3,0.1-0.4,0.2c-0.2,0.1-0.1,0.2-0.3,0.2c-0.1,0-0.2,0.1-0.2,0.2C54.1-56.4,54.1-56.4,54.1-56.3
						C54.1-56.3,54.1-56.3,54.1-56.3"/>
					<path fill="#FFFFFF" d="M46.5-56.3c0,0.1,0,0.1,0,0.2c-0.1,0.1-0.1,0.1-0.2,0.1c-0.1,0.1-0.1,0.3-0.1,0.4c-0.2,0.1,0,0.2,0,0.3
						c0,0,0,0.1,0,0.2c0,0.1,0,0.3,0.1,0.4c0.1,0.2,0.3,0.4,0.4,0.5c0.2,0.1,0.4,0.6,0.6,0.6c0.2,0,0.4-0.1,0.5-0.1
						c0.2,0,0.4,0,0.6-0.1c0.2-0.1,0.1-0.3,0.3-0.5c0.1-0.1,0.3,0,0.4-0.1c0.2-0.1,0.3-0.3,0.4-0.5c0-0.1,0-0.1,0-0.2
						c0-0.1,0.1-0.2,0.1-0.3c0-0.1-0.1-0.1-0.1-0.2c0-0.1,0-0.2,0-0.3c0-0.2,0-0.4-0.1-0.5c-0.4-0.7-1.2-0.9-2-0.8
						c-0.2,0-0.3,0.1-0.4,0.2c-0.2,0.1-0.1,0.2-0.3,0.2c-0.1,0-0.2,0.1-0.2,0.2C46.5-56.4,46.5-56.4,46.5-56.3
						C46.5-56.3,46.5-56.3,46.5-56.3"/>
					<path fill="#FFFFFF" d="M38.8-56.3c0,0.1,0,0.1,0,0.2c-0.1,0.1-0.1,0.1-0.2,0.1c-0.1,0.1-0.1,0.3-0.1,0.4c-0.2,0.1,0,0.2,0,0.3
						c0,0,0,0.1,0,0.2c0,0.1,0,0.3,0.1,0.4c0.1,0.2,0.3,0.4,0.4,0.5c0.2,0.1,0.4,0.6,0.6,0.6c0.2,0,0.4-0.1,0.5-0.1
						c0.2,0,0.4,0,0.6-0.1c0.2-0.1,0.1-0.3,0.3-0.5c0.1-0.1,0.3,0,0.4-0.1c0.2-0.1,0.3-0.3,0.4-0.5c0-0.1,0-0.1,0-0.2
						c0-0.1,0.1-0.2,0.1-0.3c0-0.1-0.1-0.1-0.1-0.2c0-0.1,0-0.2,0-0.3c0-0.2,0-0.4-0.1-0.5c-0.4-0.7-1.2-0.9-2-0.8
						c-0.2,0-0.3,0.1-0.4,0.2c-0.2,0.1-0.1,0.2-0.3,0.2c-0.1,0-0.2,0.1-0.2,0.2C38.8-56.4,38.8-56.4,38.8-56.3
						C38.8-56.3,38.8-56.3,38.8-56.3"/>
					<path fill="#FFFFFF" d="M31.1-56.3c0,0.1,0,0.1,0,0.2c-0.1,0.1-0.1,0.1-0.2,0.1c-0.1,0.1-0.1,0.3-0.1,0.4c-0.2,0.1,0,0.2,0,0.3
						c0,0,0,0.1,0,0.2c0,0.1,0,0.3,0.1,0.4c0.1,0.2,0.3,0.4,0.4,0.5c0.2,0.1,0.4,0.6,0.6,0.6c0.2,0,0.4-0.1,0.5-0.1
						c0.2,0,0.4,0,0.6-0.1c0.2-0.1,0.1-0.3,0.3-0.5c0.1-0.1,0.3,0,0.4-0.1c0.2-0.1,0.3-0.3,0.4-0.5c0-0.1,0-0.1,0-0.2
						c0-0.1,0.1-0.2,0.1-0.3c0-0.1-0.1-0.1-0.1-0.2c0-0.1,0-0.2,0-0.3c0-0.2,0-0.4-0.1-0.5c-0.4-0.7-1.2-0.9-2-0.8
						c-0.2,0-0.3,0.1-0.4,0.2c-0.2,0.1-0.1,0.2-0.3,0.2c-0.1,0-0.2,0.1-0.2,0.2C31.1-56.4,31.1-56.4,31.1-56.3
						C31.1-56.3,31.1-56.3,31.1-56.3"/>
					<path fill="#FFFFFF" d="M23.5-56.3c0,0.1,0,0.1,0,0.2c-0.1,0.1-0.1,0.1-0.2,0.1c-0.1,0.1-0.1,0.3-0.1,0.4c-0.2,0.1,0,0.2,0,0.3
						c0,0,0,0.1,0,0.2c0,0.1,0,0.3,0.1,0.4c0.1,0.2,0.3,0.4,0.4,0.5c0.2,0.1,0.4,0.6,0.6,0.6c0.2,0,0.4-0.1,0.5-0.1
						c0.2,0,0.4,0,0.6-0.1c0.2-0.1,0.1-0.3,0.3-0.5c0.1-0.1,0.3,0,0.4-0.1c0.2-0.1,0.3-0.3,0.4-0.5c0-0.1,0-0.1,0-0.2
						c0-0.1,0.1-0.2,0.1-0.3c0-0.1-0.1-0.1-0.1-0.2c0-0.1,0-0.2,0-0.3c0-0.2,0-0.4-0.1-0.5c-0.4-0.7-1.2-0.9-2-0.8
						c-0.2,0-0.3,0.1-0.4,0.2c-0.2,0.1-0.1,0.2-0.3,0.2c-0.1,0-0.2,0.1-0.2,0.2C23.5-56.4,23.5-56.4,23.5-56.3
						C23.5-56.3,23.5-56.3,23.5-56.3"/>
					<path fill="#FFFFFF" d="M15.8-56.3c0,0.1,0,0.1,0,0.2c-0.1,0.1-0.1,0.1-0.2,0.1c-0.1,0.1-0.1,0.3-0.1,0.4c-0.2,0.1,0,0.2,0,0.3
						c0,0,0,0.1,0,0.2c0,0.1,0,0.3,0.1,0.4c0.1,0.2,0.3,0.4,0.4,0.5c0.2,0.1,0.4,0.6,0.6,0.6c0.2,0,0.4-0.1,0.5-0.1
						c0.2,0,0.4,0,0.6-0.1c0.2-0.1,0.1-0.3,0.3-0.5c0.1-0.1,0.3,0,0.4-0.1c0.2-0.1,0.3-0.3,0.4-0.5c0-0.1,0-0.1,0-0.2
						c0-0.1,0.1-0.2,0.1-0.3c0-0.1-0.1-0.1-0.1-0.2c0-0.1,0-0.2,0-0.3c0-0.2,0-0.4-0.1-0.5c-0.4-0.7-1.2-0.9-2-0.8
						c-0.2,0-0.3,0.1-0.4,0.2c-0.2,0.1-0.1,0.2-0.3,0.2c-0.1,0-0.2,0.1-0.2,0.2C15.8-56.4,15.8-56.4,15.8-56.3
						C15.8-56.3,15.8-56.3,15.8-56.3"/>
					<path fill="#FFFFFF" d="M8.2-56.3c0,0.1,0,0.1,0,0.2C8.1-56.1,8-56.1,8-56c-0.1,0.1-0.1,0.3-0.1,0.4c-0.2,0.1,0,0.2,0,0.3
						c0,0,0,0.1,0,0.2c0,0.1,0,0.3,0.1,0.4c0.1,0.2,0.3,0.4,0.4,0.5c0.2,0.1,0.4,0.6,0.6,0.6c0.2,0,0.4-0.1,0.5-0.1
						c0.2,0,0.4,0,0.6-0.1c0.2-0.1,0.1-0.3,0.3-0.5c0.1-0.1,0.3,0,0.4-0.1c0.2-0.1,0.3-0.3,0.4-0.5c0-0.1,0-0.1,0-0.2
						c0-0.1,0.1-0.2,0.1-0.3c0-0.1-0.1-0.1-0.1-0.2c0-0.1,0-0.2,0-0.3c0-0.2,0-0.4-0.1-0.5c-0.4-0.7-1.2-0.9-2-0.8
						c-0.2,0-0.3,0.1-0.4,0.2c-0.2,0.1-0.1,0.2-0.3,0.2c-0.1,0-0.2,0.1-0.2,0.2C8.2-56.4,8.2-56.4,8.2-56.3
						C8.1-56.3,8.1-56.3,8.2-56.3"/>
					<path fill="#FFFFFF" d="M0.5-56.3c0,0.1,0,0.1,0,0.2c-0.1,0.1-0.1,0.1-0.2,0.1c-0.1,0.1-0.1,0.3-0.1,0.4c-0.2,0.1,0,0.2,0,0.3
						c0,0,0,0.1,0,0.2c0,0.1,0,0.3,0.1,0.4c0.1,0.2,0.3,0.4,0.4,0.5c0.2,0.1,0.4,0.6,0.6,0.6c0.2,0,0.4-0.1,0.5-0.1
						c0.2,0,0.4,0,0.6-0.1c0.2-0.1,0.1-0.3,0.3-0.5c0.1-0.1,0.3,0,0.4-0.1c0.2-0.1,0.3-0.3,0.4-0.5c0-0.1,0-0.1,0-0.2
						c0-0.1,0.1-0.2,0.1-0.3c0-0.1-0.1-0.1-0.1-0.2c0-0.1,0-0.2,0-0.3c0-0.2,0-0.4-0.1-0.5c-0.4-0.7-1.2-0.9-2-0.8
						c-0.2,0-0.3,0.1-0.4,0.2c-0.2,0.1-0.1,0.2-0.3,0.2c-0.1,0-0.2,0.1-0.2,0.2C0.5-56.4,0.5-56.4,0.5-56.3
						C0.5-56.3,0.5-56.3,0.5-56.3"/>
				</g>
				<g>
					<path fill="#FFFFFF" d="M69.4-48.7c0,0.1,0,0.1,0,0.2c-0.1,0.1-0.1,0.1-0.2,0.1c-0.1,0.1-0.1,0.3-0.1,0.4c-0.2,0.1,0,0.2,0,0.3
						c0,0,0,0.1,0,0.2c0,0.1,0,0.3,0.1,0.4c0.1,0.2,0.3,0.4,0.4,0.5c0.2,0.1,0.4,0.6,0.6,0.6c0.2,0,0.4-0.1,0.5-0.1
						c0.2,0,0.4,0,0.6-0.1c0.2-0.1,0.1-0.3,0.3-0.5c0.1-0.1,0.3,0,0.4-0.1c0.2-0.1,0.3-0.3,0.4-0.5c0-0.1,0-0.1,0-0.2
						c0-0.1,0.1-0.2,0.1-0.3c0-0.1-0.1-0.1-0.1-0.2c0-0.1,0-0.2,0-0.3c0-0.2,0-0.4-0.1-0.5c-0.4-0.7-1.2-0.9-2-0.8
						c-0.2,0-0.3,0.1-0.4,0.2c-0.2,0.1-0.1,0.2-0.3,0.2c-0.1,0-0.2,0.1-0.2,0.2C69.4-48.7,69.4-48.8,69.4-48.7
						C69.4-48.7,69.4-48.7,69.4-48.7"/>
					<path fill="#FFFFFF" d="M61.8-48.7c0,0.1,0,0.1,0,0.2c-0.1,0.1-0.1,0.1-0.2,0.1c-0.1,0.1-0.1,0.3-0.1,0.4c-0.2,0.1,0,0.2,0,0.3
						c0,0,0,0.1,0,0.2c0,0.1,0,0.3,0.1,0.4c0.1,0.2,0.3,0.4,0.4,0.5c0.2,0.1,0.4,0.6,0.6,0.6c0.2,0,0.4-0.1,0.5-0.1
						c0.2,0,0.4,0,0.6-0.1c0.2-0.1,0.1-0.3,0.3-0.5c0.1-0.1,0.3,0,0.4-0.1c0.2-0.1,0.3-0.3,0.4-0.5c0-0.1,0-0.1,0-0.2
						c0-0.1,0.1-0.2,0.1-0.3c0-0.1-0.1-0.1-0.1-0.2c0-0.1,0-0.2,0-0.3c0-0.2,0-0.4-0.1-0.5c-0.4-0.7-1.2-0.9-2-0.8
						c-0.2,0-0.3,0.1-0.4,0.2c-0.2,0.1-0.1,0.2-0.3,0.2c-0.1,0-0.2,0.1-0.2,0.2C61.8-48.7,61.8-48.8,61.8-48.7
						C61.8-48.7,61.8-48.7,61.8-48.7"/>
					<path fill="#FFFFFF" d="M54.1-48.7c0,0.1,0,0.1,0,0.2c-0.1,0.1-0.1,0.1-0.2,0.1c-0.1,0.1-0.1,0.3-0.1,0.4c-0.2,0.1,0,0.2,0,0.3
						c0,0,0,0.1,0,0.2c0,0.1,0,0.3,0.1,0.4c0.1,0.2,0.3,0.4,0.4,0.5c0.2,0.1,0.4,0.6,0.6,0.6c0.2,0,0.4-0.1,0.5-0.1
						c0.2,0,0.4,0,0.6-0.1c0.2-0.1,0.1-0.3,0.3-0.5c0.1-0.1,0.3,0,0.4-0.1c0.2-0.1,0.3-0.3,0.4-0.5c0-0.1,0-0.1,0-0.2
						c0-0.1,0.1-0.2,0.1-0.3c0-0.1-0.1-0.1-0.1-0.2c0-0.1,0-0.2,0-0.3c0-0.2,0-0.4-0.1-0.5c-0.4-0.7-1.2-0.9-2-0.8
						c-0.2,0-0.3,0.1-0.4,0.2c-0.2,0.1-0.1,0.2-0.3,0.2c-0.1,0-0.2,0.1-0.2,0.2C54.1-48.7,54.1-48.8,54.1-48.7
						C54.1-48.7,54.1-48.7,54.1-48.7"/>
					<path fill="#FFFFFF" d="M46.5-48.7c0,0.1,0,0.1,0,0.2c-0.1,0.1-0.1,0.1-0.2,0.1c-0.1,0.1-0.1,0.3-0.1,0.4c-0.2,0.1,0,0.2,0,0.3
						c0,0,0,0.1,0,0.2c0,0.1,0,0.3,0.1,0.4c0.1,0.2,0.3,0.4,0.4,0.5c0.2,0.1,0.4,0.6,0.6,0.6c0.2,0,0.4-0.1,0.5-0.1
						c0.2,0,0.4,0,0.6-0.1c0.2-0.1,0.1-0.3,0.3-0.5c0.1-0.1,0.3,0,0.4-0.1c0.2-0.1,0.3-0.3,0.4-0.5c0-0.1,0-0.1,0-0.2
						c0-0.1,0.1-0.2,0.1-0.3c0-0.1-0.1-0.1-0.1-0.2c0-0.1,0-0.2,0-0.3c0-0.2,0-0.4-0.1-0.5c-0.4-0.7-1.2-0.9-2-0.8
						c-0.2,0-0.3,0.1-0.4,0.2c-0.2,0.1-0.1,0.2-0.3,0.2c-0.1,0-0.2,0.1-0.2,0.2C46.5-48.7,46.5-48.8,46.5-48.7
						C46.5-48.7,46.5-48.7,46.5-48.7"/>
					<path fill="#FFFFFF" d="M38.8-48.7c0,0.1,0,0.1,0,0.2c-0.1,0.1-0.1,0.1-0.2,0.1c-0.1,0.1-0.1,0.3-0.1,0.4c-0.2,0.1,0,0.2,0,0.3
						c0,0,0,0.1,0,0.2c0,0.1,0,0.3,0.1,0.4c0.1,0.2,0.3,0.4,0.4,0.5c0.2,0.1,0.4,0.6,0.6,0.6c0.2,0,0.4-0.1,0.5-0.1
						c0.2,0,0.4,0,0.6-0.1c0.2-0.1,0.1-0.3,0.3-0.5c0.1-0.1,0.3,0,0.4-0.1c0.2-0.1,0.3-0.3,0.4-0.5c0-0.1,0-0.1,0-0.2
						c0-0.1,0.1-0.2,0.1-0.3c0-0.1-0.1-0.1-0.1-0.2c0-0.1,0-0.2,0-0.3c0-0.2,0-0.4-0.1-0.5c-0.4-0.7-1.2-0.9-2-0.8
						c-0.2,0-0.3,0.1-0.4,0.2c-0.2,0.1-0.1,0.2-0.3,0.2c-0.1,0-0.2,0.1-0.2,0.2C38.8-48.7,38.8-48.8,38.8-48.7
						C38.8-48.7,38.8-48.7,38.8-48.7"/>
					<path fill="#FFFFFF" d="M31.1-48.7c0,0.1,0,0.1,0,0.2c-0.1,0.1-0.1,0.1-0.2,0.1c-0.1,0.1-0.1,0.3-0.1,0.4c-0.2,0.1,0,0.2,0,0.3
						c0,0,0,0.1,0,0.2c0,0.1,0,0.3,0.1,0.4c0.1,0.2,0.3,0.4,0.4,0.5c0.2,0.1,0.4,0.6,0.6,0.6c0.2,0,0.4-0.1,0.5-0.1
						c0.2,0,0.4,0,0.6-0.1c0.2-0.1,0.1-0.3,0.3-0.5c0.1-0.1,0.3,0,0.4-0.1c0.2-0.1,0.3-0.3,0.4-0.5c0-0.1,0-0.1,0-0.2
						c0-0.1,0.1-0.2,0.1-0.3c0-0.1-0.1-0.1-0.1-0.2c0-0.1,0-0.2,0-0.3c0-0.2,0-0.4-0.1-0.5c-0.4-0.7-1.2-0.9-2-0.8
						c-0.2,0-0.3,0.1-0.4,0.2c-0.2,0.1-0.1,0.2-0.3,0.2c-0.1,0-0.2,0.1-0.2,0.2C31.1-48.7,31.1-48.8,31.1-48.7
						C31.1-48.7,31.1-48.7,31.1-48.7"/>
					<path fill="#FFFFFF" d="M23.5-48.7c0,0.1,0,0.1,0,0.2c-0.1,0.1-0.1,0.1-0.2,0.1c-0.1,0.1-0.1,0.3-0.1,0.4c-0.2,0.1,0,0.2,0,0.3
						c0,0,0,0.1,0,0.2c0,0.1,0,0.3,0.1,0.4c0.1,0.2,0.3,0.4,0.4,0.5c0.2,0.1,0.4,0.6,0.6,0.6c0.2,0,0.4-0.1,0.5-0.1
						c0.2,0,0.4,0,0.6-0.1c0.2-0.1,0.1-0.3,0.3-0.5c0.1-0.1,0.3,0,0.4-0.1c0.2-0.1,0.3-0.3,0.4-0.5c0-0.1,0-0.1,0-0.2
						c0-0.1,0.1-0.2,0.1-0.3c0-0.1-0.1-0.1-0.1-0.2c0-0.1,0-0.2,0-0.3c0-0.2,0-0.4-0.1-0.5c-0.4-0.7-1.2-0.9-2-0.8
						c-0.2,0-0.3,0.1-0.4,0.2c-0.2,0.1-0.1,0.2-0.3,0.2c-0.1,0-0.2,0.1-0.2,0.2C23.5-48.7,23.5-48.8,23.5-48.7
						C23.5-48.7,23.5-48.7,23.5-48.7"/>
					<path fill="#FFFFFF" d="M15.8-48.7c0,0.1,0,0.1,0,0.2c-0.1,0.1-0.1,0.1-0.2,0.1c-0.1,0.1-0.1,0.3-0.1,0.4c-0.2,0.1,0,0.2,0,0.3
						c0,0,0,0.1,0,0.2c0,0.1,0,0.3,0.1,0.4c0.1,0.2,0.3,0.4,0.4,0.5c0.2,0.1,0.4,0.6,0.6,0.6c0.2,0,0.4-0.1,0.5-0.1
						c0.2,0,0.4,0,0.6-0.1c0.2-0.1,0.1-0.3,0.3-0.5c0.1-0.1,0.3,0,0.4-0.1c0.2-0.1,0.3-0.3,0.4-0.5c0-0.1,0-0.1,0-0.2
						c0-0.1,0.1-0.2,0.1-0.3c0-0.1-0.1-0.1-0.1-0.2c0-0.1,0-0.2,0-0.3c0-0.2,0-0.4-0.1-0.5c-0.4-0.7-1.2-0.9-2-0.8
						c-0.2,0-0.3,0.1-0.4,0.2c-0.2,0.1-0.1,0.2-0.3,0.2c-0.1,0-0.2,0.1-0.2,0.2C15.8-48.7,15.8-48.8,15.8-48.7
						C15.8-48.7,15.8-48.7,15.8-48.7"/>
					<path fill="#FFFFFF" d="M8.2-48.7c0,0.1,0,0.1,0,0.2C8.1-48.4,8-48.4,8-48.4c-0.1,0.1-0.1,0.3-0.1,0.4c-0.2,0.1,0,0.2,0,0.3
						c0,0,0,0.1,0,0.2c0,0.1,0,0.3,0.1,0.4c0.1,0.2,0.3,0.4,0.4,0.5C8.5-46.4,8.7-46,8.9-46c0.2,0,0.4-0.1,0.5-0.1
						c0.2,0,0.4,0,0.6-0.1c0.2-0.1,0.1-0.3,0.3-0.5c0.1-0.1,0.3,0,0.4-0.1c0.2-0.1,0.3-0.3,0.4-0.5c0-0.1,0-0.1,0-0.2
						c0-0.1,0.1-0.2,0.1-0.3c0-0.1-0.1-0.1-0.1-0.2c0-0.1,0-0.2,0-0.3c0-0.2,0-0.4-0.1-0.5c-0.4-0.7-1.2-0.9-2-0.8
						c-0.2,0-0.3,0.1-0.4,0.2c-0.2,0.1-0.1,0.2-0.3,0.2c-0.1,0-0.2,0.1-0.2,0.2C8.2-48.7,8.2-48.8,8.2-48.7
						C8.1-48.7,8.1-48.7,8.2-48.7"/>
					<path fill="#FFFFFF" d="M0.5-48.7c0,0.1,0,0.1,0,0.2c-0.1,0.1-0.1,0.1-0.2,0.1c-0.1,0.1-0.1,0.3-0.1,0.4c-0.2,0.1,0,0.2,0,0.3
						c0,0,0,0.1,0,0.2c0,0.1,0,0.3,0.1,0.4c0.1,0.2,0.3,0.4,0.4,0.5C0.9-46.4,1-46,1.3-46c0.2,0,0.4-0.1,0.5-0.1
						c0.2,0,0.4,0,0.6-0.1c0.2-0.1,0.1-0.3,0.3-0.5c0.1-0.1,0.3,0,0.4-0.1c0.2-0.1,0.3-0.3,0.4-0.5c0-0.1,0-0.1,0-0.2
						c0-0.1,0.1-0.2,0.1-0.3c0-0.1-0.1-0.1-0.1-0.2c0-0.1,0-0.2,0-0.3c0-0.2,0-0.4-0.1-0.5c-0.4-0.7-1.2-0.9-2-0.8
						c-0.2,0-0.3,0.1-0.4,0.2c-0.2,0.1-0.1,0.2-0.3,0.2c-0.1,0-0.2,0.1-0.2,0.2C0.5-48.7,0.5-48.8,0.5-48.7
						C0.5-48.7,0.5-48.7,0.5-48.7"/>
				</g>
				<g>
					<path fill="#FFFFFF" d="M69.4-41c0,0.1,0,0.1,0,0.2c-0.1,0.1-0.1,0.1-0.2,0.1c-0.1,0.1-0.1,0.3-0.1,0.4c-0.2,0.1,0,0.2,0,0.3
						c0,0,0,0.1,0,0.2c0,0.1,0,0.3,0.1,0.4c0.1,0.2,0.3,0.4,0.4,0.5c0.2,0.1,0.4,0.6,0.6,0.6c0.2,0,0.4-0.1,0.5-0.1
						c0.2,0,0.4,0,0.6-0.1c0.2-0.1,0.1-0.3,0.3-0.5c0.1-0.1,0.3,0,0.4-0.1c0.2-0.1,0.3-0.3,0.4-0.5c0-0.1,0-0.1,0-0.2
						c0-0.1,0.1-0.2,0.1-0.3c0-0.1-0.1-0.1-0.1-0.2c0-0.1,0-0.2,0-0.3c0-0.2,0-0.4-0.1-0.5c-0.4-0.7-1.2-0.9-2-0.8
						c-0.2,0-0.3,0.1-0.4,0.2c-0.2,0.1-0.1,0.2-0.3,0.2c-0.1,0-0.2,0.1-0.2,0.2C69.4-41.1,69.4-41.1,69.4-41
						C69.4-41,69.4-41,69.4-41"/>
					<path fill="#FFFFFF" d="M61.8-41c0,0.1,0,0.1,0,0.2c-0.1,0.1-0.1,0.1-0.2,0.1c-0.1,0.1-0.1,0.3-0.1,0.4c-0.2,0.1,0,0.2,0,0.3
						c0,0,0,0.1,0,0.2c0,0.1,0,0.3,0.1,0.4c0.1,0.2,0.3,0.4,0.4,0.5c0.2,0.1,0.4,0.6,0.6,0.6c0.2,0,0.4-0.1,0.5-0.1
						c0.2,0,0.4,0,0.6-0.1c0.2-0.1,0.1-0.3,0.3-0.5c0.1-0.1,0.3,0,0.4-0.1c0.2-0.1,0.3-0.3,0.4-0.5c0-0.1,0-0.1,0-0.2
						c0-0.1,0.1-0.2,0.1-0.3c0-0.1-0.1-0.1-0.1-0.2c0-0.1,0-0.2,0-0.3c0-0.2,0-0.4-0.1-0.5c-0.4-0.7-1.2-0.9-2-0.8
						c-0.2,0-0.3,0.1-0.4,0.2c-0.2,0.1-0.1,0.2-0.3,0.2c-0.1,0-0.2,0.1-0.2,0.2C61.8-41.1,61.8-41.1,61.8-41
						C61.8-41,61.8-41,61.8-41"/>
					<path fill="#FFFFFF" d="M54.1-41c0,0.1,0,0.1,0,0.2c-0.1,0.1-0.1,0.1-0.2,0.1c-0.1,0.1-0.1,0.3-0.1,0.4c-0.2,0.1,0,0.2,0,0.3
						c0,0,0,0.1,0,0.2c0,0.1,0,0.3,0.1,0.4c0.1,0.2,0.3,0.4,0.4,0.5c0.2,0.1,0.4,0.6,0.6,0.6c0.2,0,0.4-0.1,0.5-0.1
						c0.2,0,0.4,0,0.6-0.1c0.2-0.1,0.1-0.3,0.3-0.5c0.1-0.1,0.3,0,0.4-0.1c0.2-0.1,0.3-0.3,0.4-0.5c0-0.1,0-0.1,0-0.2
						c0-0.1,0.1-0.2,0.1-0.3c0-0.1-0.1-0.1-0.1-0.2c0-0.1,0-0.2,0-0.3c0-0.2,0-0.4-0.1-0.5c-0.4-0.7-1.2-0.9-2-0.8
						c-0.2,0-0.3,0.1-0.4,0.2c-0.2,0.1-0.1,0.2-0.3,0.2c-0.1,0-0.2,0.1-0.2,0.2C54.1-41.1,54.1-41.1,54.1-41
						C54.1-41,54.1-41,54.1-41"/>
					<path fill="#FFFFFF" d="M46.5-41c0,0.1,0,0.1,0,0.2c-0.1,0.1-0.1,0.1-0.2,0.1c-0.1,0.1-0.1,0.3-0.1,0.4c-0.2,0.1,0,0.2,0,0.3
						c0,0,0,0.1,0,0.2c0,0.1,0,0.3,0.1,0.4c0.1,0.2,0.3,0.4,0.4,0.5c0.2,0.1,0.4,0.6,0.6,0.6c0.2,0,0.4-0.1,0.5-0.1
						c0.2,0,0.4,0,0.6-0.1c0.2-0.1,0.1-0.3,0.3-0.5c0.1-0.1,0.3,0,0.4-0.1c0.2-0.1,0.3-0.3,0.4-0.5c0-0.1,0-0.1,0-0.2
						c0-0.1,0.1-0.2,0.1-0.3c0-0.1-0.1-0.1-0.1-0.2c0-0.1,0-0.2,0-0.3c0-0.2,0-0.4-0.1-0.5c-0.4-0.7-1.2-0.9-2-0.8
						c-0.2,0-0.3,0.1-0.4,0.2c-0.2,0.1-0.1,0.2-0.3,0.2c-0.1,0-0.2,0.1-0.2,0.2C46.5-41.1,46.5-41.1,46.5-41
						C46.5-41,46.5-41,46.5-41"/>
					<path fill="#FFFFFF" d="M38.8-41c0,0.1,0,0.1,0,0.2c-0.1,0.1-0.1,0.1-0.2,0.1c-0.1,0.1-0.1,0.3-0.1,0.4c-0.2,0.1,0,0.2,0,0.3
						c0,0,0,0.1,0,0.2c0,0.1,0,0.3,0.1,0.4c0.1,0.2,0.3,0.4,0.4,0.5c0.2,0.1,0.4,0.6,0.6,0.6c0.2,0,0.4-0.1,0.5-0.1
						c0.2,0,0.4,0,0.6-0.1c0.2-0.1,0.1-0.3,0.3-0.5c0.1-0.1,0.3,0,0.4-0.1c0.2-0.1,0.3-0.3,0.4-0.5c0-0.1,0-0.1,0-0.2
						c0-0.1,0.1-0.2,0.1-0.3c0-0.1-0.1-0.1-0.1-0.2c0-0.1,0-0.2,0-0.3c0-0.2,0-0.4-0.1-0.5c-0.4-0.7-1.2-0.9-2-0.8
						c-0.2,0-0.3,0.1-0.4,0.2c-0.2,0.1-0.1,0.2-0.3,0.2c-0.1,0-0.2,0.1-0.2,0.2C38.8-41.1,38.8-41.1,38.8-41
						C38.8-41,38.8-41,38.8-41"/>
					<path fill="#FFFFFF" d="M31.1-41c0,0.1,0,0.1,0,0.2c-0.1,0.1-0.1,0.1-0.2,0.1c-0.1,0.1-0.1,0.3-0.1,0.4c-0.2,0.1,0,0.2,0,0.3
						c0,0,0,0.1,0,0.2c0,0.1,0,0.3,0.1,0.4c0.1,0.2,0.3,0.4,0.4,0.5c0.2,0.1,0.4,0.6,0.6,0.6c0.2,0,0.4-0.1,0.5-0.1
						c0.2,0,0.4,0,0.6-0.1c0.2-0.1,0.1-0.3,0.3-0.5c0.1-0.1,0.3,0,0.4-0.1c0.2-0.1,0.3-0.3,0.4-0.5c0-0.1,0-0.1,0-0.2
						c0-0.1,0.1-0.2,0.1-0.3c0-0.1-0.1-0.1-0.1-0.2c0-0.1,0-0.2,0-0.3c0-0.2,0-0.4-0.1-0.5c-0.4-0.7-1.2-0.9-2-0.8
						c-0.2,0-0.3,0.1-0.4,0.2c-0.2,0.1-0.1,0.2-0.3,0.2c-0.1,0-0.2,0.1-0.2,0.2C31.1-41.1,31.1-41.1,31.1-41
						C31.1-41,31.1-41,31.1-41"/>
					<path fill="#FFFFFF" d="M23.5-41c0,0.1,0,0.1,0,0.2c-0.1,0.1-0.1,0.1-0.2,0.1c-0.1,0.1-0.1,0.3-0.1,0.4c-0.2,0.1,0,0.2,0,0.3
						c0,0,0,0.1,0,0.2c0,0.1,0,0.3,0.1,0.4c0.1,0.2,0.3,0.4,0.4,0.5c0.2,0.1,0.4,0.6,0.6,0.6c0.2,0,0.4-0.1,0.5-0.1
						c0.2,0,0.4,0,0.6-0.1c0.2-0.1,0.1-0.3,0.3-0.5c0.1-0.1,0.3,0,0.4-0.1c0.2-0.1,0.3-0.3,0.4-0.5c0-0.1,0-0.1,0-0.2
						c0-0.1,0.1-0.2,0.1-0.3c0-0.1-0.1-0.1-0.1-0.2c0-0.1,0-0.2,0-0.3c0-0.2,0-0.4-0.1-0.5c-0.4-0.7-1.2-0.9-2-0.8
						c-0.2,0-0.3,0.1-0.4,0.2c-0.2,0.1-0.1,0.2-0.3,0.2c-0.1,0-0.2,0.1-0.2,0.2C23.5-41.1,23.5-41.1,23.5-41
						C23.5-41,23.5-41,23.5-41"/>
					<path fill="#FFFFFF" d="M15.8-41c0,0.1,0,0.1,0,0.2c-0.1,0.1-0.1,0.1-0.2,0.1c-0.1,0.1-0.1,0.3-0.1,0.4c-0.2,0.1,0,0.2,0,0.3
						c0,0,0,0.1,0,0.2c0,0.1,0,0.3,0.1,0.4c0.1,0.2,0.3,0.4,0.4,0.5c0.2,0.1,0.4,0.6,0.6,0.6c0.2,0,0.4-0.1,0.5-0.1
						c0.2,0,0.4,0,0.6-0.1c0.2-0.1,0.1-0.3,0.3-0.5c0.1-0.1,0.3,0,0.4-0.1c0.2-0.1,0.3-0.3,0.4-0.5c0-0.1,0-0.1,0-0.2
						c0-0.1,0.1-0.2,0.1-0.3c0-0.1-0.1-0.1-0.1-0.2c0-0.1,0-0.2,0-0.3c0-0.2,0-0.4-0.1-0.5c-0.4-0.7-1.2-0.9-2-0.8
						c-0.2,0-0.3,0.1-0.4,0.2c-0.2,0.1-0.1,0.2-0.3,0.2c-0.1,0-0.2,0.1-0.2,0.2C15.8-41.1,15.8-41.1,15.8-41
						C15.8-41,15.8-41,15.8-41"/>
					<path fill="#FFFFFF" d="M8.2-41c0,0.1,0,0.1,0,0.2C8.1-40.8,8-40.8,8-40.7c-0.1,0.1-0.1,0.3-0.1,0.4c-0.2,0.1,0,0.2,0,0.3
						c0,0,0,0.1,0,0.2c0,0.1,0,0.3,0.1,0.4c0.1,0.2,0.3,0.4,0.4,0.5c0.2,0.1,0.4,0.6,0.6,0.6c0.2,0,0.4-0.1,0.5-0.1
						c0.2,0,0.4,0,0.6-0.1c0.2-0.1,0.1-0.3,0.3-0.5c0.1-0.1,0.3,0,0.4-0.1c0.2-0.1,0.3-0.3,0.4-0.5c0-0.1,0-0.1,0-0.2
						c0-0.1,0.1-0.2,0.1-0.3c0-0.1-0.1-0.1-0.1-0.2c0-0.1,0-0.2,0-0.3c0-0.2,0-0.4-0.1-0.5c-0.4-0.7-1.2-0.9-2-0.8
						c-0.2,0-0.3,0.1-0.4,0.2c-0.2,0.1-0.1,0.2-0.3,0.2c-0.1,0-0.2,0.1-0.2,0.2C8.2-41.1,8.2-41.1,8.2-41C8.1-41,8.1-41,8.2-41"/>
					<path fill="#FFFFFF" d="M0.5-41c0,0.1,0,0.1,0,0.2c-0.1,0.1-0.1,0.1-0.2,0.1c-0.1,0.1-0.1,0.3-0.1,0.4c-0.2,0.1,0,0.2,0,0.3
						c0,0,0,0.1,0,0.2c0,0.1,0,0.3,0.1,0.4c0.1,0.2,0.3,0.4,0.4,0.5c0.2,0.1,0.4,0.6,0.6,0.6c0.2,0,0.4-0.1,0.5-0.1
						c0.2,0,0.4,0,0.6-0.1c0.2-0.1,0.1-0.3,0.3-0.5C2.8-39,3-39,3.1-39c0.2-0.1,0.3-0.3,0.4-0.5c0-0.1,0-0.1,0-0.2
						c0-0.1,0.1-0.2,0.1-0.3c0-0.1-0.1-0.1-0.1-0.2c0-0.1,0-0.2,0-0.3c0-0.2,0-0.4-0.1-0.5c-0.4-0.7-1.2-0.9-2-0.8
						c-0.2,0-0.3,0.1-0.4,0.2c-0.2,0.1-0.1,0.2-0.3,0.2c-0.1,0-0.2,0.1-0.2,0.2C0.5-41.1,0.5-41.1,0.5-41C0.5-41,0.5-41,0.5-41"/>
				</g>
				<g>
					<path fill="#FFFFFF" d="M69.4-33.4c0,0.1,0,0.1,0,0.2c-0.1,0.1-0.1,0.1-0.2,0.1c-0.1,0.1-0.1,0.3-0.1,0.4c-0.2,0.1,0,0.2,0,0.3
						c0,0,0,0.1,0,0.2c0,0.1,0,0.3,0.1,0.4c0.1,0.2,0.3,0.4,0.4,0.5c0.2,0.1,0.4,0.6,0.6,0.6c0.2,0,0.4-0.1,0.5-0.1
						c0.2,0,0.4,0,0.6-0.1c0.2-0.1,0.1-0.3,0.3-0.5c0.1-0.1,0.3,0,0.4-0.1c0.2-0.1,0.3-0.3,0.4-0.5c0-0.1,0-0.1,0-0.2
						c0-0.1,0.1-0.2,0.1-0.3c0-0.1-0.1-0.1-0.1-0.2c0-0.1,0-0.2,0-0.3c0-0.2,0-0.4-0.1-0.5c-0.4-0.7-1.2-0.9-2-0.8
						c-0.2,0-0.3,0.1-0.4,0.2c-0.2,0.1-0.1,0.2-0.3,0.2c-0.1,0-0.2,0.1-0.2,0.2C69.4-33.4,69.4-33.5,69.4-33.4
						C69.4-33.4,69.4-33.4,69.4-33.4"/>
					<path fill="#FFFFFF" d="M61.8-33.4c0,0.1,0,0.1,0,0.2c-0.1,0.1-0.1,0.1-0.2,0.1c-0.1,0.1-0.1,0.3-0.1,0.4c-0.2,0.1,0,0.2,0,0.3
						c0,0,0,0.1,0,0.2c0,0.1,0,0.3,0.1,0.4c0.1,0.2,0.3,0.4,0.4,0.5c0.2,0.1,0.4,0.6,0.6,0.6c0.2,0,0.4-0.1,0.5-0.1
						c0.2,0,0.4,0,0.6-0.1c0.2-0.1,0.1-0.3,0.3-0.5c0.1-0.1,0.3,0,0.4-0.1c0.2-0.1,0.3-0.3,0.4-0.5c0-0.1,0-0.1,0-0.2
						c0-0.1,0.1-0.2,0.1-0.3c0-0.1-0.1-0.1-0.1-0.2c0-0.1,0-0.2,0-0.3c0-0.2,0-0.4-0.1-0.5c-0.4-0.7-1.2-0.9-2-0.8
						c-0.2,0-0.3,0.1-0.4,0.2c-0.2,0.1-0.1,0.2-0.3,0.2c-0.1,0-0.2,0.1-0.2,0.2C61.8-33.4,61.8-33.5,61.8-33.4
						C61.8-33.4,61.8-33.4,61.8-33.4"/>
					<path fill="#FFFFFF" d="M54.1-33.4c0,0.1,0,0.1,0,0.2c-0.1,0.1-0.1,0.1-0.2,0.1c-0.1,0.1-0.1,0.3-0.1,0.4c-0.2,0.1,0,0.2,0,0.3
						c0,0,0,0.1,0,0.2c0,0.1,0,0.3,0.1,0.4c0.1,0.2,0.3,0.4,0.4,0.5c0.2,0.1,0.4,0.6,0.6,0.6c0.2,0,0.4-0.1,0.5-0.1
						c0.2,0,0.4,0,0.6-0.1c0.2-0.1,0.1-0.3,0.3-0.5c0.1-0.1,0.3,0,0.4-0.1c0.2-0.1,0.3-0.3,0.4-0.5c0-0.1,0-0.1,0-0.2
						c0-0.1,0.1-0.2,0.1-0.3c0-0.1-0.1-0.1-0.1-0.2c0-0.1,0-0.2,0-0.3c0-0.2,0-0.4-0.1-0.5c-0.4-0.7-1.2-0.9-2-0.8
						c-0.2,0-0.3,0.1-0.4,0.2c-0.2,0.1-0.1,0.2-0.3,0.2c-0.1,0-0.2,0.1-0.2,0.2C54.1-33.4,54.1-33.5,54.1-33.4
						C54.1-33.4,54.1-33.4,54.1-33.4"/>
					<path fill="#FFFFFF" d="M46.5-33.4c0,0.1,0,0.1,0,0.2c-0.1,0.1-0.1,0.1-0.2,0.1c-0.1,0.1-0.1,0.3-0.1,0.4c-0.2,0.1,0,0.2,0,0.3
						c0,0,0,0.1,0,0.2c0,0.1,0,0.3,0.1,0.4c0.1,0.2,0.3,0.4,0.4,0.5c0.2,0.1,0.4,0.6,0.6,0.6c0.2,0,0.4-0.1,0.5-0.1
						c0.2,0,0.4,0,0.6-0.1c0.2-0.1,0.1-0.3,0.3-0.5c0.1-0.1,0.3,0,0.4-0.1c0.2-0.1,0.3-0.3,0.4-0.5c0-0.1,0-0.1,0-0.2
						c0-0.1,0.1-0.2,0.1-0.3c0-0.1-0.1-0.1-0.1-0.2c0-0.1,0-0.2,0-0.3c0-0.2,0-0.4-0.1-0.5c-0.4-0.7-1.2-0.9-2-0.8
						c-0.2,0-0.3,0.1-0.4,0.2c-0.2,0.1-0.1,0.2-0.3,0.2c-0.1,0-0.2,0.1-0.2,0.2C46.5-33.4,46.5-33.5,46.5-33.4
						C46.5-33.4,46.5-33.4,46.5-33.4"/>
					<path fill="#FFFFFF" d="M38.8-33.4c0,0.1,0,0.1,0,0.2c-0.1,0.1-0.1,0.1-0.2,0.1c-0.1,0.1-0.1,0.3-0.1,0.4c-0.2,0.1,0,0.2,0,0.3
						c0,0,0,0.1,0,0.2c0,0.1,0,0.3,0.1,0.4c0.1,0.2,0.3,0.4,0.4,0.5c0.2,0.1,0.4,0.6,0.6,0.6c0.2,0,0.4-0.1,0.5-0.1
						c0.2,0,0.4,0,0.6-0.1c0.2-0.1,0.1-0.3,0.3-0.5c0.1-0.1,0.3,0,0.4-0.1c0.2-0.1,0.3-0.3,0.4-0.5c0-0.1,0-0.1,0-0.2
						c0-0.1,0.1-0.2,0.1-0.3c0-0.1-0.1-0.1-0.1-0.2c0-0.1,0-0.2,0-0.3c0-0.2,0-0.4-0.1-0.5c-0.4-0.7-1.2-0.9-2-0.8
						c-0.2,0-0.3,0.1-0.4,0.2c-0.2,0.1-0.1,0.2-0.3,0.2c-0.1,0-0.2,0.1-0.2,0.2C38.8-33.4,38.8-33.5,38.8-33.4
						C38.8-33.4,38.8-33.4,38.8-33.4"/>
					<path fill="#FFFFFF" d="M31.1-33.4c0,0.1,0,0.1,0,0.2c-0.1,0.1-0.1,0.1-0.2,0.1c-0.1,0.1-0.1,0.3-0.1,0.4c-0.2,0.1,0,0.2,0,0.3
						c0,0,0,0.1,0,0.2c0,0.1,0,0.3,0.1,0.4c0.1,0.2,0.3,0.4,0.4,0.5c0.2,0.1,0.4,0.6,0.6,0.6c0.2,0,0.4-0.1,0.5-0.1
						c0.2,0,0.4,0,0.6-0.1c0.2-0.1,0.1-0.3,0.3-0.5c0.1-0.1,0.3,0,0.4-0.1c0.2-0.1,0.3-0.3,0.4-0.5c0-0.1,0-0.1,0-0.2
						c0-0.1,0.1-0.2,0.1-0.3c0-0.1-0.1-0.1-0.1-0.2c0-0.1,0-0.2,0-0.3c0-0.2,0-0.4-0.1-0.5c-0.4-0.7-1.2-0.9-2-0.8
						c-0.2,0-0.3,0.1-0.4,0.2c-0.2,0.1-0.1,0.2-0.3,0.2c-0.1,0-0.2,0.1-0.2,0.2C31.1-33.4,31.1-33.5,31.1-33.4
						C31.1-33.4,31.1-33.4,31.1-33.4"/>
					<path fill="#FFFFFF" d="M23.5-33.4c0,0.1,0,0.1,0,0.2c-0.1,0.1-0.1,0.1-0.2,0.1c-0.1,0.1-0.1,0.3-0.1,0.4c-0.2,0.1,0,0.2,0,0.3
						c0,0,0,0.1,0,0.2c0,0.1,0,0.3,0.1,0.4c0.1,0.2,0.3,0.4,0.4,0.5c0.2,0.1,0.4,0.6,0.6,0.6c0.2,0,0.4-0.1,0.5-0.1
						c0.2,0,0.4,0,0.6-0.1c0.2-0.1,0.1-0.3,0.3-0.5c0.1-0.1,0.3,0,0.4-0.1c0.2-0.1,0.3-0.3,0.4-0.5c0-0.1,0-0.1,0-0.2
						c0-0.1,0.1-0.2,0.1-0.3c0-0.1-0.1-0.1-0.1-0.2c0-0.1,0-0.2,0-0.3c0-0.2,0-0.4-0.1-0.5c-0.4-0.7-1.2-0.9-2-0.8
						c-0.2,0-0.3,0.1-0.4,0.2c-0.2,0.1-0.1,0.2-0.3,0.2c-0.1,0-0.2,0.1-0.2,0.2C23.5-33.4,23.5-33.5,23.5-33.4
						C23.5-33.4,23.5-33.4,23.5-33.4"/>
					<path fill="#FFFFFF" d="M15.8-33.4c0,0.1,0,0.1,0,0.2c-0.1,0.1-0.1,0.1-0.2,0.1c-0.1,0.1-0.1,0.3-0.1,0.4c-0.2,0.1,0,0.2,0,0.3
						c0,0,0,0.1,0,0.2c0,0.1,0,0.3,0.1,0.4c0.1,0.2,0.3,0.4,0.4,0.5c0.2,0.1,0.4,0.6,0.6,0.6c0.2,0,0.4-0.1,0.5-0.1
						c0.2,0,0.4,0,0.6-0.1c0.2-0.1,0.1-0.3,0.3-0.5c0.1-0.1,0.3,0,0.4-0.1c0.2-0.1,0.3-0.3,0.4-0.5c0-0.1,0-0.1,0-0.2
						c0-0.1,0.1-0.2,0.1-0.3c0-0.1-0.1-0.1-0.1-0.2c0-0.1,0-0.2,0-0.3c0-0.2,0-0.4-0.1-0.5c-0.4-0.7-1.2-0.9-2-0.8
						c-0.2,0-0.3,0.1-0.4,0.2c-0.2,0.1-0.1,0.2-0.3,0.2c-0.1,0-0.2,0.1-0.2,0.2C15.8-33.4,15.8-33.5,15.8-33.4
						C15.8-33.4,15.8-33.4,15.8-33.4"/>
					<path fill="#FFFFFF" d="M8.2-33.4c0,0.1,0,0.1,0,0.2C8.1-33.1,8-33.1,8-33.1c-0.1,0.1-0.1,0.3-0.1,0.4c-0.2,0.1,0,0.2,0,0.3
						c0,0,0,0.1,0,0.2c0,0.1,0,0.3,0.1,0.4c0.1,0.2,0.3,0.4,0.4,0.5c0.2,0.1,0.4,0.6,0.6,0.6c0.2,0,0.4-0.1,0.5-0.1
						c0.2,0,0.4,0,0.6-0.1c0.2-0.1,0.1-0.3,0.3-0.5c0.1-0.1,0.3,0,0.4-0.1c0.2-0.1,0.3-0.3,0.4-0.5c0-0.1,0-0.1,0-0.2
						c0-0.1,0.1-0.2,0.1-0.3c0-0.1-0.1-0.1-0.1-0.2c0-0.1,0-0.2,0-0.3c0-0.2,0-0.4-0.1-0.5c-0.4-0.7-1.2-0.9-2-0.8
						c-0.2,0-0.3,0.1-0.4,0.2c-0.2,0.1-0.1,0.2-0.3,0.2c-0.1,0-0.2,0.1-0.2,0.2C8.2-33.4,8.2-33.5,8.2-33.4
						C8.1-33.4,8.1-33.4,8.2-33.4"/>
					<path fill="#FFFFFF" d="M0.5-33.4c0,0.1,0,0.1,0,0.2c-0.1,0.1-0.1,0.1-0.2,0.1c-0.1,0.1-0.1,0.3-0.1,0.4c-0.2,0.1,0,0.2,0,0.3
						c0,0,0,0.1,0,0.2c0,0.1,0,0.3,0.1,0.4c0.1,0.2,0.3,0.4,0.4,0.5c0.2,0.1,0.4,0.6,0.6,0.6c0.2,0,0.4-0.1,0.5-0.1
						c0.2,0,0.4,0,0.6-0.1c0.2-0.1,0.1-0.3,0.3-0.5c0.1-0.1,0.3,0,0.4-0.1c0.2-0.1,0.3-0.3,0.4-0.5c0-0.1,0-0.1,0-0.2
						c0-0.1,0.1-0.2,0.1-0.3c0-0.1-0.1-0.1-0.1-0.2c0-0.1,0-0.2,0-0.3c0-0.2,0-0.4-0.1-0.5c-0.4-0.7-1.2-0.9-2-0.8
						c-0.2,0-0.3,0.1-0.4,0.2c-0.2,0.1-0.1,0.2-0.3,0.2c-0.1,0-0.2,0.1-0.2,0.2C0.5-33.4,0.5-33.5,0.5-33.4
						C0.5-33.4,0.5-33.4,0.5-33.4"/>
				</g>
				<g>
					<path fill="#FFFFFF" d="M69.4-25.7c0,0.1,0,0.1,0,0.2c-0.1,0.1-0.1,0.1-0.2,0.1c-0.1,0.1-0.1,0.3-0.1,0.4c-0.2,0.1,0,0.2,0,0.3
						c0,0,0,0.1,0,0.2c0,0.1,0,0.3,0.1,0.4c0.1,0.2,0.3,0.4,0.4,0.5c0.2,0.1,0.4,0.6,0.6,0.6c0.2,0,0.4-0.1,0.5-0.1
						c0.2,0,0.4,0,0.6-0.1c0.2-0.1,0.1-0.3,0.3-0.5c0.1-0.1,0.3,0,0.4-0.1c0.2-0.1,0.3-0.3,0.4-0.5c0-0.1,0-0.1,0-0.2
						c0-0.1,0.1-0.2,0.1-0.3c0-0.1-0.1-0.1-0.1-0.2c0-0.1,0-0.2,0-0.3c0-0.2,0-0.4-0.1-0.5c-0.4-0.7-1.2-0.9-2-0.8
						c-0.2,0-0.3,0.1-0.4,0.2c-0.2,0.1-0.1,0.2-0.3,0.2c-0.1,0-0.2,0.1-0.2,0.2C69.4-25.8,69.4-25.8,69.4-25.7
						C69.4-25.7,69.4-25.7,69.4-25.7"/>
					<path fill="#FFFFFF" d="M61.8-25.7c0,0.1,0,0.1,0,0.2c-0.1,0.1-0.1,0.1-0.2,0.1c-0.1,0.1-0.1,0.3-0.1,0.4c-0.2,0.1,0,0.2,0,0.3
						c0,0,0,0.1,0,0.2c0,0.1,0,0.3,0.1,0.4c0.1,0.2,0.3,0.4,0.4,0.5c0.2,0.1,0.4,0.6,0.6,0.6c0.2,0,0.4-0.1,0.5-0.1
						c0.2,0,0.4,0,0.6-0.1c0.2-0.1,0.1-0.3,0.3-0.5c0.1-0.1,0.3,0,0.4-0.1c0.2-0.1,0.3-0.3,0.4-0.5c0-0.1,0-0.1,0-0.2
						c0-0.1,0.1-0.2,0.1-0.3c0-0.1-0.1-0.1-0.1-0.2c0-0.1,0-0.2,0-0.3c0-0.2,0-0.4-0.1-0.5c-0.4-0.7-1.2-0.9-2-0.8
						c-0.2,0-0.3,0.1-0.4,0.2c-0.2,0.1-0.1,0.2-0.3,0.2c-0.1,0-0.2,0.1-0.2,0.2C61.8-25.8,61.8-25.8,61.8-25.7
						C61.8-25.7,61.8-25.7,61.8-25.7"/>
					<path fill="#FFFFFF" d="M54.1-25.7c0,0.1,0,0.1,0,0.2c-0.1,0.1-0.1,0.1-0.2,0.1c-0.1,0.1-0.1,0.3-0.1,0.4c-0.2,0.1,0,0.2,0,0.3
						c0,0,0,0.1,0,0.2c0,0.1,0,0.3,0.1,0.4c0.1,0.2,0.3,0.4,0.4,0.5c0.2,0.1,0.4,0.6,0.6,0.6c0.2,0,0.4-0.1,0.5-0.1
						c0.2,0,0.4,0,0.6-0.1c0.2-0.1,0.1-0.3,0.3-0.5c0.1-0.1,0.3,0,0.4-0.1c0.2-0.1,0.3-0.3,0.4-0.5c0-0.1,0-0.1,0-0.2
						c0-0.1,0.1-0.2,0.1-0.3c0-0.1-0.1-0.1-0.1-0.2c0-0.1,0-0.2,0-0.3c0-0.2,0-0.4-0.1-0.5c-0.4-0.7-1.2-0.9-2-0.8
						c-0.2,0-0.3,0.1-0.4,0.2c-0.2,0.1-0.1,0.2-0.3,0.2c-0.1,0-0.2,0.1-0.2,0.2C54.1-25.8,54.1-25.8,54.1-25.7
						C54.1-25.7,54.1-25.7,54.1-25.7"/>
					<path fill="#FFFFFF" d="M46.5-25.7c0,0.1,0,0.1,0,0.2c-0.1,0.1-0.1,0.1-0.2,0.1c-0.1,0.1-0.1,0.3-0.1,0.4c-0.2,0.1,0,0.2,0,0.3
						c0,0,0,0.1,0,0.2c0,0.1,0,0.3,0.1,0.4c0.1,0.2,0.3,0.4,0.4,0.5c0.2,0.1,0.4,0.6,0.6,0.6c0.2,0,0.4-0.1,0.5-0.1
						c0.2,0,0.4,0,0.6-0.1c0.2-0.1,0.1-0.3,0.3-0.5c0.1-0.1,0.3,0,0.4-0.1c0.2-0.1,0.3-0.3,0.4-0.5c0-0.1,0-0.1,0-0.2
						c0-0.1,0.1-0.2,0.1-0.3c0-0.1-0.1-0.1-0.1-0.2c0-0.1,0-0.2,0-0.3c0-0.2,0-0.4-0.1-0.5c-0.4-0.7-1.2-0.9-2-0.8
						c-0.2,0-0.3,0.1-0.4,0.2c-0.2,0.1-0.1,0.2-0.3,0.2c-0.1,0-0.2,0.1-0.2,0.2C46.5-25.8,46.5-25.8,46.5-25.7
						C46.5-25.7,46.5-25.7,46.5-25.7"/>
					<path fill="#FFFFFF" d="M38.8-25.7c0,0.1,0,0.1,0,0.2c-0.1,0.1-0.1,0.1-0.2,0.1c-0.1,0.1-0.1,0.3-0.1,0.4c-0.2,0.1,0,0.2,0,0.3
						c0,0,0,0.1,0,0.2c0,0.1,0,0.3,0.1,0.4c0.1,0.2,0.3,0.4,0.4,0.5c0.2,0.1,0.4,0.6,0.6,0.6c0.2,0,0.4-0.1,0.5-0.1
						c0.2,0,0.4,0,0.6-0.1c0.2-0.1,0.1-0.3,0.3-0.5c0.1-0.1,0.3,0,0.4-0.1c0.2-0.1,0.3-0.3,0.4-0.5c0-0.1,0-0.1,0-0.2
						c0-0.1,0.1-0.2,0.1-0.3c0-0.1-0.1-0.1-0.1-0.2c0-0.1,0-0.2,0-0.3c0-0.2,0-0.4-0.1-0.5c-0.4-0.7-1.2-0.9-2-0.8
						c-0.2,0-0.3,0.1-0.4,0.2c-0.2,0.1-0.1,0.2-0.3,0.2c-0.1,0-0.2,0.1-0.2,0.2C38.8-25.8,38.8-25.8,38.8-25.7
						C38.8-25.7,38.8-25.7,38.8-25.7"/>
					<path fill="#FFFFFF" d="M31.1-25.7c0,0.1,0,0.1,0,0.2c-0.1,0.1-0.1,0.1-0.2,0.1c-0.1,0.1-0.1,0.3-0.1,0.4c-0.2,0.1,0,0.2,0,0.3
						c0,0,0,0.1,0,0.2c0,0.1,0,0.3,0.1,0.4c0.1,0.2,0.3,0.4,0.4,0.5c0.2,0.1,0.4,0.6,0.6,0.6c0.2,0,0.4-0.1,0.5-0.1
						c0.2,0,0.4,0,0.6-0.1c0.2-0.1,0.1-0.3,0.3-0.5c0.1-0.1,0.3,0,0.4-0.1c0.2-0.1,0.3-0.3,0.4-0.5c0-0.1,0-0.1,0-0.2
						c0-0.1,0.1-0.2,0.1-0.3c0-0.1-0.1-0.1-0.1-0.2c0-0.1,0-0.2,0-0.3c0-0.2,0-0.4-0.1-0.5c-0.4-0.7-1.2-0.9-2-0.8
						c-0.2,0-0.3,0.1-0.4,0.2c-0.2,0.1-0.1,0.2-0.3,0.2c-0.1,0-0.2,0.1-0.2,0.2C31.1-25.8,31.1-25.8,31.1-25.7
						C31.1-25.7,31.1-25.7,31.1-25.7"/>
					<path fill="#FFFFFF" d="M23.5-25.7c0,0.1,0,0.1,0,0.2c-0.1,0.1-0.1,0.1-0.2,0.1c-0.1,0.1-0.1,0.3-0.1,0.4c-0.2,0.1,0,0.2,0,0.3
						c0,0,0,0.1,0,0.2c0,0.1,0,0.3,0.1,0.4c0.1,0.2,0.3,0.4,0.4,0.5c0.2,0.1,0.4,0.6,0.6,0.6c0.2,0,0.4-0.1,0.5-0.1
						c0.2,0,0.4,0,0.6-0.1c0.2-0.1,0.1-0.3,0.3-0.5c0.1-0.1,0.3,0,0.4-0.1c0.2-0.1,0.3-0.3,0.4-0.5c0-0.1,0-0.1,0-0.2
						c0-0.1,0.1-0.2,0.1-0.3c0-0.1-0.1-0.1-0.1-0.2c0-0.1,0-0.2,0-0.3c0-0.2,0-0.4-0.1-0.5c-0.4-0.7-1.2-0.9-2-0.8
						c-0.2,0-0.3,0.1-0.4,0.2c-0.2,0.1-0.1,0.2-0.3,0.2c-0.1,0-0.2,0.1-0.2,0.2C23.5-25.8,23.5-25.8,23.5-25.7
						C23.5-25.7,23.5-25.7,23.5-25.7"/>
					<path fill="#FFFFFF" d="M15.8-25.7c0,0.1,0,0.1,0,0.2c-0.1,0.1-0.1,0.1-0.2,0.1c-0.1,0.1-0.1,0.3-0.1,0.4c-0.2,0.1,0,0.2,0,0.3
						c0,0,0,0.1,0,0.2c0,0.1,0,0.3,0.1,0.4c0.1,0.2,0.3,0.4,0.4,0.5c0.2,0.1,0.4,0.6,0.6,0.6c0.2,0,0.4-0.1,0.5-0.1
						c0.2,0,0.4,0,0.6-0.1c0.2-0.1,0.1-0.3,0.3-0.5c0.1-0.1,0.3,0,0.4-0.1c0.2-0.1,0.3-0.3,0.4-0.5c0-0.1,0-0.1,0-0.2
						c0-0.1,0.1-0.2,0.1-0.3c0-0.1-0.1-0.1-0.1-0.2c0-0.1,0-0.2,0-0.3c0-0.2,0-0.4-0.1-0.5c-0.4-0.7-1.2-0.9-2-0.8
						c-0.2,0-0.3,0.1-0.4,0.2c-0.2,0.1-0.1,0.2-0.3,0.2c-0.1,0-0.2,0.1-0.2,0.2C15.8-25.8,15.8-25.8,15.8-25.7
						C15.8-25.7,15.8-25.7,15.8-25.7"/>
					<path fill="#FFFFFF" d="M8.2-25.7c0,0.1,0,0.1,0,0.2C8.1-25.4,8-25.5,8-25.4c-0.1,0.1-0.1,0.3-0.1,0.4c-0.2,0.1,0,0.2,0,0.3
						c0,0,0,0.1,0,0.2c0,0.1,0,0.3,0.1,0.4C8-24,8.2-23.8,8.3-23.6c0.2,0.1,0.4,0.6,0.6,0.6c0.2,0,0.4-0.1,0.5-0.1
						c0.2,0,0.4,0,0.6-0.1c0.2-0.1,0.1-0.3,0.3-0.5c0.1-0.1,0.3,0,0.4-0.1c0.2-0.1,0.3-0.3,0.4-0.5c0-0.1,0-0.1,0-0.2
						c0-0.1,0.1-0.2,0.1-0.3c0-0.1-0.1-0.1-0.1-0.2c0-0.1,0-0.2,0-0.3c0-0.2,0-0.4-0.1-0.5c-0.4-0.7-1.2-0.9-2-0.8
						c-0.2,0-0.3,0.1-0.4,0.2c-0.2,0.1-0.1,0.2-0.3,0.2c-0.1,0-0.2,0.1-0.2,0.2C8.2-25.8,8.2-25.8,8.2-25.7
						C8.1-25.7,8.1-25.7,8.2-25.7"/>
					<path fill="#FFFFFF" d="M0.5-25.7c0,0.1,0,0.1,0,0.2c-0.1,0.1-0.1,0.1-0.2,0.1c-0.1,0.1-0.1,0.3-0.1,0.4c-0.2,0.1,0,0.2,0,0.3
						c0,0,0,0.1,0,0.2c0,0.1,0,0.3,0.1,0.4c0.1,0.2,0.3,0.4,0.4,0.5C0.9-23.5,1-23.1,1.3-23c0.2,0,0.4-0.1,0.5-0.1
						c0.2,0,0.4,0,0.6-0.1c0.2-0.1,0.1-0.3,0.3-0.5c0.1-0.1,0.3,0,0.4-0.1c0.2-0.1,0.3-0.3,0.4-0.5c0-0.1,0-0.1,0-0.2
						c0-0.1,0.1-0.2,0.1-0.3c0-0.1-0.1-0.1-0.1-0.2c0-0.1,0-0.2,0-0.3c0-0.2,0-0.4-0.1-0.5c-0.4-0.7-1.2-0.9-2-0.8
						c-0.2,0-0.3,0.1-0.4,0.2c-0.2,0.1-0.1,0.2-0.3,0.2c-0.1,0-0.2,0.1-0.2,0.2C0.5-25.8,0.5-25.8,0.5-25.7
						C0.5-25.7,0.5-25.7,0.5-25.7"/>
				</g>
				<g>
					<path fill="#FFFFFF" d="M69.4-18.1c0,0.1,0,0.1,0,0.2c-0.1,0.1-0.1,0.1-0.2,0.1c-0.1,0.1-0.1,0.3-0.1,0.4c-0.2,0.1,0,0.2,0,0.3
						c0,0,0,0.1,0,0.2c0,0.1,0,0.3,0.1,0.4c0.1,0.2,0.3,0.4,0.4,0.5c0.2,0.1,0.4,0.6,0.6,0.6c0.2,0,0.4-0.1,0.5-0.1
						c0.2,0,0.4,0,0.6-0.1c0.2-0.1,0.1-0.3,0.3-0.5c0.1-0.1,0.3,0,0.4-0.1c0.2-0.1,0.3-0.3,0.4-0.5c0-0.1,0-0.1,0-0.2
						c0-0.1,0.1-0.2,0.1-0.3c0-0.1-0.1-0.1-0.1-0.2c0-0.1,0-0.2,0-0.3c0-0.2,0-0.4-0.1-0.5c-0.4-0.7-1.2-0.9-2-0.8
						c-0.2,0-0.3,0.1-0.4,0.2c-0.2,0.1-0.1,0.2-0.3,0.2c-0.1,0-0.2,0.1-0.2,0.2C69.4-18.1,69.4-18.2,69.4-18.1
						C69.4-18,69.4-18.1,69.4-18.1"/>
					<path fill="#FFFFFF" d="M61.8-18.1c0,0.1,0,0.1,0,0.2c-0.1,0.1-0.1,0.1-0.2,0.1c-0.1,0.1-0.1,0.3-0.1,0.4c-0.2,0.1,0,0.2,0,0.3
						c0,0,0,0.1,0,0.2c0,0.1,0,0.3,0.1,0.4c0.1,0.2,0.3,0.4,0.4,0.5c0.2,0.1,0.4,0.6,0.6,0.6c0.2,0,0.4-0.1,0.5-0.1
						c0.2,0,0.4,0,0.6-0.1c0.2-0.1,0.1-0.3,0.3-0.5c0.1-0.1,0.3,0,0.4-0.1c0.2-0.1,0.3-0.3,0.4-0.5c0-0.1,0-0.1,0-0.2
						c0-0.1,0.1-0.2,0.1-0.3c0-0.1-0.1-0.1-0.1-0.2c0-0.1,0-0.2,0-0.3c0-0.2,0-0.4-0.1-0.5c-0.4-0.7-1.2-0.9-2-0.8
						c-0.2,0-0.3,0.1-0.4,0.2c-0.2,0.1-0.1,0.2-0.3,0.2c-0.1,0-0.2,0.1-0.2,0.2C61.8-18.1,61.8-18.2,61.8-18.1
						C61.8-18,61.8-18.1,61.8-18.1"/>
					<path fill="#FFFFFF" d="M54.1-18.1c0,0.1,0,0.1,0,0.2c-0.1,0.1-0.1,0.1-0.2,0.1c-0.1,0.1-0.1,0.3-0.1,0.4c-0.2,0.1,0,0.2,0,0.3
						c0,0,0,0.1,0,0.2c0,0.1,0,0.3,0.1,0.4c0.1,0.2,0.3,0.4,0.4,0.5c0.2,0.1,0.4,0.6,0.6,0.6c0.2,0,0.4-0.1,0.5-0.1
						c0.2,0,0.4,0,0.6-0.1c0.2-0.1,0.1-0.3,0.3-0.5c0.1-0.1,0.3,0,0.4-0.1c0.2-0.1,0.3-0.3,0.4-0.5c0-0.1,0-0.1,0-0.2
						c0-0.1,0.1-0.2,0.1-0.3c0-0.1-0.1-0.1-0.1-0.2c0-0.1,0-0.2,0-0.3c0-0.2,0-0.4-0.1-0.5c-0.4-0.7-1.2-0.9-2-0.8
						c-0.2,0-0.3,0.1-0.4,0.2c-0.2,0.1-0.1,0.2-0.3,0.2c-0.1,0-0.2,0.1-0.2,0.2C54.1-18.1,54.1-18.2,54.1-18.1
						C54.1-18,54.1-18.1,54.1-18.1"/>
					<path fill="#FFFFFF" d="M46.5-18.1c0,0.1,0,0.1,0,0.2c-0.1,0.1-0.1,0.1-0.2,0.1c-0.1,0.1-0.1,0.3-0.1,0.4c-0.2,0.1,0,0.2,0,0.3
						c0,0,0,0.1,0,0.2c0,0.1,0,0.3,0.1,0.4c0.1,0.2,0.3,0.4,0.4,0.5c0.2,0.1,0.4,0.6,0.6,0.6c0.2,0,0.4-0.1,0.5-0.1
						c0.2,0,0.4,0,0.6-0.1c0.2-0.1,0.1-0.3,0.3-0.5c0.1-0.1,0.3,0,0.4-0.1c0.2-0.1,0.3-0.3,0.4-0.5c0-0.1,0-0.1,0-0.2
						c0-0.1,0.1-0.2,0.1-0.3c0-0.1-0.1-0.1-0.1-0.2c0-0.1,0-0.2,0-0.3c0-0.2,0-0.4-0.1-0.5c-0.4-0.7-1.2-0.9-2-0.8
						c-0.2,0-0.3,0.1-0.4,0.2c-0.2,0.1-0.1,0.2-0.3,0.2c-0.1,0-0.2,0.1-0.2,0.2C46.5-18.1,46.5-18.2,46.5-18.1
						C46.5-18,46.5-18.1,46.5-18.1"/>
					<path fill="#FFFFFF" d="M38.8-18.1c0,0.1,0,0.1,0,0.2c-0.1,0.1-0.1,0.1-0.2,0.1c-0.1,0.1-0.1,0.3-0.1,0.4c-0.2,0.1,0,0.2,0,0.3
						c0,0,0,0.1,0,0.2c0,0.1,0,0.3,0.1,0.4c0.1,0.2,0.3,0.4,0.4,0.5c0.2,0.1,0.4,0.6,0.6,0.6c0.2,0,0.4-0.1,0.5-0.1
						c0.2,0,0.4,0,0.6-0.1c0.2-0.1,0.1-0.3,0.3-0.5c0.1-0.1,0.3,0,0.4-0.1c0.2-0.1,0.3-0.3,0.4-0.5c0-0.1,0-0.1,0-0.2
						c0-0.1,0.1-0.2,0.1-0.3c0-0.1-0.1-0.1-0.1-0.2c0-0.1,0-0.2,0-0.3c0-0.2,0-0.4-0.1-0.5c-0.4-0.7-1.2-0.9-2-0.8
						c-0.2,0-0.3,0.1-0.4,0.2c-0.2,0.1-0.1,0.2-0.3,0.2c-0.1,0-0.2,0.1-0.2,0.2C38.8-18.1,38.8-18.2,38.8-18.1
						C38.8-18,38.8-18.1,38.8-18.1"/>
					<path fill="#FFFFFF" d="M31.1-18.1c0,0.1,0,0.1,0,0.2c-0.1,0.1-0.1,0.1-0.2,0.1c-0.1,0.1-0.1,0.3-0.1,0.4c-0.2,0.1,0,0.2,0,0.3
						c0,0,0,0.1,0,0.2c0,0.1,0,0.3,0.1,0.4c0.1,0.2,0.3,0.4,0.4,0.5c0.2,0.1,0.4,0.6,0.6,0.6c0.2,0,0.4-0.1,0.5-0.1
						c0.2,0,0.4,0,0.6-0.1c0.2-0.1,0.1-0.3,0.3-0.5c0.1-0.1,0.3,0,0.4-0.1c0.2-0.1,0.3-0.3,0.4-0.5c0-0.1,0-0.1,0-0.2
						c0-0.1,0.1-0.2,0.1-0.3c0-0.1-0.1-0.1-0.1-0.2c0-0.1,0-0.2,0-0.3c0-0.2,0-0.4-0.1-0.5c-0.4-0.7-1.2-0.9-2-0.8
						c-0.2,0-0.3,0.1-0.4,0.2c-0.2,0.1-0.1,0.2-0.3,0.2c-0.1,0-0.2,0.1-0.2,0.2C31.1-18.1,31.1-18.2,31.1-18.1
						C31.1-18,31.1-18.1,31.1-18.1"/>
					<path fill="#FFFFFF" d="M23.5-18.1c0,0.1,0,0.1,0,0.2c-0.1,0.1-0.1,0.1-0.2,0.1c-0.1,0.1-0.1,0.3-0.1,0.4c-0.2,0.1,0,0.2,0,0.3
						c0,0,0,0.1,0,0.2c0,0.1,0,0.3,0.1,0.4c0.1,0.2,0.3,0.4,0.4,0.5c0.2,0.1,0.4,0.6,0.6,0.6c0.2,0,0.4-0.1,0.5-0.1
						c0.2,0,0.4,0,0.6-0.1c0.2-0.1,0.1-0.3,0.3-0.5c0.1-0.1,0.3,0,0.4-0.1c0.2-0.1,0.3-0.3,0.4-0.5c0-0.1,0-0.1,0-0.2
						c0-0.1,0.1-0.2,0.1-0.3c0-0.1-0.1-0.1-0.1-0.2c0-0.1,0-0.2,0-0.3c0-0.2,0-0.4-0.1-0.5c-0.4-0.7-1.2-0.9-2-0.8
						c-0.2,0-0.3,0.1-0.4,0.2c-0.2,0.1-0.1,0.2-0.3,0.2c-0.1,0-0.2,0.1-0.2,0.2C23.5-18.1,23.5-18.2,23.5-18.1
						C23.5-18,23.5-18.1,23.5-18.1"/>
					<path fill="#FFFFFF" d="M15.8-18.1c0,0.1,0,0.1,0,0.2c-0.1,0.1-0.1,0.1-0.2,0.1c-0.1,0.1-0.1,0.3-0.1,0.4c-0.2,0.1,0,0.2,0,0.3
						c0,0,0,0.1,0,0.2c0,0.1,0,0.3,0.1,0.4c0.1,0.2,0.3,0.4,0.4,0.5c0.2,0.1,0.4,0.6,0.6,0.6c0.2,0,0.4-0.1,0.5-0.1
						c0.2,0,0.4,0,0.6-0.1c0.2-0.1,0.1-0.3,0.3-0.5c0.1-0.1,0.3,0,0.4-0.1c0.2-0.1,0.3-0.3,0.4-0.5c0-0.1,0-0.1,0-0.2
						c0-0.1,0.1-0.2,0.1-0.3c0-0.1-0.1-0.1-0.1-0.2c0-0.1,0-0.2,0-0.3c0-0.2,0-0.4-0.1-0.5c-0.4-0.7-1.2-0.9-2-0.8
						c-0.2,0-0.3,0.1-0.4,0.2c-0.2,0.1-0.1,0.2-0.3,0.2c-0.1,0-0.2,0.1-0.2,0.2C15.8-18.1,15.8-18.2,15.8-18.1
						C15.8-18,15.8-18.1,15.8-18.1"/>
					<path fill="#FFFFFF" d="M8.2-18.1c0,0.1,0,0.1,0,0.2C8.1-17.8,8-17.8,8-17.8c-0.1,0.1-0.1,0.3-0.1,0.4c-0.2,0.1,0,0.2,0,0.3
						c0,0,0,0.1,0,0.2c0,0.1,0,0.3,0.1,0.4C8-16.3,8.2-16.1,8.3-16c0.2,0.1,0.4,0.6,0.6,0.6c0.2,0,0.4-0.1,0.5-0.1
						c0.2,0,0.4,0,0.6-0.1c0.2-0.1,0.1-0.3,0.3-0.5c0.1-0.1,0.3,0,0.4-0.1c0.2-0.1,0.3-0.3,0.4-0.5c0-0.1,0-0.1,0-0.2
						c0-0.1,0.1-0.2,0.1-0.3c0-0.1-0.1-0.1-0.1-0.2c0-0.1,0-0.2,0-0.3c0-0.2,0-0.4-0.1-0.5c-0.4-0.7-1.2-0.9-2-0.8
						c-0.2,0-0.3,0.1-0.4,0.2c-0.2,0.1-0.1,0.2-0.3,0.2c-0.1,0-0.2,0.1-0.2,0.2C8.2-18.1,8.2-18.2,8.2-18.1
						C8.1-18,8.1-18.1,8.2-18.1"/>
					<path fill="#FFFFFF" d="M0.5-18.1c0,0.1,0,0.1,0,0.2c-0.1,0.1-0.1,0.1-0.2,0.1c-0.1,0.1-0.1,0.3-0.1,0.4c-0.2,0.1,0,0.2,0,0.3
						c0,0,0,0.1,0,0.2c0,0.1,0,0.3,0.1,0.4c0.1,0.2,0.3,0.4,0.4,0.5c0.2,0.1,0.4,0.6,0.6,0.6c0.2,0,0.4-0.1,0.5-0.1
						c0.2,0,0.4,0,0.6-0.1c0.2-0.1,0.1-0.3,0.3-0.5C2.8-16.1,3-16,3.1-16c0.2-0.1,0.3-0.3,0.4-0.5c0-0.1,0-0.1,0-0.2
						c0-0.1,0.1-0.2,0.1-0.3c0-0.1-0.1-0.1-0.1-0.2c0-0.1,0-0.2,0-0.3c0-0.2,0-0.4-0.1-0.5c-0.4-0.7-1.2-0.9-2-0.8
						c-0.2,0-0.3,0.1-0.4,0.2c-0.2,0.1-0.1,0.2-0.3,0.2c-0.1,0-0.2,0.1-0.2,0.2C0.5-18.1,0.5-18.2,0.5-18.1
						C0.5-18,0.5-18.1,0.5-18.1"/>
				</g>
				<g>
					<path fill="#FFFFFF" d="M69.4-10.4c0,0.1,0,0.1,0,0.2c-0.1,0.1-0.1,0.1-0.2,0.1c-0.1,0.1-0.1,0.3-0.1,0.4c-0.2,0.1,0,0.2,0,0.3
						c0,0,0,0.1,0,0.2c0,0.1,0,0.3,0.1,0.4c0.1,0.2,0.3,0.4,0.4,0.5c0.2,0.1,0.4,0.6,0.6,0.6c0.2,0,0.4-0.1,0.5-0.1
						c0.2,0,0.4,0,0.6-0.1c0.2-0.1,0.1-0.3,0.3-0.5c0.1-0.1,0.3,0,0.4-0.1c0.2-0.1,0.3-0.3,0.4-0.5c0-0.1,0-0.1,0-0.2
						c0-0.1,0.1-0.2,0.1-0.3c0-0.1-0.1-0.1-0.1-0.2c0-0.1,0-0.2,0-0.3c0-0.2,0-0.4-0.1-0.5c-0.4-0.7-1.2-0.9-2-0.8
						c-0.2,0-0.3,0.1-0.4,0.2c-0.2,0.1-0.1,0.2-0.3,0.2c-0.1,0-0.2,0.1-0.2,0.2C69.4-10.5,69.4-10.5,69.4-10.4
						C69.4-10.4,69.4-10.4,69.4-10.4"/>
					<path fill="#FFFFFF" d="M61.8-10.4c0,0.1,0,0.1,0,0.2c-0.1,0.1-0.1,0.1-0.2,0.1c-0.1,0.1-0.1,0.3-0.1,0.4c-0.2,0.1,0,0.2,0,0.3
						c0,0,0,0.1,0,0.2c0,0.1,0,0.3,0.1,0.4c0.1,0.2,0.3,0.4,0.4,0.5c0.2,0.1,0.4,0.6,0.6,0.6c0.2,0,0.4-0.1,0.5-0.1
						c0.2,0,0.4,0,0.6-0.1C63.9-8,63.8-8.2,64-8.3c0.1-0.1,0.3,0,0.4-0.1c0.2-0.1,0.3-0.3,0.4-0.5c0-0.1,0-0.1,0-0.2
						c0-0.1,0.1-0.2,0.1-0.3c0-0.1-0.1-0.1-0.1-0.2c0-0.1,0-0.2,0-0.3c0-0.2,0-0.4-0.1-0.5c-0.4-0.7-1.2-0.9-2-0.8
						c-0.2,0-0.3,0.1-0.4,0.2c-0.2,0.1-0.1,0.2-0.3,0.2c-0.1,0-0.2,0.1-0.2,0.2C61.8-10.5,61.8-10.5,61.8-10.4
						C61.8-10.4,61.8-10.4,61.8-10.4"/>
					<path fill="#FFFFFF" d="M54.1-10.4c0,0.1,0,0.1,0,0.2c-0.1,0.1-0.1,0.1-0.2,0.1c-0.1,0.1-0.1,0.3-0.1,0.4c-0.2,0.1,0,0.2,0,0.3
						c0,0,0,0.1,0,0.2c0,0.1,0,0.3,0.1,0.4c0.1,0.2,0.3,0.4,0.4,0.5c0.2,0.1,0.4,0.6,0.6,0.6c0.2,0,0.4-0.1,0.5-0.1
						c0.2,0,0.4,0,0.6-0.1c0.2-0.1,0.1-0.3,0.3-0.5c0.1-0.1,0.3,0,0.4-0.1c0.2-0.1,0.3-0.3,0.4-0.5c0-0.1,0-0.1,0-0.2
						c0-0.1,0.1-0.2,0.1-0.3c0-0.1-0.1-0.1-0.1-0.2c0-0.1,0-0.2,0-0.3c0-0.2,0-0.4-0.1-0.5c-0.4-0.7-1.2-0.9-2-0.8
						c-0.2,0-0.3,0.1-0.4,0.2c-0.2,0.1-0.1,0.2-0.3,0.2c-0.1,0-0.2,0.1-0.2,0.2C54.1-10.5,54.1-10.5,54.1-10.4
						C54.1-10.4,54.1-10.4,54.1-10.4"/>
					<path fill="#FFFFFF" d="M46.5-10.4c0,0.1,0,0.1,0,0.2c-0.1,0.1-0.1,0.1-0.2,0.1c-0.1,0.1-0.1,0.3-0.1,0.4c-0.2,0.1,0,0.2,0,0.3
						c0,0,0,0.1,0,0.2c0,0.1,0,0.3,0.1,0.4c0.1,0.2,0.3,0.4,0.4,0.5c0.2,0.1,0.4,0.6,0.6,0.6c0.2,0,0.4-0.1,0.5-0.1
						c0.2,0,0.4,0,0.6-0.1c0.2-0.1,0.1-0.3,0.3-0.5c0.1-0.1,0.3,0,0.4-0.1c0.2-0.1,0.3-0.3,0.4-0.5c0-0.1,0-0.1,0-0.2
						c0-0.1,0.1-0.2,0.1-0.3c0-0.1-0.1-0.1-0.1-0.2c0-0.1,0-0.2,0-0.3c0-0.2,0-0.4-0.1-0.5c-0.4-0.7-1.2-0.9-2-0.8
						c-0.2,0-0.3,0.1-0.4,0.2c-0.2,0.1-0.1,0.2-0.3,0.2c-0.1,0-0.2,0.1-0.2,0.2C46.5-10.5,46.5-10.5,46.5-10.4
						C46.5-10.4,46.5-10.4,46.5-10.4"/>
					<path fill="#FFFFFF" d="M38.8-10.4c0,0.1,0,0.1,0,0.2c-0.1,0.1-0.1,0.1-0.2,0.1c-0.1,0.1-0.1,0.3-0.1,0.4c-0.2,0.1,0,0.2,0,0.3
						c0,0,0,0.1,0,0.2c0,0.1,0,0.3,0.1,0.4c0.1,0.2,0.3,0.4,0.4,0.5c0.2,0.1,0.4,0.6,0.6,0.6c0.2,0,0.4-0.1,0.5-0.1
						c0.2,0,0.4,0,0.6-0.1C40.9-8,40.8-8.2,41-8.3c0.1-0.1,0.3,0,0.4-0.1c0.2-0.1,0.3-0.3,0.4-0.5c0-0.1,0-0.1,0-0.2
						c0-0.1,0.1-0.2,0.1-0.3c0-0.1-0.1-0.1-0.1-0.2c0-0.1,0-0.2,0-0.3c0-0.2,0-0.4-0.1-0.5c-0.4-0.7-1.2-0.9-2-0.8
						c-0.2,0-0.3,0.1-0.4,0.2c-0.2,0.1-0.1,0.2-0.3,0.2c-0.1,0-0.2,0.1-0.2,0.2C38.8-10.5,38.8-10.5,38.8-10.4
						C38.8-10.4,38.8-10.4,38.8-10.4"/>
					<path fill="#FFFFFF" d="M31.1-10.4c0,0.1,0,0.1,0,0.2c-0.1,0.1-0.1,0.1-0.2,0.1c-0.1,0.1-0.1,0.3-0.1,0.4c-0.2,0.1,0,0.2,0,0.3
						c0,0,0,0.1,0,0.2c0,0.1,0,0.3,0.1,0.4c0.1,0.2,0.3,0.4,0.4,0.5c0.2,0.1,0.4,0.6,0.6,0.6c0.2,0,0.4-0.1,0.5-0.1
						c0.2,0,0.4,0,0.6-0.1c0.2-0.1,0.1-0.3,0.3-0.5c0.1-0.1,0.3,0,0.4-0.1c0.2-0.1,0.3-0.3,0.4-0.5c0-0.1,0-0.1,0-0.2
						c0-0.1,0.1-0.2,0.1-0.3c0-0.1-0.1-0.1-0.1-0.2c0-0.1,0-0.2,0-0.3c0-0.2,0-0.4-0.1-0.5c-0.4-0.7-1.2-0.9-2-0.8
						c-0.2,0-0.3,0.1-0.4,0.2c-0.2,0.1-0.1,0.2-0.3,0.2c-0.1,0-0.2,0.1-0.2,0.2C31.1-10.5,31.1-10.5,31.1-10.4
						C31.1-10.4,31.1-10.4,31.1-10.4"/>
					<path fill="#FFFFFF" d="M23.5-10.4c0,0.1,0,0.1,0,0.2c-0.1,0.1-0.1,0.1-0.2,0.1c-0.1,0.1-0.1,0.3-0.1,0.4c-0.2,0.1,0,0.2,0,0.3
						c0,0,0,0.1,0,0.2c0,0.1,0,0.3,0.1,0.4c0.1,0.2,0.3,0.4,0.4,0.5c0.2,0.1,0.4,0.6,0.6,0.6c0.2,0,0.4-0.1,0.5-0.1
						c0.2,0,0.4,0,0.6-0.1c0.2-0.1,0.1-0.3,0.3-0.5c0.1-0.1,0.3,0,0.4-0.1c0.2-0.1,0.3-0.3,0.4-0.5c0-0.1,0-0.1,0-0.2
						c0-0.1,0.1-0.2,0.1-0.3c0-0.1-0.1-0.1-0.1-0.2c0-0.1,0-0.2,0-0.3c0-0.2,0-0.4-0.1-0.5c-0.4-0.7-1.2-0.9-2-0.8
						c-0.2,0-0.3,0.1-0.4,0.2c-0.2,0.1-0.1,0.2-0.3,0.2c-0.1,0-0.2,0.1-0.2,0.2C23.5-10.5,23.5-10.5,23.5-10.4
						C23.5-10.4,23.5-10.4,23.5-10.4"/>
					<path fill="#FFFFFF" d="M15.8-10.4c0,0.1,0,0.1,0,0.2c-0.1,0.1-0.1,0.1-0.2,0.1c-0.1,0.1-0.1,0.3-0.1,0.4c-0.2,0.1,0,0.2,0,0.3
						c0,0,0,0.1,0,0.2c0,0.1,0,0.3,0.1,0.4c0.1,0.2,0.3,0.4,0.4,0.5c0.2,0.1,0.4,0.6,0.6,0.6c0.2,0,0.4-0.1,0.5-0.1
						c0.2,0,0.4,0,0.6-0.1C17.9-8,17.8-8.2,18-8.3c0.1-0.1,0.3,0,0.4-0.1c0.2-0.1,0.3-0.3,0.4-0.5c0-0.1,0-0.1,0-0.2
						c0-0.1,0.1-0.2,0.1-0.3c0-0.1-0.1-0.1-0.1-0.2c0-0.1,0-0.2,0-0.3c0-0.2,0-0.4-0.1-0.5c-0.4-0.7-1.2-0.9-2-0.8
						c-0.2,0-0.3,0.1-0.4,0.2c-0.2,0.1-0.1,0.2-0.3,0.2c-0.1,0-0.2,0.1-0.2,0.2C15.8-10.5,15.8-10.5,15.8-10.4
						C15.8-10.4,15.8-10.4,15.8-10.4"/>
					<path fill="#FFFFFF" d="M8.2-10.4c0,0.1,0,0.1,0,0.2C8.1-10.1,8-10.2,8-10.1C7.9-10,7.9-9.8,7.9-9.8c-0.2,0.1,0,0.2,0,0.3
						c0,0,0,0.1,0,0.2c0,0.1,0,0.3,0.1,0.4C8-8.7,8.2-8.5,8.3-8.3c0.2,0.1,0.4,0.6,0.6,0.6c0.2,0,0.4-0.1,0.5-0.1
						c0.2,0,0.4,0,0.6-0.1c0.2-0.1,0.1-0.3,0.3-0.5c0.1-0.1,0.3,0,0.4-0.1c0.2-0.1,0.3-0.3,0.4-0.5c0-0.1,0-0.1,0-0.2
						c0-0.1,0.1-0.2,0.1-0.3c0-0.1-0.1-0.1-0.1-0.2c0-0.1,0-0.2,0-0.3c0-0.2,0-0.4-0.1-0.5c-0.4-0.7-1.2-0.9-2-0.8
						c-0.2,0-0.3,0.1-0.4,0.2c-0.2,0.1-0.1,0.2-0.3,0.2c-0.1,0-0.2,0.1-0.2,0.2C8.2-10.5,8.2-10.5,8.2-10.4
						C8.1-10.4,8.1-10.4,8.2-10.4"/>
					<path fill="#FFFFFF" d="M0.5-10.4c0,0.1,0,0.1,0,0.2c-0.1,0.1-0.1,0.1-0.2,0.1C0.3-10,0.2-9.8,0.2-9.8c-0.2,0.1,0,0.2,0,0.3
						c0,0,0,0.1,0,0.2c0,0.1,0,0.3,0.1,0.4c0.1,0.2,0.3,0.4,0.4,0.5C0.9-8.2,1-7.8,1.3-7.7c0.2,0,0.4-0.1,0.5-0.1
						c0.2,0,0.4,0,0.6-0.1C2.6-8,2.5-8.2,2.7-8.3c0.1-0.1,0.3,0,0.4-0.1c0.2-0.1,0.3-0.3,0.4-0.5c0-0.1,0-0.1,0-0.2
						c0-0.1,0.1-0.2,0.1-0.3c0-0.1-0.1-0.1-0.1-0.2c0-0.1,0-0.2,0-0.3c0-0.2,0-0.4-0.1-0.5c-0.4-0.7-1.2-0.9-2-0.8
						c-0.2,0-0.3,0.1-0.4,0.2c-0.2,0.1-0.1,0.2-0.3,0.2c-0.1,0-0.2,0.1-0.2,0.2C0.5-10.5,0.5-10.5,0.5-10.4
						C0.5-10.4,0.5-10.4,0.5-10.4"/>
				</g>
			</g>
			<g>
				<path fill="#FFFFFF" d="M69.4-2.8c0,0.1,0,0.1,0,0.2c-0.1,0.1-0.1,0.1-0.2,0.1c-0.1,0.1-0.1,0.3-0.1,0.4c-0.2,0.1,0,0.2,0,0.3
					c0,0,0,0.1,0,0.2c0,0.1,0,0.3,0.1,0.4c0.1,0.2,0.3,0.4,0.4,0.5C69.8-0.5,70-0.1,70.2,0c0.2,0,0.4-0.1,0.5-0.1
					c0.2,0,0.4,0,0.6-0.1c0.2-0.1,0.1-0.3,0.3-0.5c0.1-0.1,0.3,0,0.4-0.1c0.2-0.1,0.3-0.3,0.4-0.5c0-0.1,0-0.1,0-0.2
					c0-0.1,0.1-0.2,0.1-0.3c0-0.1-0.1-0.1-0.1-0.2c0-0.1,0-0.2,0-0.3c0-0.2,0-0.4-0.1-0.5c-0.4-0.7-1.2-0.9-2-0.8
					c-0.2,0-0.3,0.1-0.4,0.2c-0.2,0.1-0.1,0.2-0.3,0.2c-0.1,0-0.2,0.1-0.2,0.2C69.4-2.8,69.4-2.9,69.4-2.8
					C69.4-2.7,69.4-2.8,69.4-2.8"/>
				<path fill="#FFFFFF" d="M61.8-2.8c0,0.1,0,0.1,0,0.2c-0.1,0.1-0.1,0.1-0.2,0.1c-0.1,0.1-0.1,0.3-0.1,0.4c-0.2,0.1,0,0.2,0,0.3
					c0,0,0,0.1,0,0.2c0,0.1,0,0.3,0.1,0.4C61.6-1,61.8-0.8,62-0.7c0.2,0.1,0.4,0.6,0.6,0.6c0.2,0,0.4-0.1,0.5-0.1
					c0.2,0,0.4,0,0.6-0.1c0.2-0.1,0.1-0.3,0.3-0.5c0.1-0.1,0.3,0,0.4-0.1c0.2-0.1,0.3-0.3,0.4-0.5c0-0.1,0-0.1,0-0.2
					c0-0.1,0.1-0.2,0.1-0.3c0-0.1-0.1-0.1-0.1-0.2c0-0.1,0-0.2,0-0.3c0-0.2,0-0.4-0.1-0.5c-0.4-0.7-1.2-0.9-2-0.8
					c-0.2,0-0.3,0.1-0.4,0.2c-0.2,0.1-0.1,0.2-0.3,0.2c-0.1,0-0.2,0.1-0.2,0.2C61.8-2.8,61.8-2.9,61.8-2.8
					C61.8-2.7,61.8-2.8,61.8-2.8"/>
				<path fill="#FFFFFF" d="M54.1-2.8c0,0.1,0,0.1,0,0.2C54-2.5,54-2.5,53.9-2.5c-0.1,0.1-0.1,0.3-0.1,0.4c-0.2,0.1,0,0.2,0,0.3
					c0,0,0,0.1,0,0.2c0,0.1,0,0.3,0.1,0.4C54-1,54.1-0.8,54.3-0.7c0.2,0.1,0.4,0.6,0.6,0.6c0.2,0,0.4-0.1,0.5-0.1
					c0.2,0,0.4,0,0.6-0.1c0.2-0.1,0.1-0.3,0.3-0.5c0.1-0.1,0.3,0,0.4-0.1C56.9-0.8,57-1,57.1-1.2c0-0.1,0-0.1,0-0.2
					c0-0.1,0.1-0.2,0.1-0.3c0-0.1-0.1-0.1-0.1-0.2c0-0.1,0-0.2,0-0.3c0-0.2,0-0.4-0.1-0.5c-0.4-0.7-1.2-0.9-2-0.8
					c-0.2,0-0.3,0.1-0.4,0.2c-0.2,0.1-0.1,0.2-0.3,0.2c-0.1,0-0.2,0.1-0.2,0.2C54.1-2.8,54.1-2.9,54.1-2.8
					C54.1-2.7,54.1-2.8,54.1-2.8"/>
				<path fill="#FFFFFF" d="M46.5-2.8c0,0.1,0,0.1,0,0.2c-0.1,0.1-0.1,0.1-0.2,0.1c-0.1,0.1-0.1,0.3-0.1,0.4c-0.2,0.1,0,0.2,0,0.3
					c0,0,0,0.1,0,0.2c0,0.1,0,0.3,0.1,0.4c0.1,0.2,0.3,0.4,0.4,0.5C46.8-0.5,47-0.1,47.2,0c0.2,0,0.4-0.1,0.5-0.1
					c0.2,0,0.4,0,0.6-0.1c0.2-0.1,0.1-0.3,0.3-0.5c0.1-0.1,0.3,0,0.4-0.1c0.2-0.1,0.3-0.3,0.4-0.5c0-0.1,0-0.1,0-0.2
					c0-0.1,0.1-0.2,0.1-0.3c0-0.1-0.1-0.1-0.1-0.2c0-0.1,0-0.2,0-0.3c0-0.2,0-0.4-0.1-0.5c-0.4-0.7-1.2-0.9-2-0.8
					c-0.2,0-0.3,0.1-0.4,0.2c-0.2,0.1-0.1,0.2-0.3,0.2c-0.1,0-0.2,0.1-0.2,0.2C46.5-2.8,46.5-2.9,46.5-2.8
					C46.5-2.7,46.5-2.8,46.5-2.8"/>
				<path fill="#FFFFFF" d="M38.8-2.8c0,0.1,0,0.1,0,0.2c-0.1,0.1-0.1,0.1-0.2,0.1c-0.1,0.1-0.1,0.3-0.1,0.4c-0.2,0.1,0,0.2,0,0.3
					c0,0,0,0.1,0,0.2c0,0.1,0,0.3,0.1,0.4C38.6-1,38.8-0.8,39-0.7c0.2,0.1,0.4,0.6,0.6,0.6c0.2,0,0.4-0.1,0.5-0.1
					c0.2,0,0.4,0,0.6-0.1c0.2-0.1,0.1-0.3,0.3-0.5c0.1-0.1,0.3,0,0.4-0.1c0.2-0.1,0.3-0.3,0.4-0.5c0-0.1,0-0.1,0-0.2
					c0-0.1,0.1-0.2,0.1-0.3c0-0.1-0.1-0.1-0.1-0.2c0-0.1,0-0.2,0-0.3c0-0.2,0-0.4-0.1-0.5c-0.4-0.7-1.2-0.9-2-0.8
					c-0.2,0-0.3,0.1-0.4,0.2c-0.2,0.1-0.1,0.2-0.3,0.2c-0.1,0-0.2,0.1-0.2,0.2C38.8-2.8,38.8-2.9,38.8-2.8
					C38.8-2.7,38.8-2.8,38.8-2.8"/>
				<path fill="#FFFFFF" d="M31.1-2.8c0,0.1,0,0.1,0,0.2c-0.1,0.1-0.1,0.1-0.2,0.1c-0.1,0.1-0.1,0.3-0.1,0.4c-0.2,0.1,0,0.2,0,0.3
					c0,0,0,0.1,0,0.2c0,0.1,0,0.3,0.1,0.4C31-1,31.1-0.8,31.3-0.7c0.2,0.1,0.4,0.6,0.6,0.6c0.2,0,0.4-0.1,0.5-0.1
					c0.2,0,0.4,0,0.6-0.1c0.2-0.1,0.1-0.3,0.3-0.5c0.1-0.1,0.3,0,0.4-0.1c0.2-0.1,0.3-0.3,0.4-0.5c0-0.1,0-0.1,0-0.2
					c0-0.1,0.1-0.2,0.1-0.3c0-0.1-0.1-0.1-0.1-0.2c0-0.1,0-0.2,0-0.3c0-0.2,0-0.4-0.1-0.5c-0.4-0.7-1.2-0.9-2-0.8
					c-0.2,0-0.3,0.1-0.4,0.2c-0.2,0.1-0.1,0.2-0.3,0.2c-0.1,0-0.2,0.1-0.2,0.2C31.1-2.8,31.1-2.9,31.1-2.8
					C31.1-2.7,31.1-2.8,31.1-2.8"/>
				<path fill="#FFFFFF" d="M23.5-2.8c0,0.1,0,0.1,0,0.2c-0.1,0.1-0.1,0.1-0.2,0.1c-0.1,0.1-0.1,0.3-0.1,0.4c-0.2,0.1,0,0.2,0,0.3
					c0,0,0,0.1,0,0.2c0,0.1,0,0.3,0.1,0.4c0.1,0.2,0.3,0.4,0.4,0.5C23.8-0.5,24-0.1,24.3,0c0.2,0,0.4-0.1,0.5-0.1
					c0.2,0,0.4,0,0.6-0.1c0.2-0.1,0.1-0.3,0.3-0.5c0.1-0.1,0.3,0,0.4-0.1c0.2-0.1,0.3-0.3,0.4-0.5c0-0.1,0-0.1,0-0.2
					c0-0.1,0.1-0.2,0.1-0.3c0-0.1-0.1-0.1-0.1-0.2c0-0.1,0-0.2,0-0.3c0-0.2,0-0.4-0.1-0.5c-0.4-0.7-1.2-0.9-2-0.8
					c-0.2,0-0.3,0.1-0.4,0.2c-0.2,0.1-0.1,0.2-0.3,0.2c-0.1,0-0.2,0.1-0.2,0.2C23.5-2.8,23.5-2.9,23.5-2.8
					C23.5-2.7,23.5-2.8,23.5-2.8"/>
				<path fill="#FFFFFF" d="M15.8-2.8c0,0.1,0,0.1,0,0.2c-0.1,0.1-0.1,0.1-0.2,0.1c-0.1,0.1-0.1,0.3-0.1,0.4c-0.2,0.1,0,0.2,0,0.3
					c0,0,0,0.1,0,0.2c0,0.1,0,0.3,0.1,0.4C15.7-1,15.8-0.8,16-0.7c0.2,0.1,0.4,0.6,0.6,0.6c0.2,0,0.4-0.1,0.5-0.1
					c0.2,0,0.4,0,0.6-0.1c0.2-0.1,0.1-0.3,0.3-0.5c0.1-0.1,0.3,0,0.4-0.1c0.2-0.1,0.3-0.3,0.4-0.5c0-0.1,0-0.1,0-0.2
					c0-0.1,0.1-0.2,0.1-0.3c0-0.1-0.1-0.1-0.1-0.2c0-0.1,0-0.2,0-0.3c0-0.2,0-0.4-0.1-0.5c-0.4-0.7-1.2-0.9-2-0.8
					c-0.2,0-0.3,0.1-0.4,0.2c-0.2,0.1-0.1,0.2-0.3,0.2c-0.1,0-0.2,0.1-0.2,0.2C15.8-2.8,15.8-2.9,15.8-2.8
					C15.8-2.7,15.8-2.8,15.8-2.8"/>
				<path fill="#FFFFFF" d="M8.2-2.8c0,0.1,0,0.1,0,0.2C8.1-2.5,8-2.5,8-2.5C7.9-2.4,7.9-2.2,7.9-2.1c-0.2,0.1,0,0.2,0,0.3
					c0,0,0,0.1,0,0.2c0,0.1,0,0.3,0.1,0.4C8-1,8.2-0.8,8.3-0.7C8.5-0.5,8.7-0.1,8.9,0c0.2,0,0.4-0.1,0.5-0.1c0.2,0,0.4,0,0.6-0.1
					c0.2-0.1,0.1-0.3,0.3-0.5c0.1-0.1,0.3,0,0.4-0.1c0.2-0.1,0.3-0.3,0.4-0.5c0-0.1,0-0.1,0-0.2c0-0.1,0.1-0.2,0.1-0.3
					c0-0.1-0.1-0.1-0.1-0.2c0-0.1,0-0.2,0-0.3c0-0.2,0-0.4-0.1-0.5c-0.4-0.7-1.2-0.9-2-0.8C9-3.5,8.8-3.4,8.7-3.4
					C8.5-3.3,8.6-3.2,8.4-3.1C8.3-3.1,8.2-3,8.2-2.9C8.2-2.8,8.2-2.9,8.2-2.8C8.1-2.7,8.1-2.8,8.2-2.8"/>
				<path fill="#FFFFFF" d="M0.5-2.8c0,0.1,0,0.1,0,0.2C0.4-2.5,0.4-2.5,0.3-2.5C0.3-2.4,0.2-2.2,0.2-2.1c-0.2,0.1,0,0.2,0,0.3
					c0,0,0,0.1,0,0.2c0,0.1,0,0.3,0.1,0.4C0.3-1,0.5-0.8,0.7-0.7C0.9-0.5,1-0.1,1.3,0c0.2,0,0.4-0.1,0.5-0.1c0.2,0,0.4,0,0.6-0.1
					c0.2-0.1,0.1-0.3,0.3-0.5c0.1-0.1,0.3,0,0.4-0.1C3.3-0.8,3.4-1,3.5-1.2c0-0.1,0-0.1,0-0.2c0-0.1,0.1-0.2,0.1-0.3
					c0-0.1-0.1-0.1-0.1-0.2c0-0.1,0-0.2,0-0.3c0-0.2,0-0.4-0.1-0.5c-0.4-0.7-1.2-0.9-2-0.8C1.3-3.5,1.2-3.4,1-3.4
					C0.9-3.3,0.9-3.2,0.7-3.1C0.6-3.1,0.5-3,0.5-2.9C0.5-2.8,0.5-2.9,0.5-2.8C0.5-2.7,0.5-2.8,0.5-2.8"/>
			</g>
		</g>
	</pattern>
</defs>
<path fill="#231F20" d="M348.9,91.9c-1.3-0.5-3-1-3.8,0.3c-0.8,1.2,0.5,2.5,2.3,3.5c-1.2-0.2-1.8-0.5-2.3,0.5
	c-0.8,1.5,2,3.7,3.5,4.3c-1.2-0.7-2.5-0.8-2.8,0.3c-0.5,1.8,6.5,6,10.8,8.5c2,1.8,8,4,11.2,4.7c0.8,0.2,4.3,0.2,7.5,1.2
	c0.3-2.3,0.7-4.3,1-7c0.2-1.7,0.3-3.3,0.5-4.8c-1.5-1.7-3-3.3-4-5c0-0.2-0.2-0.2-0.2-0.3l0,0c-0.2-0.2-0.2-0.2-0.3-0.3
	c0,0,0,0-0.2-0.2c-0.2-0.2-1-1-1-1c-0.3-0.3-2.8-2.7-5.2-3.2c-2.2-0.5-4.2,0-4.2,0c-1.5-0.5-5.3-2.3-7.8-3.5c0,0-4.2-1.8-5.2-0.8
	C347.9,89.9,347.7,90.9,348.9,91.9z M446.9,351.2c0.2,0,0.3,0,0.7,0c1.8-0.2,3.3-1.3,4.8-3.2c0-0.2,0.2-0.2,0.2-0.3l-4.2-49.1
	c-2,0.3-4,0.3-6,0.5c0,3.3,0,6.7,0,10c0,15.5,0.2,31.8,0.2,39.8C443.8,350.2,445.3,351,446.9,351.2L446.9,351.2z M431.6,100.2
	c0.8,0.3,1.8,0.5,2.5,0.5c0.7,0,1.2-0.2,1.3-0.7c1-1.7,17.1-27.3,25.6-33c-1.2-2.3-2-5-3.2-8.5c-0.2-0.5-0.3-0.8-0.3-1.3
	c-0.7,3.3-3,6.3-9,7c-2-0.2-6.2-3.8-9.8-5.3c-0.3,1.2-0.8,2.3-0.8,3.5c0.5,0.2,1,0.5,1.5,0.7c0,0.5,0.2,1,0.2,1.5l0,0
	c-0.5,0-1.2,0-1.7,0c-4.5,17.5-9,28.8-9.5,32.1c-0.2,1.2-0.2,1.7,0.2,1.8C429.5,99.4,430.1,99.5,431.6,100.2z M443.3,376
	c0.8,0.8,1.8,1.3,2.8,1.7c1.2,0,2.3,0,3.5-0.2c1.5-0.5,2.8-1.5,4-2.8l-1.7-20c-1.2,0.7-2.3,1-3.7,1.2c-0.5,0-1,0.2-1.3,0.2h-0.2l0,0
	c-1.2,0-2.3-0.3-3.5-0.7v0.2c0,1.8,0,3.7,0,5.5c0,0.8,0,1.5,0,2.3c0,3.3,0,6.8,0,10.2C443.3,374.5,443.3,375.3,443.3,376z
	 M360.9,161.8c0.3,0,0.8,0,1.2,0c0.2,0,0.5,0,0.7,0c0.3,0,0.5,0,0.8,0c0.2,0,0.5,0,0.7,0c0.2,0,0.5,0,0.7-0.2c0.2,0,0.5,0,0.7-0.2
	c0.2,0,0.5-0.2,0.7-0.2c0.2,0,0.5-0.2,0.7-0.2s0.5-0.2,0.7-0.2c0.2,0,0.5-0.2,0.7-0.2c0.2,0,0.5-0.2,0.7-0.2c0.2,0,0.3-0.2,0.7-0.2
	c0.2-0.2,0.3-0.2,0.7-0.3c0.2-0.2,0.3-0.2,0.7-0.3c0.2-0.2,0.3-0.2,0.7-0.3c0.2-0.2,0.3-0.2,0.5-0.3c0.2-0.2,0.3-0.2,0.5-0.3
	c0.2-0.2,0.3-0.2,0.5-0.3c0.2-0.2,0.3-0.3,0.5-0.3c0.2-0.2,0.3-0.3,0.5-0.3c0.2-0.2,0.3-0.3,0.5-0.5c0.2-0.2,0.3-0.3,0.5-0.5
	c0.2-0.2,0.3-0.3,0.5-0.5c0.2-0.2,0.3-0.3,0.5-0.5c0.2-0.2,0.3-0.3,0.5-0.5c0.2-0.2,0.3-0.3,0.5-0.5c0.2-0.2,0.3-0.3,0.5-0.5
	c0.2-0.2,0.3-0.3,0.3-0.5c0.2-0.2,0.3-0.5,0.5-0.7c0-0.2,0.2-0.2,0.2-0.3c0,0-2.7-0.3-4.5-0.3c-1.8,0-3.2,0.3-3.5,0.5l0,0
	c-0.2,0.2-0.2,0.2-0.3,0.3c-0.2,0.2-0.3,0.3-0.7,0.5c-0.2,0.2-0.3,0.2-0.5,0.3c-0.2,0.2-0.5,0.2-0.7,0.3c-0.2,0.2-0.3,0.2-0.5,0.3
	c-0.2,0.2-0.5,0.2-0.7,0.3c-0.2,0-0.3,0.2-0.5,0.2c-0.2,0.2-0.5,0.2-0.7,0.2c-0.2,0-0.3,0.2-0.5,0.2c-0.2,0-0.5,0.2-0.7,0.2
	c-0.2,0-0.3,0.2-0.7,0.2c-0.2,0-0.5,0-0.7,0.2c-0.2,0-0.3,0-0.7,0c-0.2,0-0.5,0-0.8,0c-0.2,0-0.3,0-0.3,0c-0.2,0-0.3,0-0.5,0
	c0,0,0,0-0.2,0c-7.8-0.3-13.8-6.8-13.5-14.6l0,0c0-0.5,0-1,0.2-1.5c0-0.2,0-0.2,0-0.3c0-0.3,0.2-0.7,0.2-1c0-0.2,0-0.3,0.2-0.3
	c0.2-0.3,0.2-0.7,0.3-1c0-0.2,0.2-0.3,0.2-0.3c0.2-0.3,0.2-0.5,0.3-0.8c0-0.2,0.2-0.3,0.2-0.5c0.2-0.3,0.3-0.5,0.3-0.8
	c0-0.2,0.2-0.3,0.3-0.3c0.2-0.2,0.3-0.5,0.5-0.7c0.2-0.2,0.2-0.3,0.3-0.3c0.2-0.2,0.3-0.5,0.5-0.7c0.2-0.2,0.2-0.2,0.3-0.3
	c0.2-0.2,0.3-0.3,0.7-0.7c0.2-0.2,0.3-0.2,0.3-0.3c0.2-0.2,0.5-0.3,0.7-0.5c0.2-0.2,0.3-0.2,0.3-0.3c0.2-0.2,0.5-0.3,0.7-0.5
	c0.2-0.2,0.3-0.2,0.5-0.3c0.2-0.2,0.5-0.3,0.7-0.3s0.3-0.2,0.5-0.2c0.3-0.2,0.5-0.2,0.8-0.3c0.2,0,0.3-0.2,0.5-0.2
	c0.3-0.2,0.5-0.2,0.8-0.3c0.2,0,0.3-0.2,0.5-0.2c0.3,0,0.5-0.2,0.8-0.2c0.2,0,0.3,0,0.5,0c0.3,0,0.5,0,0.8-0.2c0.2,0,0.3,0,0.5,0
	c0.2,0,0.3,0,0.5,0c0.2,0,0.3,0,0.5,0c4.5,0.2,8.3,2.3,10.8,5.7c2.2,0.2,5.2,0.7,7.5,1.7c-2.7-7.5-9.7-13-18-13.3c-0.5,0-1,0-1.5,0
	c-0.3,0-0.5,0-0.8,0c-0.3,0-0.8,0-1.2,0.2c-0.3,0-0.5,0-0.8,0.2c-0.3,0-0.8,0.2-1.2,0.2c-0.3,0-0.5,0.2-0.8,0.2
	c-0.3,0.2-0.7,0.2-1.2,0.3c-0.2,0.2-0.5,0.2-0.7,0.3c-0.3,0.2-0.7,0.3-1,0.5c-0.2,0.2-0.5,0.2-0.7,0.3c-0.3,0.2-0.7,0.3-1,0.5
	c-0.2,0.2-0.5,0.3-0.7,0.3c-0.3,0.2-0.7,0.3-0.8,0.7c-0.2,0.2-0.5,0.3-0.7,0.5c-0.3,0.2-0.5,0.5-0.8,0.7c-0.2,0.2-0.3,0.3-0.7,0.5
	c-0.3,0.3-0.5,0.5-0.8,0.8c-0.2,0.2-0.3,0.3-0.5,0.5c-0.2,0.3-0.5,0.5-0.7,0.8c-0.2,0.2-0.3,0.3-0.5,0.7c-0.2,0.3-0.3,0.7-0.7,1
	c-0.2,0.2-0.3,0.5-0.5,0.7c-0.2,0.3-0.3,0.7-0.5,1c-0.2,0.2-0.3,0.5-0.3,0.7c-0.2,0.3-0.3,0.7-0.5,1c-0.2,0.2-0.2,0.5-0.3,0.7
	c-0.2,0.3-0.2,0.8-0.3,1.2c0,0.2-0.2,0.5-0.2,0.7c-0.2,0.5-0.2,0.8-0.3,1.3c0,0.2,0,0.3-0.2,0.7c-0.2,0.7-0.2,1.3-0.2,2
	C341.4,152.1,349.9,161.4,360.9,161.8z M508.7,364.2c0.7,0,1.5-0.2,2.2-0.3l0,0l0,0c1.3-0.5,2.5-1.5,3.5-2.7l-6.5-20.8
	c-1.2,1.2-2.5,2.2-4,2.8l0,0l0,0h-0.2h-0.2c-1.2,0.3-2.3,0.7-3.5,0.7l0,0l0,0h-0.2l6.3,19.6C506.7,363.8,507.7,364.2,508.7,364.2z
	 M492.4,347.5c-0.7,0.2-1.3,0.2-2,0.2h-0.2H490c-0.7,0-1.5-0.2-2.2-0.3l5.2,19.1c1.5,1.2,3.2,2,4.7,2c0.3,0,0.7,0,1-0.2
	c1.8-0.3,3.3-1.5,4.5-3.2l-6.3-20C495.7,346.4,494,347.2,492.4,347.5z M345.2,210.5H385c-3,7.2-4.8,15.1-4.8,23.5
	c0,33.1,27,60.1,60.1,60.1c33.1,0,60.1-27,60.1-60.1c0-8.3-1.7-16.3-4.8-23.5h36.6c71.6,0,83.6-37.9,83.6-37.9H475.9
	c-0.8,0-1.7,0-2.5,0c-0.2,0-0.3,0-0.5,0c-0.7,0-1.2,0-1.8,0.2c1.2-14.6,2.3-29.1,3-41.9c-2.8,12.1-6.5,24.5-8.7,34.8
	c-5.2,24.6-24.1,81.2-24.1,81.2c-1.3,4.7-2.8,7.2-5.5,7.3c-3.3-0.2-6-4.3-9.2-10.5c-3-6.3-6.3-14.8-9.7-24.3c-2-5.5-4-11.3-5.8-17.3
	c-0.2,1.5-0.3,3-0.5,4.5c-2,21.6-3.3,40.9-4.8,53.1c7.5,10.8,20.1,18,34.5,18c14,0,26.3-6.8,34-17.1c-0.2-1.2-0.3-2.5-0.5-3.7
	c0-0.2,0-0.5-0.2-0.7c-0.3-2.8-0.8-5.5-1.2-8.2c0-0.3,0-0.5-0.2-0.8c-0.3-2.7-0.7-5.3-0.8-7.8c0-0.2,0-0.5,0-0.7
	c-0.3-2.7-0.5-5.2-0.7-7.7v-0.2c0-0.5,0-1-0.2-1.5c0-0.2,0-0.2,0-0.3c-1-12.2-1.2-23.3-0.8-33.8l0,0l0,0c9.3,7.2,16,17.5,18.1,29.5
	c0,0.2,0,0.3,0.2,0.3c0.2,0.8,0.3,1.8,0.3,2.7c0,0,0,0,0,0.2c0.2,0.8,0.2,1.5,0.2,2.3c0,0.2,0,0.3,0,0.7c0,1,0.2,2,0.2,3
	c0,0.8,0,1.7,0,2.3c0,0.3,0,0.5,0,0.8c0,0.5,0,1-0.2,1.5c0,0.3,0,0.7-0.2,0.8c0,0.5-0.2,1-0.2,1.3c0,0.3-0.2,0.7-0.2,0.8
	c-2.7,23.8-23.1,42.3-47.8,42.3c-25.1,0-45.9-19.3-47.9-43.9c-0.3-2-0.5-4.2-0.5-6.3c0-14.8,6.7-28.1,17.3-36.9
	c-2.8-8.7-5.8-17.1-8.5-24.3h-139C261.7,172.6,273.7,210.5,345.2,210.5z M430,125.8c0,0,15.8-48.9,33.5-48.9c0.7,0,1.3,0,2,0.2
	c0.8,0.2,4,1.7,4.7,1.8l0.3-2c-1.8-1.3-6.5-4.3-7.7-7c-7.7,5.3-21.1,25.6-25.6,33.1c-0.3,0.7-1.3,1.7-3.3,1.7
	c-1.2,0-2.3-0.3-3.5-0.8c-1.7,4.2-3.3,15.1-4.7,20c-10-3.8-40.1-18.8-46.4-21.3c-0.5,5.3-1.2,11.7-2.2,15.5c0,5,15,14.6,15.5,20.6
	L430,125.8z M491.4,13.3l-3.8,2l-1.5-4.2l-4.5,2.2l-2.5-4.2l-4.2,2.2l-2-3.7l-3.8,1.8l-2-3.3L463.2,8l-2.2-4l-3.8,1.8l-2-3.7l-4.2,2
	L448.6,0l0,0l-4.3,22.1l37.3,10.7L491.4,13.3z M480.9,34.3l-36.8-10.7l-1,3.2l36.6,10.8L480.9,34.3z M440.9,38.9L440.9,38.9
	c0,0,10,2.8,16.1,10.2c0,0,0,0-0.2,0c0,0,0.2,0.7,0.5,1.8c0.5,1.5,1.2,4.3,2.2,7.3c1,3.3,3.7,9,3.7,8.8c0.7,2.2,2.7,4.3,2.7,4.3l0,0
	c2,2,4.5,2.8,8.2,4c0,0,0,0,0.2,0c0.2,0,0.3,0,0.5,0.2h0.2c0.2,0,0.3,0,0.3,0c0.2,0,0.2,0,0.3,0c0.2,0,0.2,0,0.3,0
	c0.2,0,0.2,0,0.3,0c0.2,0,0.2,0,0.3-0.2c0.2,0,0.2,0,0.3-0.2c0.2-0.2,0.2-0.2,0.3-0.2c0.2,0,0.2-0.2,0.3-0.2c0.2,0,0.2-0.2,0.3-0.2
	c0.2,0,0.2-0.2,0.3-0.2c0.2,0,0.2-0.2,0.3-0.2c0.2,0,0.2-0.2,0.3-0.2c0.2,0,0.2-0.2,0.3-0.3c0.2-0.2,0.2-0.2,0.3-0.3
	c0.2-0.2,0.2-0.2,0.3-0.3c0.2-0.2,0.2-0.2,0.3-0.3c0.2-0.2,0.2-0.2,0.3-0.3c0.2-0.2,0.2-0.2,0.3-0.3c0.2-0.2,0.2-0.2,0.3-0.3
	c0.2-0.2,0.2-0.2,0.3-0.3c0.2-0.2,0.2-0.2,0.3-0.3c0.2-0.2,0.2-0.3,0.3-0.3c0.2-0.2,0.2-0.3,0.3-0.3c0.2-0.2,0.2-0.3,0.3-0.5
	c0.2-0.2,0.2-0.3,0.3-0.3c0.2-0.3,0.3-0.5,0.5-0.8c0.2-0.2,0.2-0.3,0.3-0.5s0.2-0.3,0.3-0.5c0-0.2,0.2-0.3,0.2-0.5
	c0-0.2,0.2-0.3,0.2-0.5c0-0.2,0.2-0.3,0.2-0.5c0-0.2,0.2-0.3,0.2-0.5c0-0.2,0.2-0.3,0.2-0.5c0-0.2,0.2-0.3,0.2-0.5
	c0-0.2,0.2-0.3,0.2-0.5c0-0.2,0.2-0.3,0.2-0.5c0-0.2,0.2-0.3,0.2-0.5c0-0.2,0.2-0.3,0.2-0.5c0-0.2,0.2-0.3,0.2-0.5s0.2-0.3,0.2-0.5
	c0-0.2,0.2-0.3,0.2-0.5c0-0.2,0-0.3,0.2-0.5c0-0.2,0-0.3,0.2-0.5c0-0.2,0-0.3,0-0.5s0-0.3,0-0.5c0-0.2,0-0.3,0-0.5s0-0.3,0-0.5
	c0-0.2,0-0.3,0-0.5s0-0.3,0-0.5c0-0.2,0-0.3,0-0.3c0-0.2,0-0.3,0-0.5c0-0.2,0-0.2,0-0.3c-0.2-1.3-0.5-2.3-1.3-3.3
	c-4.8-6.2-4.3-8.3-7.2-13.5c-0.2-0.3-0.3-0.5-0.5-0.8l-35-9.5l0,0c0,0-0.2,0-0.5,0c-0.8,0.7-3.5-0.2-4,6.5c0,0.8,0.5,1.7,1.3,2.3
	C440.3,38.6,440.6,38.8,440.9,38.9z M746.5,203.6c4-0.3,8.8-2,10.7-6.2c1.7-3.7-0.8-6-4.2-7.3l-136.1-8.8c-0.7,1-1.3,2-2.2,3.2
	L746.5,203.6z M462.7,165.3c1.3-6.2,3-13,4.8-20c5.8-22.6,12.5-48.4,5.5-59.9c-1.8-3-4.7-4.8-8.5-5.7c-0.5-0.2-1-0.2-1.5-0.2
	c-12.8,0-26.8,34.1-31,47.3c-0.2,0.8-0.8,1.3-1.7,1.7l-38.8,13.3c-0.3,1-1.3,8.8,19.5,44.1c7.2,12.1,11.8,18.6,15.3,23.5
	c4.7,6.5,7.5,10.5,11.5,21.1c1.2,3,1.8,6.2,2.3,9.2C446.8,221.4,458.2,186.6,462.7,165.3z M390.2,141.6l-0.5-0.5
	c-2.7-0.5-6.2-3-8.7-4.2c-2-1-8.5-2.5-11-1.7c-1.7,0.7-3.7,1-4,5c-0.2,3,0.3,5.3,0.3,7.2c0,0.7,2.2,3.2,3.2,4.2
	c8.8-2.8,18.5,4.7,23.5,3.7C390.8,152,388,142.5,390.2,141.6z M409.3,187.1c-1.5-2.3-2.7-4.7-4-6.8c7.5,21.3,15.8,48.6,22.8,62.9
	c3,6.2,6,9.8,7.5,9.5c0.8,0.2,2.2-1.2,3.3-4.7c-0.2-4.2-1-11-3.2-16.8C429.1,212.9,426,215.2,409.3,187.1z M436.1,56.8L436.1,56.8
	c2.8,0.2,6,2.2,8.8,4c1.3,0.8,3,2,3.8,2.2c3-0.3,5-1.5,6.2-3.3c1.7-2.7,1.3-6.2,0.8-8.2c-0.2-0.7-0.3-1.2-0.3-1.2l0,0l0,0l0,0l0,0
	c0-0.2-0.2-0.3-0.2-0.3c-3.7-5.2-8.5-6.5-11.8-7.5c-1-0.3-2-0.7-2.8-1c0,1.2,0,2.3,0,3.5c0,0,0,1.5-1,3.7c-1,2-4.8,7.3-5.2,8l0,0
	l1.3,0.3C435.8,56.8,435.9,56.8,436.1,56.8z M444.1,46.3l0.2,0.2l5.3,3.2l-0.7,1.2l-2.8-2c0,0-1.3,1.7-2,1.2
	C443.8,49.6,442.1,47.8,444.1,46.3z M461.6,376.3c0.2,0,0.3,0,0.3,0c1.5-0.2,2.7-0.8,3.7-2l-3.2-20.3c-0.7,0.3-1.5,0.5-2.5,0.7h-0.2
	h-0.2h-0.2h-0.2h-0.2h-0.2c-1.3,0-2.7-0.3-4-1l0,0l1.7,20.1C457.9,375.5,459.7,376.3,461.6,376.3z M419.5,376.7
	c1.7,0.2,3.3,0.3,5,0.5c1.5-0.7,2.7-2.2,3.5-3.7l1-18.5c-1,0.5-2.3,0.8-3.8,1H425h-0.2c-0.7,0-1.5-0.2-2.2-0.3l0,0h-0.2h0.2
	c-0.8-0.2-1.5-0.5-2.2-0.8l-1,8l-1.5,12.6C418.5,375.8,419,376.3,419.5,376.7z M432.3,298.6c-2-0.2-3.8-0.5-5.7-1l-5.8,50.6
	c0.8,1.2,1.8,2.2,3.3,2.5c0.3,0,0.8,0.2,1.2,0.2c2.2-0.2,3.5-1.7,4.5-3.3L432.3,298.6z M435.6,377.7c2-0.3,3.7-1.5,4.8-3
	c0-3.7,0-7.5,0-11.2c0-2.3,0-4.8,0-7.2c0-0.5,0-1,0-1.5c-1.5,0.8-3.2,1.2-4.8,1.2h-0.2l0,0c-1.2,0-2.2-0.3-3.3-0.7l-1,18.1l-0.2,2.8
	c0.7,0.5,1.5,1,2.3,1.2C433.9,377.7,434.8,377.7,435.6,377.7z M418.8,346.4l5.7-49.3c-2.3-0.5-4.5-1.3-6.7-2l-8.8,49.8
	c0.8,1.8,1.8,3.5,4,4l0,0c0.3,0,0.7,0.2,0.8,0.2l0,0C416,348.9,417.6,348,418.8,346.4z M407.8,375.2c0.8,0.2,1.7,0.3,2.3,0.3
	c2.2-0.2,4-1.3,5.3-3.2l2.3-19.1c-1.2,0.5-2.3,0.7-3.5,0.8h-0.2H414c-0.7,0-1.3,0-1.8-0.2l0,0l0,0c-1.7-0.3-3.2-1.2-4.2-2l-3.5,19.5
	C405.2,373,406,374.5,407.8,375.2z M74.4,233l60.1-13c-2.7-1.3-4.3-3.3-5.5-5.2L67.6,225c-2.2,2-1.5,4.3-0.5,5.5
	C68.1,231.4,70.4,232.9,74.4,233z M396.8,372.7c0.3,0,0.7,0.2,1,0.2c1.2,0,2.3-0.3,3.3-1l3.7-20.3c-0.5,0-0.8,0.2-1.3,0.2
	c-0.7,0-1.2,0-1.8-0.2h-0.2h-0.2c-1.8-0.5-3.3-1.5-4.3-2.7c-0.2,0.2-0.5,0.2-0.8,0.2l-2.5,11.5l-1.7,7.7c0.2,0.2,0.2,0.3,0.3,0.7
	C393.7,370.7,394.8,372.2,396.8,372.7z M440.3,309.1c0-3.3,0-6.7,0-10l0,0c-2,0-4-0.2-5.8-0.3l-2.8,50.3c1,1.2,2.3,1.8,3.7,1.8l0,0
	l0,0c2.2,0,3.8-1.2,5-2.7C440.4,340,440.3,324.2,440.3,309.1z M119.7,199.4c-0.5-1-0.7-2-0.8-3l-65.1,5.7c-1.8,1.7-2.3,3.8-1.7,5.2
	c0.8,2.2,3.5,4.5,7.7,4.8l64.4-7.2C122.2,203.6,120.7,201.7,119.7,199.4z M66.8,223.2l61.4-10.2c0-0.2-0.2-0.3-0.2-0.5
	c-0.7-1.8-0.7-3.7,0-5.5c-0.5-0.2-1-0.5-1.5-0.7l-66.4,7.5c-2.2,2-2.3,4.8-1.3,6.2C60.5,222,63,223,66.8,223.2z M457.7,296.6
	l7.8,49.8c1,1,2.3,1.8,3.8,1.8c0.2,0,0.2,0,0.3,0c2.2,0,3.7-1.2,4.8-2.7l-10.3-50.9C461.9,295.4,459.9,296.1,457.7,296.6z
	 M402.8,346.5c0.3,0,0.5,0,0.8,0c1.2,0,2.2-0.5,3.3-1.3l9-50.9c-2-0.8-4-1.7-5.8-2.7l-11.5,50.6c0.2,0.2,0.2,0.5,0.3,0.7
	C400,344.7,401,346,402.8,346.5z M761.3,181.1c0.3-1.8-0.7-3.7-2.2-8.5H620.9l-0.5,1.5c-0.2,0.3-0.8,2.5-2.5,5.5l134,8.7
	C756.2,187.2,760.7,185.1,761.3,181.1z M459.1,349.7c0.2,0,0.2,0,0.3,0c1.7-0.2,3-1.2,4.2-2.8l-7.8-49.8c-1.7,0.5-3.5,0.8-5.2,1
	l4.2,49.4C455.9,348.9,457.4,349.7,459.1,349.7z M480.2,345.7c0.2,0,0.5,0,0.7,0c1.8-0.3,3.2-1.7,4-3.2l-13.6-51.4
	c-1.8,1-3.5,1.8-5.3,2.7l10.2,49.9C477.2,344.9,478.6,345.5,480.2,345.7z M486,371.8c0.3,0,0.5,0,0.8,0c1.7-0.3,3-1.3,4-2.5
	l-3.5-12.8l-2-7.3c-1.2,0.7-2.3,1.2-3.7,1.5l0,0l0,0c-0.5,0-1,0.2-1.3,0.2h-0.2c-0.8,0-1.7-0.2-2.7-0.5c-0.2,0-0.2,0-0.3,0.2l3.8,19
	C482.4,370.8,484,371.8,486,371.8z M468.2,371.8c1.3,1.7,3,2.8,5.2,2.8c0.2,0,0.3,0,0.3,0c2,0,3.7-1,4.8-2.2l-4-19.6l-0.2-0.8
	c-1.5,0.8-3,1.2-4.7,1.2c-0.2,0-0.2,0-0.3,0h-0.2h-0.2c-1,0-2.3-0.2-3.7-0.8c-0.2,0-0.2,0-0.3,0l1.2,8L468.2,371.8z M388.5,340
	C388.5,340,388.5,340.2,388.5,340c0.7,1.5,1.2,2.5,2,3.2c1,0.3,2.2,0.8,3.3,1.2c1-0.2,1.7-0.5,2.3-1l12-52.8c-2.2-1.2-4.2-2.5-6.2-4
	L388.5,340z M383.3,369.7c1,0.3,1.8,0.5,2.8,0.8c1,0,1.8-0.3,2.5-0.8l4.3-20.1c-1.2,0-2.2-0.2-3.2-0.7l0,0l0,0
	c-2-0.8-3.3-2.2-4.3-3.5c-0.2,0-0.3,0-0.7,0.2l-4.8,19.6c0.2,0.3,0.2,0.5,0.3,0.7C381.4,367.3,382,368.7,383.3,369.7z M374.4,366
	L374.4,366c1,0,1.8-0.2,2.7-0.5l4.8-20c-1-0.2-2-0.3-3-0.8h-0.2h-0.2c-2-1-3.2-2.3-4-3.7l-6.3,20.3c0,0.2,0.2,0.3,0.2,0.5
	c0.8,1.7,1.3,3,3.2,3.8l0,0C372.5,365.8,373.4,366,374.4,366z M473.2,290.1l13.5,51.1c1.2,1,2.5,1.5,3.7,1.5c0.3,0,0.7,0,0.8-0.2
	c1.7-0.3,3.2-1.5,4.2-3.3l-16.8-52.9C477.1,287.8,475.1,288.9,473.2,290.1z M530,263.1c-2.7,0-5.5-0.8-8-2.3
	c-1.2,0.8-2.7,1.3-4.7,1.7l2.3,8.5c1.5,1.3,3.5,2.5,5.8,2.8l0.7-0.2l0.2,0.3c0.5,0,1,0.2,1.5,0.2c2.2,0,5.2-0.7,5.8-2.7l-2.5-8.3
	C530.6,263.1,530.3,263.1,530,263.1z M511.7,215.5l10.2,39.1c2,1.7,5.2,3.3,8,3.3c2.8,0,4.7-0.8,5.2-2.5l-15.1-40.1L511.7,215.5
	L511.7,215.5z M545.1,215.2l22.1,39.3c3.3,2.3,7.7,4,11.3,4c2.5,0,5-2.8,3.7-5l-0.3-0.3c0-0.2-0.2-0.2-0.2-0.3c0,0,0.2,0,0.2,0.2
	l-29.3-38.6C550.1,214.7,547.6,215,545.1,215.2z M571.8,210.9l50.4,45.4c2.8,1.5,5.8,2.3,8.8,2.3c0.7,0,1.5,0,2.2-0.2
	c2.7-0.5,3.8-2.2,3.5-3.8l-59.8-45.3C575.3,209.9,573.6,210.4,571.8,210.9z M533.3,215.5L552,255c3.2,2.3,7.3,3.3,10.3,3.3
	c1.5,0,3.5-0.5,4-1.7L543,215.2C540,215.4,536.6,215.5,533.3,215.5z M564.1,212.7l39.6,43.9c2.8,1.7,6.2,2.8,10,2.8
	c0.2,0,0.2,0,0.3,0c2.8,0,4.8-1.7,4.5-3.7l-48.9-44.4C567.8,211.9,566.1,212.2,564.1,212.7z M544.1,274c3.2,0,5.8-1.2,6.3-3
	l-4.2-8.3c-0.3,0-0.7,0-1,0c-2.8,0-5.5-0.7-8-1.8c-1,0.8-2.5,1.5-4.3,1.8l2.5,8.3C538.1,273.1,542.1,274,544.1,274z M563.8,263.3
	c-0.5,0-1,0.2-1.5,0.2c-3.2,0-7-0.8-10.3-2.5c-1.2,0.8-2.5,1.2-3.8,1.5l4.5,9.2c2.7,1.5,6.3,2.3,8.2,2.3c2.8,0,8-1.5,6-4.5l0.2,0.2
	L563.8,263.3z M332.8,274c2.2,0,6.3-0.8,9-3l3-9.5c-0.2-0.2-0.3-0.3-0.7-0.5c-2.5,1.2-5.3,1.8-8,1.8c-1.5,0-3.3-0.3-5-1l-4.7,9.2
	C326.9,272.8,329.6,274,332.8,274z M521.8,215.5l14.8,39.3c2.2,1.7,5.3,2.8,8.5,2.8c1.8,0,4.2-0.7,4.8-2.2l-18.8-40.1L521.8,215.5
	L521.8,215.5z M579.1,208.7l61.2,46.4c3.3,1.5,7.2,2.5,11.2,2.5c0.3,0,0.7,0,1,0c3-0.2,3.8-2,3.2-3.8l-72.4-46.6
	C581.7,207.7,580.4,208.2,579.1,208.7z M554.8,214.2l32,41.9c2.5,1.3,5.5,2.5,8.5,2.5c3.8,0,5.2-2,4.8-3.8L562.1,213
	C559.8,213.5,557.3,213.9,554.8,214.2z M605.5,194.1l120.2,35.6c1.2,0.2,2.3,0.2,3.3,0.2c3.7,0,6.7-1,9-4c2.3-3.2-0.3-6.5-3.7-8.3
	l-125.2-26.8C608,191.9,606.9,193.1,605.5,194.1z M511.5,274.8c2.2,0,5.3-0.8,6.5-2.7l-2.5-9.5c-3.8,0-10.5-1.5-15-4
	c-0.3,0.8-0.7,1.7-1.2,2.5l2.7,10.5C504.7,273.6,509.2,274.8,511.5,274.8z M491.5,274c1.3,0.3,2.5,0.5,3.5,0.5
	c1.7,0,4.5-0.7,5.3-2.3l-2.2-8.5C496.2,267.3,494,270.8,491.5,274z M585.1,206.4l75.4,48.4c2.2,0.8,4.3,1.2,6.3,1.2
	c1.3,0,2.7-0.2,3.8-0.7c2-0.8,3-2.3,2.3-4l-85.1-46.3C587.1,205.6,586.2,206.1,585.1,206.4z M761.7,190.7c0.7,1.2,1,2.3,1.2,3.7
	l59.8,5.7c5.5-0.5,7.5-3.5,8.2-5.2c0.7-1.7,0.5-4.5-2.2-6.3l-63.4-3.2c-1,1.8-2.3,3.2-4,4.3C761.2,190.1,761.3,190.4,761.7,190.7z
	 M766.3,181.9c-0.2,0.7-0.3,1.2-0.5,1.8l61.4,3c4.8-1.5,5.3-6,5.7-7.8c0-3.5-2-5.3-3.8-6.2h-64.7c0.2,0.3,0.2,0.7,0.3,0.8
	C765.8,176.9,766.7,179.3,766.3,181.9z M748.7,210.9c0.7-2-0.8-4-3.3-5.7l-132-19.1c-0.8,1-1.7,2-2.7,3l129.2,27.6
	C743.7,216.5,747.2,215,748.7,210.9z M590.2,204.1l87.2,47.6c2.5,0.7,5,1.2,7,1.2c0.7,0,1.3,0,1.8-0.2c4.7-1.3,4.8-3.7,3-5.8
	l-95-44.9C592.9,202.7,591.6,203.4,590.2,204.1z M596.1,200.9l100,47.3c0.8,0.2,1.8,0.2,2.7,0.2c1,0,2-0.2,3-0.3
	c5.2-1,9-3.2,7.8-5.7l-110.7-43.3C598.1,199.7,597.1,200.4,596.1,200.9z M600.7,197.9l109.2,42.8c6.3-0.3,10.5-0.8,11.2-1.2
	c7.5-3.5,4.7-6.8,0.3-9.2l-117.7-34.8C602.9,196.4,601.9,197.1,600.7,197.9z M617.7,274c2.7,0,6.5-0.8,6-3l-7.8-6.8
	c-0.5,0-1,0.2-1.5,0.2c-0.2,0-0.3,0-0.3,0c-4,0-8-1-11.7-3c-0.7,0.7-1.5,1-2.5,1.5l6.8,8.7C610.4,273.3,615.4,274,617.7,274z
	 M726.1,270.8c1.7,0,3.3-0.2,4.7-0.5c4-1.5,4.3-3.7,1.5-6L706.6,252c-1.2,0.3-2.3,0.7-3.7,1c-1.3,0.3-2.7,0.3-4,0.3
	c-1.5,0-3-0.2-4.5-0.5c-0.5,0.8-1.2,1.7-2.3,2.5l23.8,13.8C719.1,270.3,722.7,270.8,726.1,270.8z M502.7,215.5
	c1.8,6,2.7,12.2,2.7,18.5c0,3.3-0.7,7.5-1.3,11.3l2.5,10.5c3,1,6.5,1.8,8.8,1.8c2.7,0,4.2-0.8,4.7-2.2l-10.3-39.8L502.7,215.5
	L502.7,215.5z M667.1,271.5l-13-9c-0.5,0.2-1,0.2-1.7,0.2c-0.3,0-0.8,0-1.2,0c-4.3,0-8.2-1-11.7-2.3c-1.2,1.3-3,2.3-5.2,3l9.5,6.3
	c5.8,3.7,11.5,4.5,17.6,4.5C664.3,274.1,667.6,273.3,667.1,271.5z M704.1,273.3c0.5,0,0.8,0,1.3,0c4.8-0.3,6.7-2.7,4.8-5l-20.3-11.8
	c-0.8,0.3-1.7,0.7-2.7,1c-0.2,0-0.2,0-0.3,0c-0.8,0.2-1.8,0.2-2.7,0.2c-2.3,0-5-0.5-7.5-1.2c-0.7,1-1.7,1.8-2.7,2.5l18.8,12.1
	C696.4,272.5,700.4,273.3,704.1,273.3z M682.8,275c0.8,0,1.5,0,2.3,0c2.8-0.2,5-1.8,4-3.8l-16.8-10.8c-1.7,0.5-3.3,0.8-5.3,0.8
	c-2.5,0-5-0.5-7.8-1.3c-0.7,0.8-1.7,1.5-2.7,2.2l16.6,11.7C675.8,274.3,678.9,275,682.8,275z M745.5,266.8c2,0,3.7-0.3,5-0.8
	c2.3-1.5,1.5-4.5-2.2-6.7l-31.8-14c-0.7,0-1.3,0.2-2,0.2c-0.7,2.3-2.7,4.3-5.8,5.8l31.3,15C742,266.5,743.9,266.8,745.5,266.8z
	 M818.1,220c1-1.3,0.8-4.2-1.5-6.3l-60.3-8.2c-1,0.7-2,1.2-3,1.5c0.5,1.5,0.7,3,0.3,4.5l57.1,11.6C814.3,223,816.6,221.9,818.1,220z
	 M809.8,230.4c1.2-1.2,1.7-3.7-0.8-5.7l-55.8-11.3c-1.2,2.5-3,5.2-6.5,6.8l53.3,13.6c-0.7-0.5-1.5-1-2.7-1.3
	c1.8,0.5,3.5,0.7,4.8,0.7C806.1,233.2,808.8,231.5,809.8,230.4z M783.3,249c1.2-1.2,2-2.5,1.5-4L740,230.9c-2.3,2.3-5.5,3.7-9.3,4
	v0.2c0,0.8-0.2,1.5-0.3,2.3l38.9,15c1,0.2,2.2,0.2,3.2,0.2C777,252.3,780.8,251.3,783.3,249z M799.6,240.5c1.2-0.8,2.2-2.7,1.7-4.3
	l-57.8-14.8c0.5,2.5,0,5.2-1.5,7.3c-0.2,0.2-0.3,0.5-0.5,0.7l41.3,13.1c2.3,0.5,4.5,0.7,6.5,0.7C794.3,243.2,798,241.7,799.6,240.5z
	 M759.7,260.8c3.7,0,7-0.7,8.7-2.2c1.8-1.7,1.7-3.3,0-5l-38.4-14.8c-1.2,2-3.3,3.7-6.5,5.2c-0.5,0.2-1,0.5-3.2,0.8l36.3,16
	C757.5,260.8,758.7,260.8,759.7,260.8z M540,290.8c1.8,0,4.2-0.7,5.5-2l-3-10c-2-0.2-4.7-0.8-7.2-2c-2.8,2-6.3,2.2-7.5,2.2h-0.2l2,7
	C532.6,288.9,537.8,290.8,540,290.8z M522.7,290.8c2,0,4.2-0.5,5.2-2l-2.7-10c-1.8-0.3-3.7-0.8-5.2-1.7c-2.5,1.8-5.8,2.5-8.3,2.5
	c-2.2,0-6-0.7-9.3-2.3c-0.3,0.2-0.7,0.3-1,0.7C508.5,281.1,516,285.9,522.7,290.8C522.3,290.6,522.5,290.8,522.7,290.8z
	 M559.9,290.3c2.3,0,4.7-1,4.8-3.3l-4.2-8.3c-2,0-5.5-0.7-8.7-2c-1.8,1.3-4.3,2-7.2,2.2l2,6.5C549.5,288.1,554.9,290.3,559.9,290.3z
	 M502.2,253.8c0.7,0.3,1.3,0.8,2.2,1.2l-1.3-5.3C502.5,252.3,502.2,254.2,502.2,253.8z M639.7,274.1c2.3,0,4.7-0.5,5.2-1.7
	l-12.8-8.7c-0.3,0-0.7,0-1,0c-3.2,0-6.3-0.8-9.5-2.2c-1,1-2.2,1.7-3.5,2.2l10,8.5C632.3,273.8,637.3,274.1,639.7,274.1z
	 M824.9,207.1c0.7-1.3,0.2-3.5-1.8-5.2l-60.6-5.7c-0.2,1-0.3,2.2-0.8,3.2c-0.8,1.8-2,3.3-3.3,4.5l59.3,8
	C821.6,211.4,824.2,209.2,824.9,207.1z M597.6,273.5c2.8,0,5.8-1,6-2.8l-5.8-7.3c-0.8,0.2-1.7,0.3-2.7,0.3c-3.8,0-7.5-1.3-10.3-2.8
	c-1.2,1.2-2.8,2-4.5,2.3l5.8,7.7C589.2,272.8,595.2,273.5,597.6,273.5z M584.4,271.6l-6.3-8.3c-2.8,0-6-0.8-9-2.2
	c-1,0.8-2.2,1.3-3.3,1.7l4.8,9c2,1,4.3,1.7,7.3,1.7C580.7,273.5,583.6,273,584.4,271.6z M579.4,290.8c2.2,0,4.5-1,5.2-2.7l-5.3-9.7
	c-0.5,0-1.2,0-1.7,0c-3.7,0-6.5-0.8-8.8-1.8c-1.8,1.2-4.2,1.8-5.7,2l4,7.8C570.4,288.8,574.9,290.8,579.4,290.8z M70.6,237.5
	c-3.8-0.8-6-2.7-7-3.7c-0.7-0.7-1.2-1.5-1.7-2.3l-27,5.3c-1.5,1.8-1,4.5,1,6.2c1.8,1.7,5.5,2.8,9.5,3l25.5-6.3
	C70.8,239,70.6,238.3,70.6,237.5z M390,375.3c-1.2,0.5-2.5,0.8-3.8,0.8H386h-0.2c-1.3,0-2.7-0.3-4-0.8l0,0l0,0
	c-1.3-0.5-2.3-1.2-3.2-2l-5.7,23c0.7,4.8,3.2,9.2,4.7,9.7c3.7,1.7,7.5-5.3,8.3-11.3c0,0.3-0.2,0.8-0.2,1.2L390,375.3z M401.7,377.8
	c-1.3,0.5-2.5,0.7-3.8,0.7c-0.7,0-1.3,0-2.2-0.2h-0.2h-0.2c-1.5-0.3-2.7-1-3.7-1.8l-5.2,25.3c1.2,4,3.5,7.2,5,7.5c1.7,0.3,5-1,6.8-6
	l4.2-24.6C402.2,378.2,402,378,401.7,377.8z M296.3,285.9l4.2-7.5c-0.5,0-0.8,0-1.3,0c-3.8,0-6.7-0.7-8.7-2c-2.7,1-5.5,1.5-7.7,1.7
	l-6.5,8.3c-0.3,2.2,2,4,6.3,4C287.3,290.4,292.1,288.8,296.3,285.9z M414.8,380.1c-1.5,0.7-3,1-4.7,1H410h-0.2c-0.7,0-1.5,0-2.2-0.2
	h-0.2h-0.2c-1.3-0.3-2.5-0.8-3.5-1.5l-4.2,24.5c0.8,4.3,3,8.3,5,8.5c3.2,0.7,6.5-2.7,7.8-9.3L414.8,380.1L414.8,380.1z M390.5,287.8
	L390.5,287.8c0.3,0,0.5,0,0.8-0.2l-0.3,1v0.2l-13.8,44.1c0.2,1.3,0.5,2.7,1,3.8c0.7,1.5,1.2,2.7,2.7,3.3l0,0
	c0.7,0.3,1.5,0.5,2.2,0.5v-0.2l0.3,0.2c1.2,0,2.2-0.5,3-1l13.8-54.1c-3.3-2.7-6.5-5.7-9.3-8.8c-2.5,0.8-5.8,2.2-7.8,2.7
	c-8.2,3.8-17,9.7-24.1,15.1c-8.2,8.8-15.5,20.3-20,34.1c-4.5,13.8-10.7,40.6-34.5,38.8c14-12.7-4.7-32.3-18.5-19.8
	c-10.8,9.8-8.7,28,10,31c7.5,1.3,38.1,6.3,50.4-35C357.9,306.3,376.7,292.6,390.5,287.8z M377,371.3c-0.8,0.2-1.8,0.3-2.7,0.3
	c-1.7,0-3.3-0.3-5-1h-0.2H369c-1.3-0.7-2.3-1.3-3.2-2.2l-5.5,17.6c-1.3,6.5,1.3,13.5,3.2,14.1c2.7,1.2,5.7,0.3,7.8-4.3l6-24.1
	C377.4,371.7,377.2,371.5,377,371.3z M422.8,383.1h-0.2h-0.2c-0.8,0-1.7-0.2-2.5-0.3l0,0c-0.2,0-0.2,0-0.3,0h0.2
	c-1.3-0.3-2.3-0.8-3.3-1.3l-2.8,25.8c1.2,4.5,3.5,7.3,5.2,7.5c2.7,0.8,5.2-3.2,6.7-8.2l2-25C426.3,382.6,424.6,383.1,422.8,383.1z
	 M449.3,383.5c-0.5,0.2-1,0.2-1.5,0.2h-0.2h-0.2c-1.7,0-3.2-0.5-4.7-1.2l-1,27.5c1.8,4,5,5.8,6.5,5.5c2.2,0,6.2-3.2,7.5-9.3
	l-1.8-24.1C452.3,382.6,450.8,383.1,449.3,383.5z M462.7,382L462.7,382h-0.3h-0.2h-0.2h-0.3h-0.3c-2-0.2-3.8-0.7-5.5-1.5
	c-0.2,0.2-0.3,0.2-0.5,0.3l2.2,27.6c1.5,3.3,4,5.2,6.2,5c1.5-0.2,4.7-2.8,5.8-8l-3-24.8C465.4,381.3,464.2,381.8,462.7,382z
	 M434.4,383.3L434.4,383.3h-0.2c-1.8,0-3.5-0.5-5-1.3l-2.2,25.6c1,4.8,3.7,7.5,5.8,7.5c4.2,0.2,6.5-4.5,7.3-9.7l1-24l0,0
	C439.1,382.6,436.8,383.3,434.4,383.3z M162.3,274.1c-3.8,1-7.8,1.5-11.3,1.5c-2.2,0-4.2-0.2-5.8-0.7H145h-0.2
	c-0.2,0-0.3-0.2-0.5-0.2l-13,7.3c-0.2,2.5,3.7,4.3,8.7,4.3c4.8,0.3,11.7-0.8,17.6-3.3l9.2-5.8C164.8,276.6,163.3,275.5,162.3,274.1z
	 M139,270.6c-2.8,0.7-5.3,1-7.7,1c-2.7,0-5.2-0.5-7-1.3l-0.3-0.2l-0.3-0.2c-0.2,0-0.2-0.2-0.3-0.3l-12.2,6.2c-0.8,2.2,2.3,4,5.7,4.8
	c2.8,0.8,8.2,1,12.8-0.3l12-6.8C140.3,272.6,139.5,271.6,139,270.6z M279.5,278.3c-1.7,0-5.2-0.2-7.8-2.2c-3.7,1.7-7.7,2.3-10.3,2.5
	l-6.5,8c-0.3,2.5,4.5,3.5,7.8,3.5c3.3,0,6.7-1,9.8-2.5l7.2-9.3C279.5,278.3,279.5,278.3,279.5,278.3z M102.6,257.2
	c-5.2-0.3-9.3-1.8-12.3-4.7c-0.7-0.7-1.3-1.3-1.8-2l-22.1,7.7c-2.7,2.8,0.7,6.2,4.8,8c1.8,0.8,6.7,1.8,11.5,1.8l20.3-8.8
	C102.9,258.6,102.6,258,102.6,257.2z M474.1,380.3c-0.2,0-0.3,0-0.5,0h-0.2h-0.2c-1.3,0-2.8-0.3-4.5-1c-0.2,0.2-0.5,0.3-0.7,0.5
	l3.2,26.8c1.3,3.2,3.7,5.2,5.7,5c3.7,0,5.7-4,6.3-8.8l-3.2-24C478.2,379.6,476.2,380.3,474.1,380.3z M87.3,248
	c-5.2,0-9.8-1.5-12.8-3.7c-1-0.7-1.7-1.7-2.3-2.5l-24.1,6c-1,2,0,4.7,2.2,6.7c2.2,2,6.5,3,10.5,3.3l26.6-9.3
	C87.4,248.3,87.3,248.2,87.3,248z M120.5,265.6c-1.2,0.2-2.2,0.2-3.2,0.2c-5.3,0-9.3-1.2-11.8-3.3c-0.3-0.3-0.7-0.7-1-1l-16.8,7.2
	c-2.7,2.3,1.2,5.3,5.3,6.5c3.5,1.2,8.8,1.2,13.6,0.5l15-7.7C121,267.3,120.7,266.5,120.5,265.6z M237.2,279c-3.3,0-6-0.8-7.8-2.2
	c-3.7,1.3-7.2,2-10.3,2.2l-10.5,7c0.2,2,4.2,3.8,8.2,3.8c1.8,0,5.8-0.3,10-1.8L237.2,279L237.2,279z M251.2,276.6
	c-3.5,1.3-7.3,1.8-10,2.2l-9.5,8c0,2.3,4.8,3.2,10.2,3.2c2.7,0,6.2-0.8,9.5-2.3l7-8.7C256.4,278.8,253.4,278.3,251.2,276.6z
	 M184.3,276.5c-3.8,1.2-7.8,1.8-11.5,1.8c-0.5,0-1.2,0-1.7,0c-0.5,0-0.8,0-1.3-0.2l-12,7.5c0.8,1.7,3.8,2.7,7,2.8
	c2.8,0.2,9.3-0.7,15-2.7l9.3-6.5C187.1,279,185.5,278,184.3,276.5z M207.8,277.1c-3.7,1.5-8,2.7-13.5,2.7c-0.5,0-0.8,0-1.3,0
	l-9.7,6.5c0.3,1.8,3.3,3.2,7,3.2c1.8,0,6.8-0.5,11.5-1.8l13-8.7C213.2,279.1,210.1,278.8,207.8,277.1z M880.5,172.6h-44.4
	c1,1.7,1.7,3.7,1.7,6.2v0.3v0.3v0.2c-0.5,3.5-1.7,6-3.3,7.8l41.9,2.5c3-1.8,5-5,5.5-8.8C882.5,174.9,880.5,172.6,880.5,172.6z
	 M805.6,240.3c-0.7,1.7-1.7,3-3.2,4.2c-2.3,1.8-6,3-10,3.5l27,10c4.5,0,9.8-1,12.3-3.3c2.5-2.2,3.3-5,2-7.2L805.6,240.3z
	 M492.7,375.2c-1.5,1.2-3.2,1.8-5,2.2l0,0l0,0c-0.5,0-1.2,0.2-1.7,0.2h-0.2c-1,0-2.2-0.2-3.5-0.5l0,0c-0.3,0.3-0.5,0.5-0.8,0.7
	l3.5,25.6c1.7,3,4.2,5,6.3,4.7c3.2-0.5,6-6.7,5.5-12.3L492.7,375.2z M755.7,267.3c-0.7,1-1.5,2-2.5,2.7l-0.3,0.2l-0.3,0.2
	c-2,0.8-4.3,1.3-7,1.3c-2.3,0-5-0.3-7.7-1c0,0.2-0.2,0.2-0.2,0.3l16.8,9.8c4,0.7,8.2,0.7,10.7-0.2c4-0.8,7.7-3.3,4.8-6L755.7,267.3z
	 M793.8,268l-20-8.7c-0.5,1.2-1.2,2.2-2.2,3c-2.5,2.3-6.5,3.3-11.8,3.3c-0.7,0-1.3,0-2-0.2l19.6,10.2c4.2,0.3,8.7,0.3,11.7-0.8
	C793.5,273.6,797.5,270.3,793.8,268z M736,272.8c-1,0.8-2.2,1.5-3.8,2.2H732h-0.2c-1.7,0.5-3.7,0.7-5.8,0.7c-3.5,0-7.7-0.7-11.3-1.5
	c0,0,0,0.2-0.2,0.2l17.6,11.3c3.7,0.8,7.2,1.2,10,0.8c5.7,0,9.7-2.2,8.5-5.2L736,272.8z M815.4,229.7c-0.3,1.7-1,3.2-2.2,4.3
	c-1,1-3.2,2.8-7,3.7c0,0.2,0,0.3,0,0.5l31.3,7.8c3.5-0.3,6.7-1.5,8.3-3c2-1.7,2.5-4.2,1-6L815.4,229.7z M61.3,227.4
	c-2.5-0.8-4.7-2.2-6.3-4V223l-0.2-0.2c-0.8-1.2-1.3-2.5-1.5-3.8l-29,4.3c-2.3,1.8-3.7,5.3-1.3,8c1.8,2,4.5,3.5,7.7,4l30.6-6.2
	C61.3,228.5,61.3,227.9,61.3,227.4z M319.1,263.3c-1.7,0-3.2-0.3-4.5-0.8l-4.8,9c0.8,1.7,4.2,2.3,6.2,2.3c2,0,5.5-0.8,8.2-2.3
	l5.3-10.7l0,0C326.1,262.5,322.3,263.3,319.1,263.3z M869.9,192.2c0.2,0,0.2,0,0.3,0l-34.8-2.2c0.7,2.3,0.5,4.8-0.2,6.5
	c-0.5,1.3-1.8,4.3-5.7,6.5c0.2,0.3,0.2,0.5,0.2,0.8l40.3,3.2c3.2-1.3,5.7-3.5,6.7-5.7C878.3,197.4,875,192.7,869.9,192.2z
	 M866.4,209l-36.1-2.8c0,1-0.3,2-0.7,3c-1,2.3-3,4.8-6.2,6.3c0.2,0.3,0.2,0.8,0.2,1.2l37.3,5.7c2.8-0.5,5.7-1.7,8.2-4.2
	C871.2,214.9,869.5,210.9,866.4,209z M789.3,249.2c-0.5,1.2-1.3,2.5-2.5,3.5c-3,2.7-7,4.3-12,4.7l25,10.8c4.7-0.2,9.3-1,11.2-1.8
	c3.7-1.7,6.8-4.5,5.5-7.2L789.3,249.2z M593.9,347.5c-13.8-12.5-32.3,7.2-18.5,19.8c-23.8,1.7-30-25-34.5-38.8
	c-4.7-14.3-12.1-26.1-20.8-35.1c-7.7-5.7-16.5-11.2-24.3-14c-0.3,0-0.5,0-0.8,0c-1,0-5-0.2-7.5-0.7c-2.2,2.3-4.5,4.3-7,6.3
	l16.8,53.1c0.8,0.5,1.7,0.7,2.7,0.7c0.7,0,1.3-0.2,1.8-0.3l0,0l0,0c2-0.8,3.3-2.3,4.2-4.5l-14-45.3c1.2,0.5,2.2,1,3.3,1.5
	c0.2,0,0.3,0.2,0.3,0.2c12.8,6.7,28.1,21.1,37.6,53.3c12.3,41.3,42.9,36.3,50.4,35C602.6,375.3,604.7,357.3,593.9,347.5z M605,284.8
	l-5-6.7c-1,0.2-1.8,0.2-2.5,0.2c-0.3,0-6,0-11-1.8c-1.2,0.8-2.7,1.3-4.5,1.7l4.5,8.3c4,2.7,8.7,4.2,13,4.2c5.8,0,8.2-3.3,4.8-6.3
	C604.4,284.3,604.7,284.6,605,284.8z M516.3,367.2c-1,0.7-2,1.3-3,1.7l0,0l0,0l0,0l-0.2,0.2H513c-1.3,0.5-2.7,0.7-4,0.7h-0.2h-0.2
	c-0.2,0-0.5,0-0.7,0v0.2l-1.3,0.5h-0.2c-0.2,0.2-0.3,0.3-0.5,0.5l6.8,26.1c1.5,1.3,3.2,1.8,5.2,1.2c3.5-1.5,5.5-5.5,4.3-12.5
	L516.3,367.2z M712.7,276c-1.8,1.3-4.2,2-7,2.2c-0.5,0-1,0-1.7,0c-3.7,0-7.7-0.7-11.5-1.8c-0.2,0.2-0.3,0.5-0.5,0.7l14.6,10.2
	c4.2,1,8.3,1.3,10.3,1.3c4.8-0.3,9.7-2.7,6-6L712.7,276z M504.5,372c-1.3,0.8-2.8,1.5-4.5,1.8c-0.8,0.2-1.5,0.3-2.2,0.3h-0.2h-0.2
	c-0.7,0-1.3-0.2-2.2-0.3c-0.2,0-0.2,0-0.3,0.2l0,0l-0.8,0.2l5.3,27.3c1.7,1.8,3.7,2.7,4.8,2.3c3-0.7,5.8-4.2,5.3-11.2L504.5,372z
	 M626.2,284.6l-5-6.2c-1.5,0.3-2.8,0.3-3.5,0.3c-2,0-7.5-0.5-12.3-2.7c-0.8,0.7-1.8,1-2.8,1.3l8,10.7c2.8,1.3,5.8,2.2,8.8,2.2
	c4.3,0,11.2-1.7,6.2-6.2C625.7,284.3,626,284.4,626.2,284.6z M664.1,279c-1,0.2-1.8,0.2-2.3,0.2c-4.3,0-9.2-0.3-14.3-2.3
	c-0.7,0.7-1.7,1-2.7,1.3l12,10.3c3.5,1,6.8,1.3,8.5,1.3c4.7,0,9.2-2.3,8-4.7L664.1,279z M690.1,278.5c-1.3,0.7-3,1.2-4.8,1.3
	c-0.8,0-1.7,0-2.7,0c-5.5,0-10-1.2-13.5-2.7c-0.7,0.5-1.3,0.8-2,1l15,10c4,1,8,1.3,9.7,1.3c5.2,0,9.2-2.8,5.8-5.7
	c0.5,0.2,0.8,0.5,1.3,0.7L690.1,278.5z M642,278.8c-0.7,0.2-1.5,0.2-2.3,0.2c-1.7,0-8-0.2-13.8-2.3c-0.7,0.5-1.3,0.8-2.2,1.2
	l8.2,10.2c3,1.3,6,2,8.5,2c6,0,11.5-1.2,9.8-4.2L642,278.8z M823.6,218.9c-0.2,1.5-0.7,3-1.5,4l-0.2,0.2l-0.2,0.2
	c-1.7,2-3.8,3.3-6.3,4l35.3,8.2c3.3-0.5,6.2-2.2,8-4.2c2.2-2.3,1.3-5.2-0.5-7.2L823.6,218.9z M53.6,215.4c-3.2-1.5-5.2-3.8-6.2-6.3
	c-0.5-0.8-0.7-1.8-0.7-2.8l-30.3,2.3c-3.7,1.5-6,6-3.5,9.3c1.8,2,4,3.2,6.3,3.8l34-5C53.5,216.2,53.5,215.9,53.6,215.4z M193.1,246
	c-2.7,2.3-3.3,5.2,2,6.7c0.5,0.2,1.2,0.2,1.8,0.2c1.7,0,3.8-0.3,5.8-0.8l86.7-46.6c-1.5-0.7-3-1.3-4.3-2.2L193.1,246z M244.7,254.8
	c-0.3,1.7,1,3.2,3.5,3.8c0.7,0.2,1.5,0.2,2.2,0.2c2.2,0,4.3-0.5,6.5-1.3l-0.2-0.2l51.4-45.8c-1.5-0.3-2.8-0.7-4.3-1.2L244.7,254.8z
	 M208.4,251.2c-0.8,1.7,0.2,3.5,2.2,4.3c1.2,0.5,2.5,0.7,3.8,0.7c1.8,0,3.8-0.3,5.8-1l75.1-47.3c-1.3-0.5-2.5-1-3.7-1.5L208.4,251.2
	z M226.1,253.7c-0.8,2,0,3.8,3,4c0.3,0,0.7,0,1,0c4,0,7.8-1.2,11.2-2.5l60.6-45.3c-1.5-0.5-2.8-0.8-4.2-1.3L226.1,253.7z
	 M161.3,229.5c-5,2.5-9.3,6-1,10c0.7,0.3,4.3,0.7,10.2,1L278,198.7c-1.2-0.8-2.2-1.5-3.2-2.3L161.3,229.5z M148.2,217
	c-3.8,1.7-7,5.3-4.7,8.8c2.2,3.2,5.3,4,9,4c0.5,0,1,0,1.5,0l119-34.6c-1.3-1-2.5-2.2-3.7-3.2L148.2,217z M93.6,249
	c2.7,2.3,6.3,3.3,10.8,3.3c1.7,0,3.3-0.2,5.2-0.5l41.6-14.6c-0.3-0.8-0.3-1.5-0.3-2.3v-0.2c-4.2-0.3-7.3-1.8-9.8-4.5l-48.8,15
	C91.6,246.7,92.4,248,93.6,249z M117.2,260.8c2.5,0,5.2-0.3,7.7-0.8l35.6-15.3c-1.5-0.2-1.8-0.5-2.3-0.7c-3-1.5-5.2-3.2-6.3-5
	l-43.6,15.3c-1,1.5-1,3,0.5,4.3C110.4,260.1,113.5,260.8,117.2,260.8z M136.5,205.1c-2.7,1.7-4.5,3.8-3.8,5.8
	c1.5,3.8,4.5,5.3,7.8,5.8l127.2-26.3c-1.2-1.2-2.3-2.3-3.2-3.5L136.5,205.1z M77.3,240.5c1.7,1.2,5.2,2.7,10.3,2.7
	c2.3,0,4.8-0.3,7.7-1c-0.3,0.2-0.7,0.3-0.8,0.3l44.9-13.8l0,0c-1.5-2.2-2.2-4.8-1.5-7.3h-0.2l-61.3,13.3
	C74.6,236.7,75.8,239.3,77.3,240.5z M346.2,255.5c0.3,1.7,2.3,2.5,5.2,2.5c3,0,6.2-1.7,8.2-3.5l10.3-39.1h-8.3L346.2,255.5z
	 M377,249.3l-1.5,6.3c1-0.3,2.2-0.8,3-1.3C377.9,252.7,377.5,251,377,249.3z M263.7,253.7c-2.2,2.8,0,5.7,3.7,5.7c0.2,0,0.2,0,0.3,0
	c3,0,5.7-0.7,8-1.8l40.8-44.3c-2-0.3-3.8-0.7-5.8-1.2L263.7,253.7z M349.1,274c3.3,0,6.5-1.3,8.3-3.2l2.7-9.5
	c-0.2-0.2-0.5-0.3-0.7-0.3c-2.5,1.3-5.3,2.3-8,2.3c-2.2,0-3.8-0.3-5.2-0.8l-3,9.5C344.4,273.3,347.2,274,349.1,274z M365.4,274.8
	c2.5,0,7.5-1.2,9.8-3.8l3-11.2c-4.2,1.7-9.2,2.8-12.2,2.8c-1.7,0-3-0.2-4.2-0.7l-2.8,10.2C360.2,274,363.4,274.8,365.4,274.8z
	 M361.4,255.7c0.7,1.3,2.2,2,4.7,2c2,0,4.8-0.5,7.5-1.3l2.7-11.2c-0.7-3.7-1-7.3-1-11c0-6.3,0.8-12.5,2.7-18.5h-6L361.4,255.7z
	 M297.6,254.3c0.8-0.7,1.5-1.2,2.2-1.7c-2.3,2.2,0.3,5.7,3.2,5.7c3.3,0,7.2-1.3,10.5-3.3l22.6-39.6c-2.7-0.2-5.3-0.3-7.8-0.5
	L297.6,254.3z M331.1,255.3c0.5,1.7,3.2,2.5,5,2.5c3.2,0,6.3-1.2,8.5-2.8l15.1-39.4h-9.7L331.1,255.3z M281.3,254
	c0.5-0.5,1.2-0.8,1.7-1.3c-2.3,2.2-1.8,6,3.5,6c2.5,0,4.8-0.8,7.2-1.8l32.6-42.3c-2.7-0.3-5.2-0.7-7.7-1L281.3,254z M338.1,215.4
	L314.9,256c0.2,1.7,2.3,2.3,4.2,2.3c3,0,6.8-1,9.8-3l19-39.8h-2.8C342.7,215.5,340.4,215.5,338.1,215.4z M172.1,241.8
	c-2,2.7,2,5.2,7.5,6.2c1,0.2,2,0.3,3,0.3c0.5,0,0.8,0,1.2,0l99.4-46.3c-1.2-0.7-2.3-1.3-3.3-2L172.1,241.8z M381.9,274.5
	c1,0,4.2-1.8,5.7-2.3l0,0c-3-4-5.3-8.3-7.3-13l-3.5,13.3C377.9,274,380.4,274.5,381.9,274.5z M124.2,197.4c1.8,4,6,5.7,9.8,6.2
	l129.2-18.3c-0.8-1.2-1.7-2.3-2.3-3.3l-132,8.3C125.2,191.2,122.5,193.6,124.2,197.4z M129.4,188.1l130.5-8.2
	c-1.8-3.2-2.7-5.5-2.7-5.8l-0.5-1.5H122.4c-1.7,4.7-2.5,6.7-2.2,8.5C120.7,184.9,125,187.1,129.4,188.1z M377,278.5
	c-0.8-0.3-1.7-0.7-2.3-1.2c-3.3,1.7-7.2,2.3-9.3,2.3c-2.5,0-5.5-0.7-7.8-2.2l-3.2,11.5c1,1,2.5,1.5,4,1.7
	C364,286.4,370.5,282,377,278.5z M353.1,285.4l2.2-7.7c-1.8,0.7-3.8,1-6,1c-1.2,0-4.8-0.2-7.5-2.2c-0.3,0.2-0.8,0.3-1.2,0.5
	l-3.7,11.7c1.3,1.2,3.5,1.8,5.2,1.8C344.4,290.8,349.9,288.8,353.1,285.4z M322.1,290.3c5.3,0,11.3-2.5,13.6-5.7l2-6.5
	c-2,0.5-3.7,0.7-5,0.7c-3.2,0-5.8-0.8-7.8-2.2c-0.8,0.3-1.7,0.7-2.3,0.8l-5.2,10.2C317.9,289.4,320.1,290.3,322.1,290.3z
	 M41.8,189.2c0.2-0.5,0.5-1,0.7-1.5c-1.5-1.8-2.8-4.3-3.3-8v-0.2v-0.3v-0.3c0-2.5,0.7-4.5,1.7-6.2H1.4c0,0-2,2.3-1.2,8.8
	c0.5,4.3,2.8,7.5,6.3,9.3L41.8,189.2z M47.3,203.1c-3.7-2.2-5.2-5.2-5.7-6.5c-0.5-1.3-0.7-3.2-0.5-5l-31.6,1.3
	c-3.7,1.5-5.7,5.2-4.3,8.5c0.8,2.2,3.2,4.2,5.8,5.5l35.8-2.8C47.1,203.6,47.1,203.2,47.3,203.1z M49.6,186.6l65.9-3.3
	c-0.2-0.5-0.3-1-0.3-1.5c-0.3-2.7,0.3-5,1.5-8.3c0.2-0.3,0.2-0.5,0.3-0.8H74.4l0,0l0,0H47.8c-1.8,0.8-3.8,2.7-3.8,6.2
	C44.3,180.8,44.8,185.2,49.6,186.6z M126.4,265.8c1.3,0.7,3,0.8,5,0.8c2.3,0,5-0.5,7.8-1.2l31.1-15.8c-1.7-1.2-2.8-2.7-3.3-4.3
	c-1.2,0-2-0.2-2.8-0.2l-38.3,16.5C124.7,263.3,124.9,264.8,126.4,265.8z M48.5,188.6c-2.7,1.8-2.8,4.7-2.2,6.3
	c0.7,1.8,2.7,4.8,8.5,5.2l64.1-5.5c0-1.3,0.5-2.7,1.2-3.8c0.2-0.3,0.3-0.7,0.7-1c-1.8-1.2-3.2-2.7-4.2-4.7L48.5,188.6z M302.5,290.8
	c4.8,0,9.7-2.3,13.1-5l3.8-7.5c-1.5,0.3-2.7,0.3-3.5,0.3c-0.7,0-4.8,0-7.8-2.2c-1.3,0.7-3,1.2-4.8,1.5l-5.7,10.5
	C298.5,289.8,300.5,290.8,302.5,290.8z M227.6,272.3l15.6-10.5c-0.7-0.3-1.2-0.8-1.7-1.3c-3.3,1.3-7.3,2.3-11.7,2.3
	c-0.3,0-0.8,0-1.2,0c-1.2,0-2.2-0.2-3-0.5l-15.6,10.8c1,0.8,3.2,1.3,5,1.3C219.4,274.1,223.6,273.8,227.6,272.3z M191.8,274.8
	c0.8,0,1.7,0,2.3,0c7.8,0,13.3-2.7,17.5-5.5c-0.7,0.3-1,0.8-1.3,1.2l13.8-9.5c-0.7-0.5-1.2-1-1.7-1.5c-2.7,0.8-5.3,1.3-7.8,1.3
	c-2,0-4-0.3-5.7-1c0,0,0,0-0.2,0c-0.3-0.2-0.5-0.3-0.8-0.3l-20.3,12.8C187.9,273.8,189.6,274.8,191.8,274.8z M146.3,270.3
	c1.3,0.3,2.8,0.5,4.7,0.5c4.3,0,9.8-1,14-2.7l23.6-13.5c-0.7-0.5-1-1.2-1.3-1.7c-1.5,0.3-3,0.5-4.5,0.5c-1.3,0-2.7-0.2-4-0.3
	c-2.5-0.5-4.8-1.2-6.5-2.2L144,265.5C142.2,267.3,142.8,269.1,146.3,270.3z M171.5,273.3c0.5,0,0.8,0,1.3,0c6.3,0,13-2.2,17.3-4.7
	c-0.3,0.2-0.7,0.5-1,0.7l17-10.8c-0.7-0.5-1.2-1.2-1.7-1.8c-2.5,0.7-5.2,1.2-7.5,1.2c-1,0-1.8,0-2.7-0.2c-0.2,0-0.2,0-0.3,0
	c-1.7-0.5-2.8-1-3.8-1.7L166,269.8C165.6,271.6,167.6,273.1,171.5,273.3z M279.5,273.5c2.2,0,7.5-0.5,10.7-2.2l7.5-9.7
	c-0.3-0.2-0.7-0.5-0.8-0.7c-2.8,1.5-6.5,2.8-10.3,2.8c-2.5,0-4.5-0.7-6.2-1.7l-6.8,8.5C273.3,272.5,276.5,273.5,279.5,273.5z
	 M299.1,273.5c3.7,0,6.5-1,8.8-2.5l5.2-9.3c-0.2-0.2-0.5-0.3-0.7-0.5c-3.2,1.3-6.5,2.2-9.5,2.2c-1.3,0-2.5-0.3-3.7-0.8l-6.8,9
	C293,273,296,273.5,299.1,273.5z M237.2,274.1c2.7,0,9.3-0.5,14.1-2.8l10-8.5c-0.5-0.3-1-0.8-1.5-1.2c-3.2,1.3-6.5,2.2-9.5,2.2
	c-1,0-2,0-3-0.2h-0.2c-0.8-0.2-1.5-0.3-2.2-0.7l-13.1,8.8C231.7,273.3,234.6,274.1,237.2,274.1z M259.2,274c2.3,0,7-0.7,10.8-2.5
	l7.7-9.5c-3.3,1.5-6.7,2.3-10.2,2.3c-0.2,0-0.3,0-0.3,0c-1.3,0-2.7-0.3-3.8-0.7l-9.8,8.3C254.2,273.3,257,274,259.2,274z"/>
</svg>
